<?xml version="1.0" encoding="utf-8"?>
<!-- Generator: Adobe Illustrator 23.0.1, SVG Export Plug-In . SVG Version: 6.00 Build 0)  -->
<svg version="1.1" id="圖層_1" xmlns="http://www.w3.org/2000/svg" xmlns:xlink="http://www.w3.org/1999/xlink" x="0px" y="0px"
	 viewBox="0 0 800 540" style="enable-background:new 0 0 800 540;" xml:space="preserve">
<style type="text/css">
	.st0{fill:none;stroke:#0A0A0A;stroke-width:2;stroke-miterlimit:10;}
	.st1{fill:none;stroke:#0A0A0A;stroke-miterlimit:10;}
	.st2{fill:none;stroke:#0A0A0A;stroke-width:1.6;stroke-miterlimit:10;}
	.st3{fill:none;stroke:#0A0A0A;stroke-width:0.8;stroke-miterlimit:10;}
	.st4{fill:none;stroke:#0A0A0A;stroke-linecap:round;stroke-linejoin:round;stroke-miterlimit:10;}
	.st5{fill:none;stroke:#000000;stroke-miterlimit:10;}
</style>
<g>
	<g>
		<rect x="332.5" y="335" class="st0" width="135" height="195"/>
		<g>
			<rect x="347.5" y="350" class="st1" width="105" height="18"/>
			<rect x="347.5" y="393.5" class="st1" width="105" height="102"/>
			<rect x="355" y="375.5" class="st1" width="90" height="10.5"/>
			<rect x="347.5" y="503" class="st1" width="71.2" height="12"/>
			<rect x="426.2" y="503" class="st1" width="26.2" height="12"/>
		</g>
	</g>
	<g>
		<g>
			<g>
				<path d="M361.6,276.9h1.6l2,5.6c0.3,0.7,0.5,1.5,0.7,2.2h0.1c0.3-0.7,0.5-1.5,0.7-2.2l2-5.6h1.6v10.5h-1.2v-5.8
					c0-0.9,0.1-2.2,0.2-3.1h-0.1l-0.8,2.4l-2,5.4h-0.9l-2-5.4l-0.8-2.4h-0.1c0.1,0.9,0.2,2.2,0.2,3.1v5.8h-1.2V276.9z"/>
				<path d="M372.6,283.5c0-2.5,1.7-4.1,3.5-4.1c2,0,3.1,1.4,3.1,3.7c0,0.3,0,0.6-0.1,0.7h-5.2c0.1,1.6,1.1,2.7,2.6,2.7
					c0.7,0,1.4-0.2,1.9-0.6l0.5,0.9c-0.7,0.4-1.5,0.8-2.6,0.8C374.2,287.6,372.6,286.1,372.6,283.5z M378,282.9
					c0-1.6-0.7-2.4-1.9-2.4c-1.1,0-2.1,0.9-2.2,2.4H378z"/>
				<path d="M381.3,285v-4.3h-1.2v-1l1.2-0.1l0.2-2.2h1.1v2.2h2.1v1.1h-2.1v4.3c0,1,0.3,1.5,1.2,1.5c0.3,0,0.6-0.1,0.9-0.2l0.3,1
					c-0.4,0.1-1,0.3-1.4,0.3C381.9,287.6,381.3,286.5,381.3,285z"/>
				<path d="M386,285.4c0-1.7,1.5-2.5,4.8-2.9c0-1-0.3-2-1.6-2c-0.9,0-1.7,0.4-2.3,0.8l-0.5-0.9c0.7-0.5,1.8-1,3.1-1
					c1.9,0,2.7,1.3,2.7,3.2v4.8H391l-0.1-0.9h0c-0.7,0.6-1.6,1.1-2.6,1.1C387,287.6,386,286.8,386,285.4z M390.8,285.5v-2.2
					c-2.6,0.3-3.5,1-3.5,1.9c0,0.9,0.6,1.2,1.4,1.2C389.4,286.5,390,286.2,390.8,285.5z"/>
				<path d="M397.9,276.9h3c2.4,0,3.9,0.8,3.9,3.1c0,2.2-1.6,3.2-3.9,3.2h-1.7v4.2h-1.3V276.9z M400.8,282.1c1.8,0,2.7-0.7,2.7-2.2
					c0-1.5-0.9-2-2.8-2h-1.5v4.2H400.8z"/>
				<path d="M406.7,284.5v-4.9h1.3v4.8c0,1.4,0.4,2.1,1.5,2.1c0.8,0,1.3-0.4,2.1-1.3v-5.5h1.3v7.8h-1.1l-0.1-1.2h0
					c-0.7,0.8-1.5,1.4-2.6,1.4C407.4,287.6,406.7,286.5,406.7,284.5z"/>
				<path d="M414.7,286.7l4.1-6h-3.6v-1.1h5.3v0.7l-4.1,6h4.2v1.1h-5.9V286.7z"/>
				<path d="M421.5,286.7l4.1-6h-3.6v-1.1h5.3v0.7l-4.1,6h4.2v1.1h-5.9V286.7z"/>
				<path d="M429.1,285.8V276h1.3v9.9c0,0.4,0.2,0.6,0.4,0.6c0.1,0,0.1,0,0.3,0l0.2,1c-0.2,0.1-0.4,0.1-0.8,0.1
					C429.5,287.6,429.1,287,429.1,285.8z"/>
				<path d="M432.6,283.5c0-2.5,1.7-4.1,3.5-4.1c2,0,3.1,1.4,3.1,3.7c0,0.3,0,0.6-0.1,0.7h-5.2c0.1,1.6,1.1,2.7,2.6,2.7
					c0.7,0,1.4-0.2,1.9-0.6l0.5,0.9c-0.7,0.4-1.5,0.8-2.6,0.8C434.3,287.6,432.6,286.1,432.6,283.5z M438,282.9
					c0-1.6-0.7-2.4-1.9-2.4c-1.1,0-2.1,0.9-2.2,2.4H438z"/>
				<path d="M267,305.9c0-2.8,0.8-5.1,2.1-7.2l0.4,0.2c-1.3,2-1.9,4.5-1.9,7c0,2.5,0.7,5,1.9,7l-0.4,0.2
					C267.7,311.1,267,308.8,267,305.9z"/>
				<path d="M270.9,308.5c0-1.7,1.5-2.5,5-2.9c0-1.2-0.3-2.4-1.8-2.4c-1,0-1.9,0.5-2.4,0.9l-0.3-0.5c0.5-0.4,1.6-1,2.9-1
					c1.8,0,2.4,1.3,2.4,3v4.9H276l-0.1-1h0c-0.8,0.6-1.7,1.2-2.7,1.2C271.9,310.6,270.9,309.9,270.9,308.5z M275.9,308.7v-2.6
					c-3.2,0.4-4.2,1.1-4.2,2.3c0,1.1,0.7,1.5,1.6,1.5C274.2,310,274.9,309.5,275.9,308.7z"/>
				<path d="M282.5,302.7h0.6l0.1,1h0c0.8-0.6,1.7-1.2,2.6-1.2c2.1,0,3.1,1.5,3.1,3.9c0,2.6-1.6,4.1-3.4,4.1c-0.7,0-1.5-0.3-2.3-0.9
					l0,1.4v2.8h-0.7V302.7z M288.2,306.4c0-1.9-0.7-3.3-2.4-3.3c-0.8,0-1.6,0.4-2.5,1.3v4.6c0.9,0.7,1.7,1,2.3,1
					C287.1,310,288.2,308.5,288.2,306.4z"/>
				<path d="M291.1,307.6v-4.9h0.7v4.8c0,1.6,0.5,2.4,1.8,2.4c0.9,0,1.6-0.5,2.5-1.6v-5.7h0.7v7.7h-0.6l-0.1-1.3h0
					c-0.8,0.9-1.5,1.5-2.6,1.5C291.9,310.6,291.1,309.6,291.1,307.6z"/>
				<path d="M298.7,310l4.5-6.7h-4v-0.6h5v0.4l-4.5,6.7h4.7v0.6h-5.6V310z"/>
				<path d="M305.1,310l4.5-6.7h-4v-0.6h5v0.4l-4.5,6.7h4.7v0.6h-5.6V310z"/>
				<path d="M312.6,309.4v-10.5h0.7v10.6c0,0.3,0.1,0.5,0.3,0.5c0.1,0,0.1,0,0.3,0l0.1,0.6c-0.1,0-0.3,0.1-0.5,0.1
					C313,310.6,312.6,310.2,312.6,309.4z"/>
				<path d="M315.8,306.6c0-2.5,1.6-4,3.4-4c1.8,0,2.9,1.3,2.9,3.6c0,0.2,0,0.4,0,0.6h-5.5c0,1.9,1.2,3.3,2.9,3.3
					c0.8,0,1.5-0.3,2.1-0.7l0.3,0.5c-0.6,0.4-1.3,0.8-2.4,0.8C317.4,310.6,315.8,309.1,315.8,306.6z M321.4,306.1
					c0-2-0.9-2.9-2.3-2.9c-1.3,0-2.5,1.1-2.6,2.9H321.4z"/>
				<path d="M327.5,308.3v-4.9h-1.2v-0.6l1.2-0.1l0.1-2.2h0.6v2.2h2.2v0.6h-2.2v5c0,1,0.2,1.6,1.3,1.6c0.3,0,0.7-0.1,1-0.2l0.2,0.6
					c-0.4,0.2-0.9,0.3-1.3,0.3C328,310.6,327.5,309.6,327.5,308.3z"/>
				<path d="M332.3,298.9h0.7v3.3l0,1.7c0.8-0.8,1.6-1.4,2.7-1.4c1.6,0,2.3,1,2.3,2.9v4.9h-0.7v-4.8c0-1.6-0.5-2.4-1.8-2.4
					c-0.9,0-1.6,0.5-2.5,1.4v5.8h-0.7V298.9z"/>
				<path d="M340.2,308.5c0-1.7,1.5-2.5,5-2.9c0-1.2-0.3-2.4-1.8-2.4c-1,0-1.9,0.5-2.4,0.9l-0.3-0.5c0.5-0.4,1.6-1,2.9-1
					c1.8,0,2.4,1.3,2.4,3v4.9h-0.6l-0.1-1h0c-0.8,0.6-1.7,1.2-2.7,1.2C341.3,310.6,340.2,309.9,340.2,308.5z M345.2,308.7v-2.6
					c-3.2,0.4-4.2,1.1-4.2,2.3c0,1.1,0.7,1.5,1.6,1.5C343.5,310,344.3,309.5,345.2,308.7z"/>
				<path d="M348.8,308.3v-4.9h-1.2v-0.6l1.2-0.1l0.1-2.2h0.6v2.2h2.2v0.6h-2.2v5c0,1,0.2,1.6,1.3,1.6c0.3,0,0.7-0.1,1-0.2l0.2,0.6
					c-0.4,0.2-0.9,0.3-1.3,0.3C349.3,310.6,348.8,309.6,348.8,308.3z"/>
				<path d="M356.7,307.6v-4.9h0.7v4.8c0,1.6,0.5,2.4,1.8,2.4c0.9,0,1.6-0.5,2.5-1.6v-5.7h0.7v7.7h-0.6l-0.1-1.3h0
					c-0.8,0.9-1.5,1.5-2.6,1.5C357.5,310.6,356.7,309.6,356.7,307.6z"/>
				<path d="M364.4,309.5l0.4-0.5c0.6,0.5,1.3,1,2.4,1c1.2,0,1.8-0.7,1.8-1.5c0-1-1-1.4-1.9-1.7c-1.2-0.4-2.4-0.9-2.4-2.2
					c0-1.1,0.9-2,2.5-2c0.8,0,1.6,0.3,2.2,0.8l-0.4,0.5c-0.5-0.4-1.1-0.7-1.8-0.7c-1.2,0-1.7,0.7-1.7,1.4c0,0.9,0.9,1.2,1.8,1.6
					c1.2,0.5,2.5,0.8,2.5,2.3c0,1.2-0.9,2.2-2.6,2.2C366,310.6,365,310.1,364.4,309.5z"/>
				<path d="M371.1,306.6c0-2.5,1.6-4,3.4-4c1.8,0,2.9,1.3,2.9,3.6c0,0.2,0,0.4,0,0.6h-5.5c0,1.9,1.2,3.3,2.9,3.3
					c0.8,0,1.5-0.3,2.1-0.7l0.3,0.5c-0.6,0.4-1.3,0.8-2.4,0.8C372.7,310.6,371.1,309.1,371.1,306.6z M376.8,306.1
					c0-2-0.9-2.9-2.3-2.9c-1.3,0-2.5,1.1-2.6,2.9H376.8z"/>
				<path d="M378.6,309.5l0.4-0.5c0.6,0.5,1.3,1,2.4,1c1.2,0,1.8-0.7,1.8-1.5c0-1-1-1.4-1.9-1.7c-1.2-0.4-2.4-0.9-2.4-2.2
					c0-1.1,0.9-2,2.5-2c0.8,0,1.6,0.3,2.2,0.8l-0.4,0.5c-0.5-0.4-1.1-0.7-1.8-0.7c-1.2,0-1.7,0.7-1.7,1.4c0,0.9,0.9,1.2,1.8,1.6
					c1.2,0.5,2.5,0.8,2.5,2.3c0,1.2-0.9,2.2-2.6,2.2C380.2,310.6,379.2,310.1,378.6,309.5z"/>
				<path d="M388.2,302.8l1.1-0.1h2.5v0.6h-3.5V302.8z M389.3,301c0-1.5,0.7-2.3,1.9-2.3c0.4,0,0.8,0.1,1.1,0.3l-0.2,0.6
					c-0.3-0.2-0.6-0.2-0.9-0.2c-0.8,0-1.2,0.6-1.2,1.7v9.3h-0.7V301z"/>
				<path d="M392.8,306.6c0-2.5,1.6-4,3.4-4c1.8,0,2.9,1.3,2.9,3.6c0,0.2,0,0.4,0,0.6h-5.5c0,1.9,1.2,3.3,2.9,3.3
					c0.8,0,1.5-0.3,2.1-0.7l0.3,0.5c-0.6,0.4-1.3,0.8-2.4,0.8C394.3,310.6,392.8,309.1,392.8,306.6z M398.4,306.1
					c0-2-0.9-2.9-2.3-2.9c-1.3,0-2.5,1.1-2.6,2.9H398.4z"/>
				<path d="M400.5,306.6c0-2.5,1.6-4,3.4-4c1.8,0,2.9,1.3,2.9,3.6c0,0.2,0,0.4,0,0.6h-5.5c0,1.9,1.2,3.3,2.9,3.3
					c0.8,0,1.5-0.3,2.1-0.7l0.3,0.5c-0.6,0.4-1.3,0.8-2.4,0.8C402.1,310.6,400.5,309.1,400.5,306.6z M406.1,306.1
					c0-2-0.9-2.9-2.3-2.9c-1.3,0-2.5,1.1-2.6,2.9H406.1z"/>
				<path d="M408.2,306.6c0-2.5,1.6-4,3.4-4c0.9,0,1.5,0.3,2.3,0.9l0-1.4v-3.2h0.7v11.5H414l-0.1-1h0c-0.6,0.6-1.5,1.2-2.5,1.2
					C409.5,310.6,408.2,309.2,408.2,306.6z M413.9,308.7v-4.6c-0.8-0.7-1.5-1-2.2-1c-1.5,0-2.7,1.5-2.7,3.4c0,2,0.9,3.4,2.5,3.4
					C412.3,310,413.1,309.5,413.9,308.7z"/>
				<path d="M416.9,306.6c0-2.5,1.6-4,3.4-4c1.8,0,2.9,1.3,2.9,3.6c0,0.2,0,0.4,0,0.6h-5.5c0,1.9,1.2,3.3,2.9,3.3
					c0.8,0,1.5-0.3,2.1-0.7l0.3,0.5c-0.6,0.4-1.3,0.8-2.4,0.8C418.5,310.6,416.9,309.1,416.9,306.6z M422.5,306.1
					c0-2-0.9-2.9-2.3-2.9c-1.3,0-2.5,1.1-2.6,2.9H422.5z"/>
				<path d="M425.3,302.7h0.6l0.1,1.4h0c0.5-0.9,1.3-1.6,2.2-1.6c0.3,0,0.5,0,0.8,0.2l-0.2,0.6c-0.3-0.1-0.4-0.1-0.7-0.1
					c-0.7,0-1.5,0.5-2.1,2v5.2h-0.7V302.7z"/>
				<path d="M433.6,302.7h0.6l0.1,1h0c0.8-0.6,1.7-1.2,2.6-1.2c2.1,0,3.1,1.5,3.1,3.9c0,2.6-1.6,4.1-3.4,4.1c-0.7,0-1.5-0.3-2.3-0.9
					l0,1.4v2.8h-0.7V302.7z M439.2,306.4c0-1.9-0.7-3.3-2.4-3.3c-0.8,0-1.6,0.4-2.5,1.3v4.6c0.9,0.7,1.7,1,2.3,1
					C438.1,310,439.2,308.5,439.2,306.4z"/>
				<path d="M442.1,307.6v-4.9h0.7v4.8c0,1.6,0.5,2.4,1.8,2.4c0.9,0,1.6-0.5,2.5-1.6v-5.7h0.7v7.7h-0.6l-0.1-1.3h0
					c-0.8,0.9-1.5,1.5-2.6,1.5C442.9,310.6,442.1,309.6,442.1,307.6z"/>
				<path d="M449.7,310l4.5-6.7h-4v-0.6h5v0.4l-4.5,6.7h4.7v0.6h-5.6V310z"/>
				<path d="M456.2,310l4.5-6.7h-4v-0.6h5v0.4l-4.5,6.7h4.7v0.6h-5.6V310z"/>
				<path d="M463.7,309.4v-10.5h0.7v10.6c0,0.3,0.1,0.5,0.3,0.5c0.1,0,0.1,0,0.3,0l0.1,0.6c-0.1,0-0.3,0.1-0.5,0.1
					C464,310.6,463.7,310.2,463.7,309.4z"/>
				<path d="M466.8,306.6c0-2.5,1.6-4,3.4-4c1.8,0,2.9,1.3,2.9,3.6c0,0.2,0,0.4,0,0.6h-5.5c0,1.9,1.2,3.3,2.9,3.3
					c0.8,0,1.5-0.3,2.1-0.7l0.3,0.5c-0.6,0.4-1.3,0.8-2.4,0.8C468.4,310.6,466.8,309.1,466.8,306.6z M472.4,306.1
					c0-2-0.9-2.9-2.3-2.9c-1.3,0-2.5,1.1-2.6,2.9H472.4z"/>
				<path d="M477.8,308.5c0-1.7,1.5-2.5,5-2.9c0-1.2-0.3-2.4-1.8-2.4c-1,0-1.9,0.5-2.4,0.9l-0.3-0.5c0.5-0.4,1.6-1,2.9-1
					c1.8,0,2.4,1.3,2.4,3v4.9h-0.6l-0.1-1h0c-0.8,0.6-1.7,1.2-2.7,1.2C478.8,310.6,477.8,309.9,477.8,308.5z M482.8,308.7v-2.6
					c-3.2,0.4-4.2,1.1-4.2,2.3c0,1.1,0.7,1.5,1.6,1.5C481.1,310,481.8,309.5,482.8,308.7z"/>
				<path d="M486.2,302.7h0.6l0.1,1.2h0c0.8-0.8,1.6-1.4,2.6-1.4c1.6,0,2.3,1,2.3,2.9v4.9h-0.7v-4.8c0-1.6-0.5-2.4-1.8-2.4
					c-0.9,0-1.6,0.5-2.5,1.4v5.8h-0.7V302.7z"/>
				<path d="M493.8,309.5l0.4-0.5c0.6,0.5,1.3,1,2.4,1c1.2,0,1.8-0.7,1.8-1.5c0-1-1-1.4-1.9-1.7c-1.2-0.4-2.4-0.9-2.4-2.2
					c0-1.1,0.9-2,2.5-2c0.8,0,1.6,0.3,2.2,0.8l-0.4,0.5c-0.5-0.4-1.1-0.7-1.8-0.7c-1.2,0-1.7,0.7-1.7,1.4c0,0.9,0.9,1.2,1.8,1.6
					c1.2,0.5,2.5,0.8,2.5,2.3c0,1.2-0.9,2.2-2.6,2.2C495.5,310.6,494.5,310.1,493.8,309.5z"/>
				<path d="M500.1,302.7h0.8l1.4,5c0.2,0.7,0.4,1.4,0.5,2.1h0.1c0.2-0.7,0.4-1.3,0.6-2.1l1.4-5h0.8l1.4,5c0.2,0.7,0.4,1.4,0.6,2.1
					h0.1c0.2-0.7,0.4-1.3,0.6-2.1l1.4-5h0.7l-2.2,7.7h-0.9l-1.4-4.8c-0.2-0.7-0.4-1.4-0.6-2.2h-0.1c-0.2,0.8-0.4,1.5-0.6,2.2
					l-1.3,4.7h-0.9L500.1,302.7z"/>
				<path d="M511.5,306.6c0-2.5,1.6-4,3.4-4c1.8,0,2.9,1.3,2.9,3.6c0,0.2,0,0.4,0,0.6h-5.5c0,1.9,1.2,3.3,2.9,3.3
					c0.8,0,1.5-0.3,2.1-0.7l0.3,0.5c-0.6,0.4-1.3,0.8-2.4,0.8C513.1,310.6,511.5,309.1,511.5,306.6z M517.2,306.1
					c0-2-0.9-2.9-2.3-2.9c-1.3,0-2.5,1.1-2.6,2.9H517.2z"/>
				<path d="M519.9,302.7h0.6l0.1,1.4h0c0.5-0.9,1.3-1.6,2.2-1.6c0.3,0,0.5,0,0.8,0.2l-0.2,0.6c-0.3-0.1-0.4-0.1-0.7-0.1
					c-0.7,0-1.5,0.5-2.1,2v5.2h-0.7V302.7z"/>
				<path d="M524,309.5l0.4-0.5c0.6,0.5,1.3,1,2.4,1c1.2,0,1.8-0.7,1.8-1.5c0-1-1-1.4-1.9-1.7c-1.2-0.4-2.4-0.9-2.4-2.2
					c0-1.1,0.9-2,2.5-2c0.8,0,1.6,0.3,2.2,0.8l-0.4,0.5c-0.5-0.4-1.1-0.7-1.8-0.7c-1.2,0-1.7,0.7-1.7,1.4c0,0.9,0.9,1.2,1.8,1.6
					c1.2,0.5,2.5,0.8,2.5,2.3c0,1.2-0.9,2.2-2.6,2.2C525.7,310.6,524.7,310.1,524,309.5z"/>
				<path d="M530.5,312.9c1.3-2,1.9-4.5,1.9-7c0-2.5-0.7-5-1.9-7l0.4-0.2c1.3,2.1,2.1,4.4,2.1,7.2c0,2.8-0.8,5.1-2.1,7.2
					L530.5,312.9z"/>
			</g>
		</g>
		<line class="st1" x1="360.6" y1="291.3" x2="439.7" y2="291.3"/>
	</g>
</g>
<g>
	<g>
		<g>
			<g>
				<path d="M351.7,12.8h6.1v1.1h-4.7v3.5h4v1.1h-4v4.7h-1.3V12.8z"/>
				<path d="M358.9,19.4c0-2.5,1.7-4.1,3.5-4.1c2,0,3.1,1.4,3.1,3.7c0,0.3,0,0.6-0.1,0.7h-5.2c0.1,1.6,1.1,2.7,2.6,2.7
					c0.7,0,1.4-0.2,1.9-0.6l0.5,0.9c-0.7,0.4-1.5,0.8-2.6,0.8C360.6,23.5,358.9,22,358.9,19.4z M364.4,18.8c0-1.6-0.7-2.4-1.9-2.4
					c-1.1,0-2.1,0.9-2.2,2.4H364.4z"/>
				<path d="M366.9,19.4c0-2.5,1.7-4.1,3.5-4.1c2,0,3.1,1.4,3.1,3.7c0,0.3,0,0.6-0.1,0.7h-5.2c0.1,1.6,1.1,2.7,2.6,2.7
					c0.7,0,1.4-0.2,1.9-0.6l0.5,0.9c-0.7,0.4-1.5,0.8-2.6,0.8C368.5,23.5,366.9,22,366.9,19.4z M372.3,18.8c0-1.6-0.7-2.4-1.9-2.4
					c-1.1,0-2.1,0.9-2.2,2.4H372.3z"/>
				<path d="M374.8,19.4c0-2.5,1.6-4.1,3.4-4.1c0.9,0,1.5,0.3,2.2,0.9l-0.1-1.3v-3h1.3v11.4h-1.1l-0.1-0.9h0
					c-0.6,0.6-1.4,1.1-2.4,1.1C376.1,23.5,374.8,22,374.8,19.4z M380.3,21.3v-4.1c-0.7-0.6-1.3-0.8-1.9-0.8c-1.2,0-2.2,1.2-2.2,3
					c0,1.9,0.8,3,2.1,3C379,22.4,379.7,22,380.3,21.3z"/>
				<path d="M383.7,19.4c0-2.5,1.7-4.1,3.5-4.1c2,0,3.1,1.4,3.1,3.7c0,0.3,0,0.6-0.1,0.7H385c0.1,1.6,1.1,2.7,2.6,2.7
					c0.7,0,1.4-0.2,1.9-0.6l0.5,0.9c-0.7,0.4-1.5,0.8-2.6,0.8C385.3,23.5,383.7,22,383.7,19.4z M389.1,18.8c0-1.6-0.7-2.4-1.9-2.4
					c-1.1,0-2.1,0.9-2.2,2.4H389.1z"/>
				<path d="M392.2,15.5h1.1l0.1,1.4h0c0.5-1,1.3-1.6,2.2-1.6c0.3,0,0.6,0,0.8,0.2l-0.2,1.2c-0.3-0.1-0.4-0.1-0.8-0.1
					c-0.7,0-1.4,0.5-2,1.8v5h-1.3V15.5z"/>
				<path d="M401.1,12.8h3c2.4,0,3.9,0.8,3.9,3.1c0,2.2-1.6,3.2-3.9,3.2h-1.7v4.2h-1.3V12.8z M404,18c1.8,0,2.7-0.7,2.7-2.2
					c0-1.5-0.9-2-2.8-2h-1.5V18H404z"/>
				<path d="M409.9,20.4v-4.9h1.3v4.8c0,1.4,0.4,2.1,1.5,2.1c0.8,0,1.3-0.4,2.1-1.3v-5.5h1.3v7.8H415l-0.1-1.2h0
					c-0.7,0.8-1.5,1.4-2.6,1.4C410.6,23.5,409.9,22.4,409.9,20.4z"/>
				<path d="M417.9,22.6l4.1-6h-3.6v-1.1h5.3v0.7l-4.1,6h4.2v1.1h-5.9V22.6z"/>
				<path d="M424.7,22.6l4.1-6h-3.6v-1.1h5.3v0.7l-4.1,6h4.2v1.1h-5.9V22.6z"/>
				<path d="M432.3,21.7v-9.8h1.3v9.9c0,0.4,0.2,0.6,0.4,0.6c0.1,0,0.1,0,0.3,0l0.2,1c-0.2,0.1-0.4,0.1-0.8,0.1
					C432.7,23.5,432.3,22.8,432.3,21.7z"/>
				<path d="M435.8,19.4c0-2.5,1.7-4.1,3.5-4.1c2,0,3.1,1.4,3.1,3.7c0,0.3,0,0.6-0.1,0.7h-5.2c0.1,1.6,1.1,2.7,2.6,2.7
					c0.7,0,1.4-0.2,1.9-0.6l0.5,0.9c-0.7,0.4-1.5,0.8-2.6,0.8C437.5,23.5,435.8,22,435.8,19.4z M441.2,18.8c0-1.6-0.7-2.4-1.9-2.4
					c-1.1,0-2.1,0.9-2.2,2.4H441.2z"/>
				<path d="M443.5,22.4l0.6-0.9c0.7,0.5,1.4,0.9,2.3,0.9c1,0,1.5-0.5,1.5-1.2c0-0.8-0.9-1.2-1.8-1.5c-1.1-0.4-2.3-0.9-2.3-2.2
					c0-1.2,1-2.2,2.7-2.2c1,0,1.8,0.4,2.4,0.9l-0.6,0.8c-0.5-0.4-1.1-0.7-1.8-0.7c-1,0-1.4,0.5-1.4,1.1c0,0.7,0.8,1,1.7,1.4
					c1.1,0.4,2.4,0.9,2.4,2.4c0,1.3-1,2.3-2.8,2.3C445.3,23.5,444.2,23,443.5,22.4z"/>
				<path d="M291.8,41.8c0-2.8,0.8-5.1,2.1-7.2l0.4,0.2c-1.3,2-1.9,4.5-1.9,7s0.7,5,1.9,7l-0.4,0.2C292.6,47,291.8,44.6,291.8,41.8z
					"/>
				<path d="M295.7,42.5c0-2.5,1.6-4,3.4-4c1.8,0,2.9,1.3,2.9,3.6c0,0.2,0,0.4,0,0.6h-5.5c0,1.9,1.2,3.3,2.9,3.3
					c0.8,0,1.5-0.3,2.1-0.7l0.3,0.5c-0.6,0.4-1.3,0.8-2.4,0.8C297.3,46.5,295.7,45,295.7,42.5z M301.3,42c0-2-0.9-2.9-2.3-2.9
					c-1.3,0-2.5,1.1-2.6,2.9H301.3z"/>
				<path d="M303.5,44.4c0-1.7,1.5-2.5,5-2.9c0-1.2-0.3-2.4-1.8-2.4c-1,0-1.9,0.5-2.4,0.9l-0.3-0.5c0.5-0.4,1.6-1,2.9-1
					c1.8,0,2.4,1.3,2.4,3v4.9h-0.6l-0.1-1h0c-0.8,0.6-1.7,1.2-2.7,1.2C304.5,46.5,303.5,45.8,303.5,44.4z M308.5,44.6V42
					c-3.2,0.4-4.2,1.1-4.2,2.3c0,1.1,0.7,1.5,1.6,1.5C306.7,45.9,307.5,45.4,308.5,44.6z"/>
				<path d="M311.3,42.5c0-2.6,1.6-4,3.5-4c1,0,1.7,0.5,2.3,0.9l-0.4,0.5c-0.5-0.5-1.1-0.8-1.8-0.8c-1.6,0-2.8,1.4-2.8,3.4
					c0,2,1.1,3.4,2.8,3.4c0.8,0,1.5-0.4,2.1-0.9l0.4,0.5c-0.7,0.6-1.5,1-2.5,1C312.8,46.5,311.3,45,311.3,42.5z"/>
				<path d="M319.1,34.8h0.7v3.3l0,1.7c0.8-0.8,1.6-1.4,2.7-1.4c1.6,0,2.3,1,2.3,2.9v4.9h-0.7v-4.8c0-1.6-0.5-2.4-1.8-2.4
					c-0.9,0-1.6,0.5-2.5,1.4v5.8h-0.7V34.8z"/>
				<path d="M330.1,42.5c0-2.6,1.6-4,3.5-4c1.8,0,3.5,1.5,3.5,4c0,2.5-1.6,4-3.5,4C331.7,46.5,330.1,45,330.1,42.5z M336.3,42.5
					c0-2-1.2-3.4-2.7-3.4s-2.7,1.4-2.7,3.4c0,2,1.2,3.4,2.7,3.4S336.3,44.5,336.3,42.5z"/>
				<path d="M339.3,38.6h0.6l0.1,1.2h0c0.8-0.8,1.6-1.4,2.6-1.4c1.6,0,2.3,1,2.3,2.9v4.9h-0.7v-4.8c0-1.6-0.5-2.4-1.8-2.4
					c-0.9,0-1.6,0.5-2.5,1.4v5.8h-0.7V38.6z"/>
				<path d="M347.2,42.5c0-2.5,1.6-4,3.4-4c1.8,0,2.9,1.3,2.9,3.6c0,0.2,0,0.4,0,0.6h-5.5c0,1.9,1.2,3.3,2.9,3.3
					c0.8,0,1.5-0.3,2.1-0.7l0.3,0.5c-0.6,0.4-1.3,0.8-2.4,0.8C348.8,46.5,347.2,45,347.2,42.5z M352.8,42c0-2-0.9-2.9-2.3-2.9
					c-1.3,0-2.5,1.1-2.6,2.9H352.8z"/>
				<path d="M358.2,44.4c0-1.7,1.5-2.5,5-2.9c0-1.2-0.3-2.4-1.8-2.4c-1,0-1.9,0.5-2.4,0.9l-0.3-0.5c0.5-0.4,1.6-1,2.9-1
					c1.8,0,2.4,1.3,2.4,3v4.9h-0.6l-0.1-1h0c-0.8,0.6-1.7,1.2-2.7,1.2C359.2,46.5,358.2,45.8,358.2,44.4z M363.2,44.6V42
					c-3.2,0.4-4.2,1.1-4.2,2.3c0,1.1,0.7,1.5,1.6,1.5C361.4,45.9,362.2,45.4,363.2,44.6z"/>
				<path d="M366.6,38.6h0.6l0.1,1.2h0c0.8-0.8,1.6-1.4,2.6-1.4c1.6,0,2.3,1,2.3,2.9v4.9h-0.7v-4.8c0-1.6-0.5-2.4-1.8-2.4
					c-0.9,0-1.6,0.5-2.5,1.4v5.8h-0.7V38.6z"/>
				<path d="M378,36.1c0-0.4,0.3-0.6,0.6-0.6s0.6,0.2,0.6,0.6c0,0.4-0.3,0.6-0.6,0.6S378,36.5,378,36.1z M378.3,38.6h0.7v7.7h-0.7
					V38.6z"/>
				<path d="M382,38.6h0.6l0.1,1.2h0c0.8-0.8,1.6-1.4,2.6-1.4c1.6,0,2.3,1,2.3,2.9v4.9H387v-4.8c0-1.6-0.5-2.4-1.8-2.4
					c-0.9,0-1.6,0.5-2.5,1.4v5.8H382V38.6z"/>
				<path d="M389.9,42.5c0-2.5,1.6-4,3.4-4c0.9,0,1.5,0.3,2.3,0.9l0-1.4v-3.2h0.7v11.5h-0.6l-0.1-1h0c-0.6,0.6-1.5,1.2-2.5,1.2
					C391.1,46.5,389.9,45,389.9,42.5z M395.5,44.6V40c-0.8-0.7-1.5-1-2.2-1c-1.5,0-2.7,1.5-2.7,3.4c0,2,0.9,3.4,2.5,3.4
					C394,45.8,394.7,45.4,395.5,44.6z"/>
				<path d="M398.5,42.5c0-2.5,1.6-4,3.4-4c1.8,0,2.9,1.3,2.9,3.6c0,0.2,0,0.4,0,0.6h-5.5c0,1.9,1.2,3.3,2.9,3.3
					c0.8,0,1.5-0.3,2.1-0.7l0.3,0.5c-0.6,0.4-1.3,0.8-2.4,0.8C400.1,46.5,398.5,45,398.5,42.5z M404.2,42c0-2-0.9-2.9-2.3-2.9
					c-1.3,0-2.5,1.1-2.6,2.9H404.2z"/>
				<path d="M406.9,38.6h0.6l0.1,1h0c0.8-0.6,1.7-1.2,2.6-1.2c2.1,0,3.1,1.5,3.1,3.9c0,2.6-1.6,4.1-3.4,4.1c-0.7,0-1.5-0.3-2.3-0.9
					l0,1.4v2.8h-0.7V38.6z M412.6,42.3c0-1.9-0.7-3.3-2.4-3.3c-0.8,0-1.6,0.4-2.5,1.3v4.6c0.9,0.7,1.7,1,2.3,1
					C411.5,45.8,412.6,44.4,412.6,42.3z"/>
				<path d="M415,42.5c0-2.5,1.6-4,3.4-4c1.8,0,2.9,1.3,2.9,3.6c0,0.2,0,0.4,0,0.6h-5.5c0,1.9,1.2,3.3,2.9,3.3
					c0.8,0,1.5-0.3,2.1-0.7l0.3,0.5c-0.6,0.4-1.3,0.8-2.4,0.8C416.6,46.5,415,45,415,42.5z M420.6,42c0-2-0.9-2.9-2.3-2.9
					c-1.3,0-2.5,1.1-2.6,2.9H420.6z"/>
				<path d="M423.4,38.6h0.6l0.1,1.2h0c0.8-0.8,1.6-1.4,2.6-1.4c1.6,0,2.3,1,2.3,2.9v4.9h-0.7v-4.8c0-1.6-0.5-2.4-1.8-2.4
					c-0.9,0-1.6,0.5-2.5,1.4v5.8h-0.7V38.6z"/>
				<path d="M431.2,42.5c0-2.5,1.6-4,3.4-4c0.9,0,1.5,0.3,2.3,0.9l0-1.4v-3.2h0.7v11.5H437l-0.1-1h0c-0.6,0.6-1.5,1.2-2.5,1.2
					C432.5,46.5,431.2,45,431.2,42.5z M436.9,44.6V40c-0.8-0.7-1.5-1-2.2-1c-1.5,0-2.7,1.5-2.7,3.4c0,2,0.9,3.4,2.5,3.4
					C435.4,45.8,436.1,45.4,436.9,44.6z"/>
				<path d="M439.9,42.5c0-2.5,1.6-4,3.4-4c1.8,0,2.9,1.3,2.9,3.6c0,0.2,0,0.4,0,0.6h-5.5c0,1.9,1.2,3.3,2.9,3.3
					c0.8,0,1.5-0.3,2.1-0.7l0.3,0.5c-0.6,0.4-1.3,0.8-2.4,0.8C441.5,46.5,439.9,45,439.9,42.5z M445.6,42c0-2-0.9-2.9-2.3-2.9
					c-1.3,0-2.5,1.1-2.6,2.9H445.6z"/>
				<path d="M448.3,38.6h0.6l0.1,1.2h0c0.8-0.8,1.6-1.4,2.6-1.4c1.6,0,2.3,1,2.3,2.9v4.9h-0.7v-4.8c0-1.6-0.5-2.4-1.8-2.4
					c-0.9,0-1.6,0.5-2.5,1.4v5.8h-0.7V38.6z"/>
				<path d="M457,44.2v-4.9h-1.2v-0.6l1.2-0.1l0.1-2.2h0.6v2.2h2.2v0.6h-2.2v5c0,1,0.2,1.6,1.3,1.6c0.3,0,0.7-0.1,1-0.2l0.2,0.6
					c-0.4,0.2-0.9,0.3-1.3,0.3C457.4,46.5,457,45.5,457,44.2z"/>
				<path d="M465,38.6h0.6l0.1,1h0c0.8-0.6,1.7-1.2,2.6-1.2c2.1,0,3.1,1.5,3.1,3.9c0,2.6-1.6,4.1-3.4,4.1c-0.7,0-1.5-0.3-2.3-0.9
					l0,1.4v2.8H465V38.6z M470.7,42.3c0-1.9-0.7-3.3-2.4-3.3c-0.8,0-1.6,0.4-2.5,1.3v4.6c0.9,0.7,1.7,1,2.3,1
					C469.5,45.8,470.7,44.4,470.7,42.3z"/>
				<path d="M473.6,43.5v-4.9h0.7v4.8c0,1.6,0.5,2.4,1.8,2.4c0.9,0,1.6-0.5,2.5-1.6v-5.7h0.7v7.7h-0.6l-0.1-1.3h0
					c-0.8,0.9-1.5,1.5-2.6,1.5C474.3,46.5,473.6,45.5,473.6,43.5z"/>
				<path d="M481.1,45.9l4.5-6.7h-4v-0.6h5V39l-4.5,6.7h4.7v0.6h-5.6V45.9z"/>
				<path d="M487.6,45.9l4.5-6.7h-4v-0.6h5V39l-4.5,6.7h4.7v0.6h-5.6V45.9z"/>
				<path d="M495.1,45.2V34.8h0.7v10.6c0,0.3,0.1,0.5,0.3,0.5c0.1,0,0.1,0,0.3,0l0.1,0.6c-0.1,0-0.3,0.1-0.5,0.1
					C495.4,46.5,495.1,46.1,495.1,45.2z"/>
				<path d="M498.2,42.5c0-2.5,1.6-4,3.4-4c1.8,0,2.9,1.3,2.9,3.6c0,0.2,0,0.4,0,0.6H499c0,1.9,1.2,3.3,2.9,3.3
					c0.8,0,1.5-0.3,2.1-0.7l0.3,0.5c-0.6,0.4-1.3,0.8-2.4,0.8C499.8,46.5,498.2,45,498.2,42.5z M503.9,42c0-2-0.9-2.9-2.3-2.9
					c-1.3,0-2.5,1.1-2.6,2.9H503.9z"/>
				<path d="M505.7,48.8c1.3-2,1.9-4.5,1.9-7s-0.7-5-1.9-7l0.4-0.2c1.3,2.1,2.1,4.4,2.1,7.2c0,2.8-0.8,5.1-2.1,7.2L505.7,48.8z"/>
			</g>
		</g>
		<line class="st1" x1="350.4" y1="27.2" x2="449.8" y2="27.2"/>
	</g>
	<g>
		<g>
			<rect x="140" y="70.9" class="st2" width="90" height="130"/>
			<g>
				<rect x="150" y="80.9" class="st3" width="70" height="12"/>
				<rect x="150" y="109.9" class="st3" width="70" height="68"/>
				<rect x="155" y="97.9" class="st3" width="60" height="7"/>
				<rect x="150" y="182.9" class="st3" width="47.5" height="8"/>
				<rect x="202.5" y="182.9" class="st3" width="17.5" height="8"/>
			</g>
		</g>
		<g>
			<path d="M481.8,135.9c0-0.6,0.4-1,1-1c0.5,0,1,0.4,1,1c0,0.6-0.4,1-1,1C482.3,136.9,481.8,136.5,481.8,135.9z"/>
			<path d="M489,135.9c0-0.6,0.4-1,1-1s1,0.4,1,1c0,0.6-0.4,1-1,1S489,136.5,489,135.9z"/>
			<path d="M496.2,135.9c0-0.6,0.4-1,1-1s1,0.4,1,1c0,0.6-0.4,1-1,1S496.2,136.5,496.2,135.9z"/>
		</g>
		<g>
			<g>
				<path d="M657.4,129.7h3.3c2.1,0,3.7,0.8,3.7,3c0,2.1-1.5,3.1-3.7,3.1h-2v4.4h-1.3V129.7z M660.5,134.7c1.6,0,2.5-0.7,2.5-2
					c0-1.4-0.9-1.9-2.5-1.9h-1.8v3.9H660.5z M660.5,135.4l1-0.7l3.2,5.5h-1.5L660.5,135.4z"/>
				<path d="M665.8,136.3c0-2.6,1.7-4.1,3.6-4.1s3.6,1.5,3.6,4.1c0,2.6-1.7,4.1-3.6,4.1S665.8,138.9,665.8,136.3z M671.7,136.3
					c0-1.8-0.9-3-2.2-3c-1.3,0-2.2,1.2-2.2,3c0,1.8,0.9,3,2.2,3C670.8,139.3,671.7,138.1,671.7,136.3z"/>
				<path d="M675,137.4v-4.9h1.3v4.8c0,1.4,0.4,2.1,1.5,2.1c0.8,0,1.3-0.4,2.1-1.3v-5.5h1.3v7.8h-1.1L680,139h0
					c-0.7,0.8-1.5,1.4-2.6,1.4C675.7,140.4,675,139.4,675,137.4z"/>
				<path d="M683.8,132.4h1.1l0.1,1.1h0c0.7-0.7,1.5-1.3,2.6-1.3c1.6,0,2.4,1.1,2.4,3v4.9h-1.3v-4.8c0-1.4-0.4-2.1-1.5-2.1
					c-0.8,0-1.3,0.4-2.1,1.2v5.6h-1.3V132.4z"/>
				<path d="M692,136.3c0-2.5,1.6-4.1,3.4-4.1c0.9,0,1.5,0.3,2.2,0.9l-0.1-1.3v-3h1.3v11.4h-1.1l-0.1-0.9h0
					c-0.6,0.6-1.4,1.1-2.4,1.1C693.3,140.4,692,138.9,692,136.3z M697.5,138.2v-4.1c-0.7-0.6-1.3-0.8-1.9-0.8c-1.2,0-2.2,1.2-2.2,3
					c0,1.9,0.8,3,2.1,3C696.2,139.3,696.8,139,697.5,138.2z"/>
			</g>
		</g>
		<g>
			<path class="st4" d="M626,79.7c10.1,0,11,8.8,11,24.6s-1,31.6,9.1,31.6"/>
			<path class="st4" d="M626,192.1c10.1,0,11-8.8,11-24.6s-1-31.6,9.1-31.6"/>
		</g>
		<g>
			<rect x="254" y="70.9" class="st2" width="90" height="130"/>
			<g>
				<rect x="264" y="80.9" class="st3" width="70" height="12"/>
				<rect x="264" y="109.9" class="st3" width="70" height="68"/>
				<rect x="269" y="97.9" class="st3" width="60" height="7"/>
				<rect x="264" y="182.9" class="st3" width="47.5" height="8"/>
				<rect x="316.5" y="182.9" class="st3" width="17.5" height="8"/>
			</g>
		</g>
		<g>
			<rect x="367.8" y="70.9" class="st2" width="90" height="130"/>
			<g>
				<rect x="377.8" y="80.9" class="st3" width="70" height="12"/>
				<rect x="377.8" y="109.9" class="st3" width="70" height="68"/>
				<rect x="382.8" y="97.9" class="st3" width="60" height="7"/>
				<rect x="377.8" y="182.9" class="st3" width="47.5" height="8"/>
				<rect x="430.3" y="182.9" class="st3" width="17.5" height="8"/>
			</g>
		</g>
		<g>
			<rect x="522" y="70.9" class="st2" width="90" height="130"/>
			<g>
				<rect x="532" y="80.9" class="st3" width="70" height="12"/>
				<rect x="532" y="109.9" class="st3" width="70" height="68"/>
				<rect x="537" y="97.9" class="st3" width="60" height="7"/>
				<rect x="532" y="182.9" class="st3" width="47.5" height="8"/>
				<rect x="584.5" y="182.9" class="st3" width="17.5" height="8"/>
			</g>
		</g>
	</g>
</g>
<g>
	<g>
		<path class="st5" d="M185,210.9c0,0,81.8,36,172.1,55.1"/>
		<g>
			<path d="M360.6,266.7c-1.8,0.3-4.1,0.9-5.6,1.7l1.6-2.6l-0.4-3C357.2,264.2,359,265.7,360.6,266.7z"/>
		</g>
	</g>
</g>
<g>
	<g>
		<path class="st5" d="M567,210.9c0,0-57.5,34.2-123.8,54.7"/>
		<g>
			<path d="M439.7,266.7c1.4-1.1,3.1-2.8,4-4.3l-0.1,3l1.8,2.4C443.8,267.2,441.5,266.8,439.7,266.7z"/>
		</g>
	</g>
</g>
<g>
	<g>
		<path class="st5" d="M299,210.9c0,0,38.1,26.7,86.6,54"/>
		<g>
			<path d="M388.8,266.7c-1.8-0.3-4.2-0.4-5.9-0.1l2.3-1.9l0.5-3C386.3,263.3,387.6,265.3,388.8,266.7z"/>
		</g>
	</g>
</g>
<g>
	<g>
		<line class="st5" x1="413" y1="210.9" x2="413" y2="263.1"/>
		<g>
			<path d="M413,266.7c-0.6-1.7-1.7-3.8-2.9-5.1l2.9,1l2.9-1C414.7,262.9,413.6,265,413,266.7z"/>
		</g>
	</g>
</g>
</svg>
