<?xml version="1.0" encoding="utf-8"?>
<!-- Generator: Adobe Illustrator 23.0.1, SVG Export Plug-In . SVG Version: 6.00 Build 0)  -->
<svg version="1.1" id="圖層_1" xmlns="http://www.w3.org/2000/svg" xmlns:xlink="http://www.w3.org/1999/xlink" x="0px" y="0px"
	 viewBox="0 0 180 44" style="enable-background:new 0 0 180 44;" xml:space="preserve">
<style type="text/css">
	.st0{fill:#FFFFFF;}
</style>
<g>
	<g>
		<path d="M31.4,41.9c0,0,2.7,0.1,2.7-2.2c0-1.8-1-6.3-1.3-7.7c-0.1-0.7-0.3-1.5,0.1-2.2c0.4-0.7,1.2-0.9,2-0.9
			c0.6,0,1.2,0.1,1.7,0.4c0.7,0.4,1.2,1.1,2.1,1.4c0.8,0.3,1.8,0.3,2.6-0.1c1.3-0.6,2.3-1.9,2.6-3.3s0-2.9-0.6-4.2
			c-0.5-0.9-1-1.6-2-2c-1.7-0.6-3.4,0.1-4.7,1.3c-0.5,0.4-1.1,0.8-1.8,0.7c-0.6-0.1-1.1-0.6-1.3-1.1c-1-2.4-0.3-6,0-8.4
			c0.1-0.6,0.5-2.5,0.1-2.8s-2.8,0.1-3.4,0.1c-1.5,0.1-3.1,0.2-4.6,0.3c-1.2,0.1-2.9,0.4-4-0.2c-1.8-0.9-0.5-2.7,0.2-3.8
			s0.9-2.6,0.3-3.7c-1.2-2.3-4.9-2.5-7-1.7c-1.6,0.6-2.6,1.9-2.7,3.7c-0.1,1.5,3.7,4.2,1,5.1c-0.5,0.2-0.9,0.2-1.4,0.1
			c-1.7,0-3.4-0.2-5.1-0.3c-0.8,0-1.7-0.2-2.5-0.1c-0.8,0.1-0.9,0.2-0.9,1.2c0,1.6,0,3.1,0,4.7c0,1.3-0.3,2.9,0,4.2
			c0.6,2.2,2.3,0.8,3.3,0.1C7.4,20,8.3,19.8,9.1,20c2.6,0.4,3.9,3.7,3.1,6c-0.6,1.7-3.1,3.4-4.7,2.1c-0.9-0.7-2.2-2.6-3.6-1.5
			c-0.5,0.4-0.6,1.1-0.6,1.7c0.1,4.1,0.7,8.2,1.3,12.3c0.1,0.8,6.3,1.2,7.1,1.3"/>
		<path class="st0" d="M18.2,33.7c1.3,4.6,0.6,5.8,0.6,5.8c-1.7,1.1-1.5,3.2-1.5,3.2c-1.4,0-3.1,0.1-2.9-0.7c0.3-0.8,1-1.8,1.9-2.2
			c0,0,0.4-2.2,0.1-3.3s-1.7-4.9-1.4-7.8s1.5-5.1,1.5-5.1s-2.2-2.4-0.9-6.2c0,0-0.1-4.4,0.4-4.6s1.7,3.4,2.3,3.4
			c0.5,0,3-0.5,3.7,0.5c0.7,0.9,0.8,1.5,2.8,1.5s2.9,1.4,2.3,2.4c-0.7,1-2.3,2.2-4.5,2.8c0,0-0.1,1.4,1.5,3.3
			c1.5,1.7,2.3,2.8,4.1,5.3c2.3,3.2,3,6,3.1,8c0.2,2-0.9,2.4-2.1,2.4s-7.7,0-7.7,0c0.1-2.7,2.6-2.5,2.6-2.5c-3-6.6,2.2-6.5,2.2-6.5
			s-2.6-1-3.7,1.6c-0.7,1.6,0.2,4.3,0.2,4.3s-2,0.5-2.2,3h-2.4c0,0,0.2-1.7,1.6-2.5C20,39.7,20.1,35.3,18.2,33.7z"/>
	</g>
	<g>
		<path d="M59,24.3l-7.3-12.5h5l4.4,8.6l4.4-8.6h5l-7.3,12.4v11.4h-4L59,24.3L59,24.3z"/>
		<path d="M69.8,29.8V20h4v9.7c0,1.8,1.2,2.7,2.7,2.7c1.6,0,2.7-0.9,2.7-2.7V20h4v9.8c0,3.7-2.5,6.2-6.8,6.2
			C72.4,35.9,69.8,33.5,69.8,29.8z"/>
		<path d="M95.7,26.8l6.3,8.8h-5.2l-5.7-8.5v8.5h-4V11.8h4v14.8l5.7-6.6h5.2L95.7,26.8z"/>
		<path d="M103.9,15c0-1.3,1.1-2.3,2.3-2.3s2.3,1,2.3,2.3c0,1.3-1.1,2.3-2.3,2.3C104.9,17.2,103.9,16.3,103.9,15z M104.3,20h3.9
			v15.6h-3.9V20z"/>
		<path d="M112.6,11.8h4v9.9h8.7v-9.9h4v23.8h-4v-9.8h-8.7v9.9h-4C112.6,35.6,112.6,11.8,112.6,11.8z"/>
		<path d="M133.2,29.8V20h4v9.7c0,1.8,1.2,2.7,2.7,2.7s2.7-0.9,2.7-2.7V20h4v9.8c0,3.7-2.5,6.2-6.8,6.2
			C135.8,35.9,133.2,33.5,133.2,29.8z"/>
		<path d="M150.6,20h4v1.5c1.1-1.1,2.6-1.8,4.2-1.8c3.1,0,5.6,2.5,5.6,5.8v10.1h-4V26c0-1.7-1.3-2.7-2.8-2.7c-1.7,0-2.9,1.2-2.9,2.7
			v9.6h-4V20z"/>
		<path d="M169.7,23.3h-3v-3.2h3v-5.6h4v5.6h3v3.2h-3v12.3h-4V23.3z"/>
	</g>
</g>
</svg>
