<?xml version="1.0" encoding="utf-8"?>
<!-- Generator: Adobe Illustrator 23.0.1, SVG Export Plug-In . SVG Version: 6.00 Build 0)  -->
<svg version="1.1" id="圖層_1" xmlns="http://www.w3.org/2000/svg" xmlns:xlink="http://www.w3.org/1999/xlink" x="0px" y="0px"
	 viewBox="0 0 800 280" style="enable-background:new 0 0 800 280;" xml:space="preserve">
<style type="text/css">
	.st0{fill:none;stroke:#0A0A0A;stroke-width:2;stroke-miterlimit:10;}
	.st1{fill:none;stroke:#0A0A0A;stroke-miterlimit:10;}
	.st2{fill:#0A0A0A;}
</style>
<g>
	<rect x="52.2" y="10" class="st0" width="180" height="260"/>
	<g>
		<rect x="72.2" y="30" class="st1" width="140" height="24"/>
		<rect x="72.2" y="88" class="st1" width="140" height="136"/>
		<rect x="82.2" y="64" class="st1" width="120" height="14"/>
		<rect x="72.2" y="234" class="st1" width="95" height="16"/>
		<rect x="177.2" y="234" class="st1" width="35" height="16"/>
	</g>
	<g>
		<g>
			<path class="st1" d="M219,35.6c6.2-5.7,23-19.1,45.3-18.2"/>
			<g>
				<path class="st2" d="M216.5,38.2c1.7-0.7,3.9-1.5,5.7-1.6l-2.7-1.3l-1.3-2.8C218,34.3,217.2,36.5,216.5,38.2z"/>
			</g>
		</g>
	</g>
	<g>
		<g>
			<path class="st1" d="M220.6,159.8c7.2,3.4,25.4,10.6,43.7,6"/>
			<g>
				<path class="st2" d="M217.4,158.2c1.2,1.3,2.6,3.2,3.3,4.9l0.4-3l2.2-2.1C221.6,158.4,219.2,158.4,217.4,158.2z"/>
			</g>
		</g>
	</g>
	<g>
		<g>
			<path class="st1" d="M173.8,243c12.2-3.9,54.7-16.2,90.5-9"/>
			<g>
				<path class="st2" d="M170.4,244.2c1.8,0.1,4.2,0.5,5.8,1.2l-1.8-2.4l0.1-3C173.5,241.4,171.8,243.1,170.4,244.2z"/>
			</g>
		</g>
	</g>
	<g>
		<g>
			<path class="st1" d="M209.9,70.1c9.5,0,35.5,1.8,54.4,20.9"/>
			<g>
				<path class="st2" d="M206.3,70.2c1.7,0.6,3.9,1.6,5.2,2.7l-1.1-2.8l1-2.9C210.1,68.4,208,69.6,206.3,70.2z"/>
			</g>
		</g>
	</g>
	<g>
		<g>
			<g>
				<path d="M275.6,13.9h-3.2v-1.1h7.7v1.1H277v9.4h-1.3V13.9z"/>
				<path d="M281.7,13c0-0.5,0.4-0.9,0.9-0.9s0.9,0.3,0.9,0.9c0,0.5-0.4,0.9-0.9,0.9S281.7,13.5,281.7,13z M281.9,15.5h1.3v7.8h-1.3
					V15.5z"/>
				<path d="M286.1,20.9v-4.3h-1.2v-1l1.2-0.1l0.2-2.2h1.1v2.2h2.1v1.1h-2.1v4.3c0,1,0.3,1.5,1.2,1.5c0.3,0,0.6-0.1,0.9-0.2l0.3,1
					c-0.4,0.1-1,0.3-1.4,0.3C286.6,23.5,286.1,22.4,286.1,20.9z"/>
				<path d="M291.3,21.7v-9.8h1.3v9.9c0,0.4,0.2,0.6,0.4,0.6c0.1,0,0.1,0,0.3,0l0.2,1c-0.2,0.1-0.4,0.1-0.8,0.1
					C291.7,23.5,291.3,22.8,291.3,21.7z"/>
				<path d="M294.8,19.4c0-2.5,1.7-4.1,3.5-4.1c2,0,3.1,1.4,3.1,3.7c0,0.3,0,0.6-0.1,0.7h-5.2c0.1,1.6,1.1,2.7,2.6,2.7
					c0.7,0,1.4-0.2,1.9-0.6l0.5,0.9c-0.7,0.4-1.5,0.8-2.6,0.8C296.4,23.5,294.8,22,294.8,19.4z M300.2,18.8c0-1.6-0.7-2.4-1.9-2.4
					c-1.1,0-2.1,0.9-2.2,2.4H300.2z"/>
				<path d="M273.5,42.2v-6.5h0.7v6.4c0,2.8,1.3,3.7,2.8,3.7c1.5,0,2.9-0.8,2.9-3.7v-6.4h0.7v6.5c0,3.3-1.7,4.2-3.6,4.2
					S273.5,45.5,273.5,42.2z"/>
				<path d="M282.7,45.4l0.4-0.5c0.6,0.5,1.3,1,2.4,1c1.2,0,1.8-0.7,1.8-1.5c0-1-1-1.4-1.9-1.7c-1.2-0.4-2.4-0.9-2.4-2.2
					c0-1.1,0.9-2,2.5-2c0.8,0,1.6,0.3,2.2,0.8l-0.4,0.5c-0.5-0.4-1.1-0.7-1.8-0.7c-1.2,0-1.7,0.7-1.7,1.4c0,0.9,0.9,1.2,1.8,1.6
					c1.2,0.5,2.5,0.8,2.5,2.3c0,1.2-0.9,2.2-2.6,2.2C284.4,46.5,283.4,46,282.7,45.4z"/>
				<path d="M290,43.5v-4.9h0.7v4.8c0,1.6,0.5,2.4,1.8,2.4c0.9,0,1.6-0.5,2.5-1.6v-5.7h0.7v7.7H295L295,45h0
					c-0.8,0.9-1.5,1.5-2.6,1.5C290.7,46.5,290,45.5,290,43.5z"/>
				<path d="M298,44.4c0-1.7,1.5-2.5,5-2.9c0-1.2-0.3-2.4-1.8-2.4c-1,0-1.9,0.5-2.4,0.9l-0.3-0.5c0.5-0.4,1.6-1,2.9-1
					c1.8,0,2.4,1.3,2.4,3v4.9h-0.6l-0.1-1h0c-0.8,0.6-1.7,1.2-2.7,1.2C299,46.5,298,45.8,298,44.4z M303,44.6V42
					c-3.2,0.4-4.2,1.1-4.2,2.3c0,1.1,0.7,1.5,1.6,1.5C301.3,45.9,302,45.4,303,44.6z"/>
				<path d="M306.4,45.2V34.8h0.7v10.6c0,0.3,0.1,0.5,0.3,0.5c0.1,0,0.1,0,0.3,0l0.1,0.6c-0.1,0-0.3,0.1-0.5,0.1
					C306.8,46.5,306.4,46.1,306.4,45.2z"/>
				<path d="M310.2,45.2V34.8h0.7v10.6c0,0.3,0.1,0.5,0.3,0.5c0.1,0,0.1,0,0.3,0l0.1,0.6c-0.1,0-0.3,0.1-0.5,0.1
					C310.6,46.5,310.2,46.1,310.2,45.2z"/>
				<path d="M312.9,49.6l0.2-0.6c0.2,0.1,0.4,0.1,0.6,0.1c0.9,0,1.6-0.9,2-2l0.2-0.7l-3.2-7.8h0.8l1.9,4.8c0.3,0.6,0.6,1.5,0.8,2.2
					h0.1c0.2-0.7,0.5-1.5,0.7-2.2l1.6-4.8h0.7l-3,8.7c-0.4,1.3-1.2,2.5-2.6,2.5C313.4,49.8,313.1,49.7,312.9,49.6z"/>
				<path d="M323.6,47.9c0-0.7,0.4-1.4,1.1-1.9v-0.1c-0.4-0.2-0.7-0.6-0.7-1.2c0-0.7,0.5-1.2,0.8-1.4v-0.1c-0.5-0.4-1-1.2-1-2.1
					c0-1.6,1.2-2.7,2.7-2.7c0.4,0,0.8,0.1,1,0.2h2.6v0.6h-1.8c0.5,0.4,0.8,1.1,0.8,1.9c0,1.6-1.2,2.7-2.7,2.7
					c-0.4,0-0.9-0.1-1.3-0.3c-0.3,0.3-0.6,0.6-0.6,1.1c0,0.6,0.3,1,1.5,1h1.6c1.7,0,2.5,0.6,2.5,1.8c0,1.3-1.4,2.6-3.6,2.6
					C324.8,50,323.6,49.1,323.6,47.9z M329.6,47.5c0-0.8-0.6-1.2-1.8-1.2h-1.6c-0.2,0-0.6,0-1-0.1c-0.7,0.5-1,1.1-1,1.6
					c0,1,0.9,1.6,2.5,1.6C328.5,49.4,329.6,48.4,329.6,47.5z M328.6,41.1c0-1.3-0.9-2.1-2-2.1s-2,0.8-2,2.1c0,1.3,0.9,2.2,2,2.2
					S328.6,42.4,328.6,41.1z"/>
				<path d="M331.7,36.1c0-0.4,0.3-0.6,0.6-0.6s0.6,0.2,0.6,0.6c0,0.4-0.3,0.6-0.6,0.6S331.7,36.5,331.7,36.1z M332,38.6h0.7v7.7
					H332V38.6z"/>
				<path d="M334.4,38.6h0.8l1.7,4.8c0.2,0.7,0.5,1.5,0.8,2.2h0.1c0.2-0.7,0.5-1.5,0.8-2.2l1.7-4.8h0.7l-2.8,7.7h-0.8L334.4,38.6z"
					/>
				<path d="M342,42.5c0-2.5,1.6-4,3.4-4c1.8,0,2.9,1.3,2.9,3.6c0,0.2,0,0.4,0,0.6h-5.5c0,1.9,1.2,3.3,2.9,3.3
					c0.8,0,1.5-0.3,2.1-0.7l0.3,0.5c-0.6,0.4-1.3,0.8-2.4,0.8C343.5,46.5,342,45,342,42.5z M347.6,42c0-2-0.9-2.9-2.3-2.9
					c-1.3,0-2.5,1.1-2.6,2.9H347.6z"/>
				<path d="M349.4,45.4l0.4-0.5c0.6,0.5,1.3,1,2.4,1c1.2,0,1.8-0.7,1.8-1.5c0-1-1-1.4-1.9-1.7c-1.2-0.4-2.4-0.9-2.4-2.2
					c0-1.1,0.9-2,2.5-2c0.8,0,1.6,0.3,2.2,0.8l-0.4,0.5c-0.5-0.4-1.1-0.7-1.8-0.7c-1.2,0-1.7,0.7-1.7,1.4c0,0.9,0.9,1.2,1.8,1.6
					c1.2,0.5,2.5,0.8,2.5,2.3c0,1.2-0.9,2.2-2.6,2.2C351,46.5,350.1,46,349.4,45.4z"/>
				<path d="M359.5,44.4c0-1.7,1.5-2.5,5-2.9c0-1.2-0.3-2.4-1.8-2.4c-1,0-1.9,0.5-2.4,0.9l-0.3-0.5c0.5-0.4,1.6-1,2.9-1
					c1.8,0,2.4,1.3,2.4,3v4.9h-0.6l-0.1-1h0c-0.8,0.6-1.7,1.2-2.7,1.2C360.5,46.5,359.5,45.8,359.5,44.4z M364.4,44.6V42
					c-3.2,0.4-4.2,1.1-4.2,2.3c0,1.1,0.7,1.5,1.6,1.5C362.7,45.9,363.5,45.4,364.4,44.6z"/>
				<path d="M371.1,34.8h0.7v3.3l0,1.7c0.8-0.8,1.6-1.4,2.7-1.4c1.6,0,2.3,1,2.3,2.9v4.9H376v-4.8c0-1.6-0.5-2.4-1.8-2.4
					c-0.9,0-1.6,0.5-2.5,1.4v5.8h-0.7V34.8z"/>
				<path d="M379.2,36.1c0-0.4,0.3-0.6,0.6-0.6s0.6,0.2,0.6,0.6c0,0.4-0.3,0.6-0.6,0.6S379.2,36.5,379.2,36.1z M379.5,38.6h0.7v7.7
					h-0.7V38.6z"/>
				<path d="M383.2,38.6h0.6l0.1,1.2h0c0.8-0.8,1.6-1.4,2.6-1.4c1.6,0,2.3,1,2.3,2.9v4.9h-0.7v-4.8c0-1.6-0.5-2.4-1.8-2.4
					c-0.9,0-1.6,0.5-2.5,1.4v5.8h-0.7V38.6z"/>
				<path d="M391.9,44.2v-4.9h-1.2v-0.6l1.2-0.1l0.1-2.2h0.6v2.2h2.2v0.6h-2.2v5c0,1,0.2,1.6,1.3,1.6c0.3,0,0.7-0.1,1-0.2l0.2,0.6
					c-0.4,0.2-0.9,0.3-1.3,0.3C392.3,46.5,391.9,45.5,391.9,44.2z"/>
				<path d="M399.2,42.5c0-2.6,1.6-4,3.5-4c1.8,0,3.5,1.5,3.5,4c0,2.5-1.6,4-3.5,4C400.8,46.5,399.2,45,399.2,42.5z M405.4,42.5
					c0-2-1.2-3.4-2.7-3.4s-2.7,1.4-2.7,3.4c0,2,1.2,3.4,2.7,3.4S405.4,44.5,405.4,42.5z"/>
				<path d="M408.4,38.6h0.6l0.1,1.2h0c0.8-0.8,1.6-1.4,2.6-1.4c1.6,0,2.3,1,2.3,2.9v4.9h-0.7v-4.8c0-1.6-0.5-2.4-1.8-2.4
					c-0.9,0-1.6,0.5-2.5,1.4v5.8h-0.7V38.6z"/>
				<path d="M419.1,38.6h0.8l1.4,5c0.2,0.7,0.4,1.4,0.5,2.1h0.1c0.2-0.7,0.4-1.3,0.6-2.1l1.4-5h0.8l1.4,5c0.2,0.7,0.4,1.4,0.6,2.1
					h0.1c0.2-0.7,0.4-1.3,0.6-2.1l1.4-5h0.7l-2.2,7.7h-0.9l-1.4-4.8c-0.2-0.7-0.4-1.4-0.6-2.2h-0.1c-0.2,0.8-0.4,1.5-0.6,2.2
					l-1.3,4.7h-0.9L419.1,38.6z"/>
				<path d="M431.1,34.8h0.7v3.3l0,1.7c0.8-0.8,1.6-1.4,2.7-1.4c1.6,0,2.3,1,2.3,2.9v4.9h-0.7v-4.8c0-1.6-0.5-2.4-1.8-2.4
					c-0.9,0-1.6,0.5-2.5,1.4v5.8h-0.7V34.8z"/>
				<path d="M439,44.4c0-1.7,1.5-2.5,5-2.9c0-1.2-0.3-2.4-1.8-2.4c-1,0-1.9,0.5-2.4,0.9l-0.3-0.5c0.5-0.4,1.6-1,2.9-1
					c1.8,0,2.4,1.3,2.4,3v4.9h-0.6l-0.1-1h0c-0.8,0.6-1.7,1.2-2.7,1.2C440,46.5,439,45.8,439,44.4z M444,44.6V42
					c-3.2,0.4-4.2,1.1-4.2,2.3c0,1.1,0.7,1.5,1.6,1.5C442.2,45.9,443,45.4,444,44.6z"/>
				<path d="M447.6,44.2v-4.9h-1.2v-0.6l1.2-0.1l0.1-2.2h0.6v2.2h2.2v0.6h-2.2v5c0,1,0.2,1.6,1.3,1.6c0.3,0,0.7-0.1,1-0.2l0.2,0.6
					c-0.4,0.2-0.9,0.3-1.3,0.3C448,46.5,447.6,45.5,447.6,44.2z"/>
				<path d="M455.8,44.2v-4.9h-1.2v-0.6l1.2-0.1l0.1-2.2h0.6v2.2h2.2v0.6h-2.2v5c0,1,0.2,1.6,1.3,1.6c0.3,0,0.7-0.1,1-0.2l0.2,0.6
					c-0.4,0.2-0.9,0.3-1.3,0.3C456.2,46.5,455.8,45.5,455.8,44.2z"/>
				<path d="M460.6,34.8h0.7v3.3l0,1.7c0.8-0.8,1.6-1.4,2.7-1.4c1.6,0,2.3,1,2.3,2.9v4.9h-0.7v-4.8c0-1.6-0.5-2.4-1.8-2.4
					c-0.9,0-1.6,0.5-2.5,1.4v5.8h-0.7V34.8z"/>
				<path d="M468.4,42.5c0-2.5,1.6-4,3.4-4c1.8,0,2.9,1.3,2.9,3.6c0,0.2,0,0.4,0,0.6h-5.5c0,1.9,1.2,3.3,2.9,3.3
					c0.8,0,1.5-0.3,2.1-0.7l0.3,0.5c-0.6,0.4-1.3,0.8-2.4,0.8C470,46.5,468.4,45,468.4,42.5z M474,42c0-2-0.9-2.9-2.3-2.9
					c-1.3,0-2.5,1.1-2.6,2.9H474z"/>
				<path d="M480.2,44.2v-4.9H479v-0.6l1.2-0.1l0.1-2.2h0.6v2.2h2.2v0.6h-2.2v5c0,1,0.2,1.6,1.3,1.6c0.3,0,0.7-0.1,1-0.2l0.2,0.6
					c-0.4,0.2-0.9,0.3-1.3,0.3C480.6,46.5,480.2,45.5,480.2,44.2z"/>
				<path d="M485,34.8h0.7v3.3l0,1.7c0.8-0.8,1.6-1.4,2.7-1.4c1.6,0,2.3,1,2.3,2.9v4.9h-0.7v-4.8c0-1.6-0.5-2.4-1.8-2.4
					c-0.9,0-1.6,0.5-2.5,1.4v5.8H485V34.8z"/>
				<path d="M492.8,42.5c0-2.5,1.6-4,3.4-4c1.8,0,2.9,1.3,2.9,3.6c0,0.2,0,0.4,0,0.6h-5.5c0,1.9,1.2,3.3,2.9,3.3
					c0.8,0,1.5-0.3,2.1-0.7l0.3,0.5c-0.6,0.4-1.3,0.8-2.4,0.8C494.4,46.5,492.8,45,492.8,42.5z M498.4,42c0-2-0.9-2.9-2.3-2.9
					c-1.3,0-2.5,1.1-2.6,2.9H498.4z"/>
				<path d="M501.1,38.6h0.6l0.1,1.2h0c0.7-0.8,1.6-1.4,2.4-1.4c1.2,0,1.8,0.6,2.1,1.6c0.9-1,1.7-1.6,2.6-1.6c1.5,0,2.3,1,2.3,2.9
					v4.9h-0.7v-4.8c0-1.6-0.5-2.4-1.7-2.4c-0.7,0-1.5,0.5-2.3,1.4v5.8h-0.7v-4.8c0-1.6-0.5-2.4-1.7-2.4c-0.7,0-1.5,0.5-2.3,1.4v5.8
					h-0.7V38.6z"/>
				<path d="M513.5,42.5c0-2.5,1.6-4,3.4-4c1.8,0,2.9,1.3,2.9,3.6c0,0.2,0,0.4,0,0.6h-5.5c0,1.9,1.2,3.3,2.9,3.3
					c0.8,0,1.5-0.3,2.1-0.7l0.3,0.5c-0.6,0.4-1.3,0.8-2.4,0.8C515.1,46.5,513.5,45,513.5,42.5z M519.1,42c0-2-0.9-2.9-2.3-2.9
					c-1.3,0-2.5,1.1-2.6,2.9H519.1z"/>
				<path d="M524.4,42.5c0-2.6,1.6-4,3.5-4c1.8,0,3.5,1.5,3.5,4c0,2.5-1.6,4-3.5,4C526,46.5,524.4,45,524.4,42.5z M530.6,42.5
					c0-2-1.2-3.4-2.7-3.4s-2.7,1.4-2.7,3.4c0,2,1.2,3.4,2.7,3.4S530.6,44.5,530.6,42.5z"/>
				<path d="M533.6,38.6h0.6l0.1,1.4h0c0.5-0.9,1.3-1.6,2.2-1.6c0.3,0,0.5,0,0.8,0.2l-0.2,0.6c-0.3-0.1-0.4-0.1-0.7-0.1
					c-0.7,0-1.5,0.5-2.1,2v5.2h-0.7V38.6z"/>
				<path d="M541.9,38.6h0.6l0.1,1.2h0c0.7-0.8,1.6-1.4,2.4-1.4c1.2,0,1.8,0.6,2.1,1.6c0.9-1,1.7-1.6,2.6-1.6c1.5,0,2.3,1,2.3,2.9
					v4.9h-0.7v-4.8c0-1.6-0.5-2.4-1.7-2.4c-0.7,0-1.5,0.5-2.3,1.4v5.8h-0.7v-4.8c0-1.6-0.5-2.4-1.7-2.4c-0.7,0-1.5,0.5-2.3,1.4v5.8
					h-0.7V38.6z"/>
				<path d="M554.2,42.5c0-2.5,1.6-4,3.4-4c1.8,0,2.9,1.3,2.9,3.6c0,0.2,0,0.4,0,0.6H555c0,1.9,1.2,3.3,2.9,3.3
					c0.8,0,1.5-0.3,2.1-0.7l0.3,0.5c-0.6,0.4-1.3,0.8-2.4,0.8C555.8,46.5,554.2,45,554.2,42.5z M559.9,42c0-2-0.9-2.9-2.3-2.9
					c-1.3,0-2.5,1.1-2.6,2.9H559.9z"/>
				<path d="M562,42.5c0-2.6,1.6-4,3.5-4c1,0,1.7,0.5,2.3,0.9l-0.4,0.5c-0.5-0.5-1.1-0.8-1.8-0.8c-1.6,0-2.8,1.4-2.8,3.4
					c0,2,1.1,3.4,2.8,3.4c0.8,0,1.5-0.4,2.1-0.9l0.4,0.5c-0.7,0.6-1.5,1-2.5,1C563.5,46.5,562,45,562,42.5z"/>
				<path d="M569.8,34.8h0.7v3.3l0,1.7c0.8-0.8,1.6-1.4,2.7-1.4c1.6,0,2.3,1,2.3,2.9v4.9h-0.7v-4.8c0-1.6-0.5-2.4-1.8-2.4
					c-0.9,0-1.6,0.5-2.5,1.4v5.8h-0.7V34.8z"/>
				<path d="M577.7,44.4c0-1.7,1.5-2.5,5-2.9c0-1.2-0.3-2.4-1.8-2.4c-1,0-1.9,0.5-2.4,0.9l-0.3-0.5c0.5-0.4,1.6-1,2.9-1
					c1.8,0,2.4,1.3,2.4,3v4.9h-0.6l-0.1-1h0c-0.8,0.6-1.7,1.2-2.7,1.2C578.7,46.5,577.7,45.8,577.7,44.4z M582.7,44.6V42
					c-3.2,0.4-4.2,1.1-4.2,2.3c0,1.1,0.7,1.5,1.6,1.5C580.9,45.9,581.7,45.4,582.7,44.6z"/>
				<path d="M586.1,38.6h0.6l0.1,1.2h0c0.8-0.8,1.6-1.4,2.6-1.4c1.6,0,2.3,1,2.3,2.9v4.9h-0.7v-4.8c0-1.6-0.5-2.4-1.8-2.4
					c-0.9,0-1.6,0.5-2.5,1.4v5.8h-0.7V38.6z"/>
				<path d="M594.3,36.1c0-0.4,0.3-0.6,0.6-0.6s0.6,0.2,0.6,0.6c0,0.4-0.3,0.6-0.6,0.6S594.3,36.5,594.3,36.1z M594.6,38.6h0.7v7.7
					h-0.7V38.6z"/>
				<path d="M597.3,45.4l0.4-0.5c0.6,0.5,1.3,1,2.4,1c1.2,0,1.8-0.7,1.8-1.5c0-1-1-1.4-1.9-1.7c-1.2-0.4-2.4-0.9-2.4-2.2
					c0-1.1,0.9-2,2.5-2c0.8,0,1.6,0.3,2.2,0.8l-0.4,0.5c-0.5-0.4-1.1-0.7-1.8-0.7c-1.2,0-1.7,0.7-1.7,1.4c0,0.9,0.9,1.2,1.8,1.6
					c1.2,0.5,2.5,0.8,2.5,2.3c0,1.2-0.9,2.2-2.6,2.2C599,46.5,598,46,597.3,45.4z"/>
				<path d="M604.8,38.6h0.6l0.1,1.2h0c0.7-0.8,1.6-1.4,2.4-1.4c1.2,0,1.8,0.6,2.1,1.6c0.9-1,1.7-1.6,2.6-1.6c1.5,0,2.3,1,2.3,2.9
					v4.9h-0.7v-4.8c0-1.6-0.5-2.4-1.7-2.4c-0.7,0-1.5,0.5-2.3,1.4v5.8h-0.7v-4.8c0-1.6-0.5-2.4-1.7-2.4c-0.7,0-1.5,0.5-2.3,1.4v5.8
					h-0.7V38.6z"/>
				<path d="M620.3,42.5c0-2.6,1.6-4,3.5-4c1.8,0,3.5,1.5,3.5,4c0,2.5-1.6,4-3.5,4C621.9,46.5,620.3,45,620.3,42.5z M626.5,42.5
					c0-2-1.2-3.4-2.7-3.4s-2.7,1.4-2.7,3.4c0,2,1.2,3.4,2.7,3.4S626.5,44.5,626.5,42.5z"/>
				<path d="M628.6,38.7l1.1-0.1h2.5v0.6h-3.5V38.7z M629.6,36.9c0-1.5,0.7-2.3,1.9-2.3c0.4,0,0.8,0.1,1.1,0.3l-0.2,0.6
					c-0.3-0.2-0.6-0.2-0.9-0.2c-0.8,0-1.2,0.6-1.2,1.7v9.3h-0.7V36.9z"/>
				<path d="M637.1,44.2v-4.9h-1.2v-0.6l1.2-0.1l0.1-2.2h0.6v2.2h2.2v0.6h-2.2v5c0,1,0.2,1.6,1.3,1.6c0.3,0,0.7-0.1,1-0.2l0.2,0.6
					c-0.4,0.2-0.9,0.3-1.3,0.3C637.5,46.5,637.1,45.5,637.1,44.2z"/>
				<path d="M641.9,34.8h0.7v3.3l0,1.7c0.8-0.8,1.6-1.4,2.7-1.4c1.6,0,2.3,1,2.3,2.9v4.9h-0.7v-4.8c0-1.6-0.5-2.4-1.8-2.4
					c-0.9,0-1.6,0.5-2.5,1.4v5.8h-0.7V34.8z"/>
				<path d="M649.7,42.5c0-2.5,1.6-4,3.4-4c1.8,0,2.9,1.3,2.9,3.6c0,0.2,0,0.4,0,0.6h-5.5c0,1.9,1.2,3.3,2.9,3.3
					c0.8,0,1.5-0.3,2.1-0.7l0.3,0.5c-0.6,0.4-1.3,0.8-2.4,0.8C651.3,46.5,649.7,45,649.7,42.5z M655.3,42c0-2-0.9-2.9-2.3-2.9
					c-1.3,0-2.5,1.1-2.6,2.9H655.3z"/>
				<path d="M661.3,38.6h0.6l0.1,1h0c0.8-0.6,1.7-1.2,2.6-1.2c2.1,0,3.1,1.5,3.1,3.9c0,2.6-1.6,4.1-3.4,4.1c-0.7,0-1.5-0.3-2.3-0.9
					l0,1.4v2.8h-0.7V38.6z M666.9,42.3c0-1.9-0.7-3.3-2.4-3.3c-0.8,0-1.6,0.4-2.5,1.3v4.6c0.9,0.7,1.7,1,2.3,1
					C665.8,45.8,666.9,44.4,666.9,42.3z"/>
				<path d="M669.9,43.5v-4.9h0.7v4.8c0,1.6,0.5,2.4,1.8,2.4c0.9,0,1.6-0.5,2.5-1.6v-5.7h0.7v7.7h-0.6l-0.1-1.3h0
					c-0.8,0.9-1.5,1.5-2.6,1.5C670.6,46.5,669.9,45.5,669.9,43.5z"/>
				<path d="M677.4,45.9l4.5-6.7h-4v-0.6h5V39l-4.5,6.7h4.7v0.6h-5.6V45.9z"/>
				<path d="M683.9,45.9l4.5-6.7h-4v-0.6h5V39l-4.5,6.7h4.7v0.6h-5.6V45.9z"/>
				<path d="M691.4,45.2V34.8h0.7v10.6c0,0.3,0.1,0.5,0.3,0.5c0.1,0,0.1,0,0.3,0l0.1,0.6c-0.1,0-0.3,0.1-0.5,0.1
					C691.7,46.5,691.4,46.1,691.4,45.2z"/>
				<path d="M694.5,42.5c0-2.5,1.6-4,3.4-4c1.8,0,2.9,1.3,2.9,3.6c0,0.2,0,0.4,0,0.6h-5.5c0,1.9,1.2,3.3,2.9,3.3
					c0.8,0,1.5-0.3,2.1-0.7l0.3,0.5c-0.6,0.4-1.3,0.8-2.4,0.8C696.1,46.5,694.5,45,694.5,42.5z M700.2,42c0-2-0.9-2.9-2.3-2.9
					c-1.3,0-2.5,1.1-2.6,2.9H700.2z"/>
				<path d="M705.8,36.1c0-0.4,0.3-0.6,0.6-0.6s0.6,0.2,0.6,0.6c0,0.4-0.3,0.6-0.6,0.6S705.8,36.5,705.8,36.1z M706.1,38.6h0.7v7.7
					h-0.7V38.6z"/>
				<path d="M708.8,45.4l0.4-0.5c0.6,0.5,1.3,1,2.4,1c1.2,0,1.8-0.7,1.8-1.5c0-1-1-1.4-1.9-1.7c-1.2-0.4-2.4-0.9-2.4-2.2
					c0-1.1,0.9-2,2.5-2c0.8,0,1.6,0.3,2.2,0.8l-0.4,0.5c-0.5-0.4-1.1-0.7-1.8-0.7c-1.2,0-1.7,0.7-1.7,1.4c0,0.9,0.9,1.2,1.8,1.6
					c1.2,0.5,2.5,0.8,2.5,2.3c0,1.2-0.9,2.2-2.6,2.2C710.5,46.5,709.5,46,708.8,45.4z"/>
				<path d="M715.8,44.8c0-0.5,0.3-0.7,0.7-0.7c0.4,0,0.7,0.3,0.7,0.7c0,0.4-0.3,0.7-0.7,0.7C716.2,45.5,715.8,45.2,715.8,44.8z"/>
				<path d="M273.6,55.7h0.7v9.9h4.9v0.6h-5.6V55.7z"/>
				<path d="M280.3,62.5c0-2.6,1.6-4,3.5-4c1.8,0,3.5,1.5,3.5,4c0,2.5-1.6,4-3.5,4C281.9,66.5,280.3,65,280.3,62.5z M286.5,62.5
					c0-2-1.2-3.4-2.7-3.4s-2.7,1.4-2.7,3.4c0,2,1.2,3.4,2.7,3.4S286.5,64.5,286.5,62.5z"/>
				<path d="M288.9,62.5c0-2.6,1.6-4,3.5-4c1.8,0,3.5,1.5,3.5,4c0,2.5-1.6,4-3.5,4C290.5,66.5,288.9,65,288.9,62.5z M295,62.5
					c0-2-1.2-3.4-2.7-3.4s-2.7,1.4-2.7,3.4c0,2,1.2,3.4,2.7,3.4S295,64.5,295,62.5z"/>
				<path d="M298.1,54.8h0.7v8.5h0l3.8-4.7h0.8l-2.5,3l2.9,4.6h-0.8l-2.6-4.1l-1.7,2v2.1h-0.7V54.8z"/>
				<path d="M307.8,58.7l1.1-0.1h2.5v0.6h-3.5V58.7z M308.8,56.9c0-1.5,0.7-2.3,1.9-2.3c0.4,0,0.8,0.1,1.1,0.3l-0.2,0.6
					c-0.3-0.2-0.6-0.2-0.9-0.2c-0.8,0-1.2,0.6-1.2,1.7v9.3h-0.7V56.9z"/>
				<path d="M312.3,62.5c0-2.6,1.6-4,3.5-4c1.8,0,3.5,1.5,3.5,4c0,2.5-1.6,4-3.5,4C313.9,66.5,312.3,65,312.3,62.5z M318.4,62.5
					c0-2-1.2-3.4-2.7-3.4s-2.7,1.4-2.7,3.4c0,2,1.2,3.4,2.7,3.4S318.4,64.5,318.4,62.5z"/>
				<path d="M321.5,58.6h0.6l0.1,1.4h0c0.5-0.9,1.3-1.6,2.2-1.6c0.3,0,0.5,0,0.8,0.2l-0.2,0.6c-0.3-0.1-0.4-0.1-0.7-0.1
					c-0.7,0-1.5,0.5-2.1,2v5.2h-0.7V58.6z"/>
				<path d="M329.8,58.6h0.6l0.1,1h0c0.8-0.6,1.7-1.2,2.6-1.2c2.1,0,3.1,1.5,3.1,3.9c0,2.6-1.6,4.1-3.4,4.1c-0.7,0-1.5-0.3-2.3-0.9
					l0,1.4v2.8h-0.7V58.6z M335.4,62.3c0-1.9-0.7-3.3-2.4-3.3c-0.8,0-1.6,0.4-2.5,1.3v4.6c0.9,0.7,1.7,1,2.3,1
					C334.3,65.8,335.4,64.4,335.4,62.3z"/>
				<path d="M338.3,63.5v-4.9h0.7v4.8c0,1.6,0.5,2.4,1.8,2.4c0.9,0,1.6-0.5,2.5-1.6v-5.7h0.7v7.7h-0.6l-0.1-1.3h0
					c-0.8,0.9-1.5,1.5-2.6,1.5C339.1,66.5,338.3,65.5,338.3,63.5z"/>
				<path d="M346.9,58.6h0.6l0.1,1.2h0c0.8-0.8,1.6-1.4,2.6-1.4c1.6,0,2.3,1,2.3,2.9v4.9h-0.7v-4.8c0-1.6-0.5-2.4-1.8-2.4
					c-0.9,0-1.6,0.5-2.5,1.4v5.8h-0.7V58.6z"/>
				<path d="M354.5,65.4l0.4-0.5c0.6,0.5,1.3,1,2.4,1c1.2,0,1.8-0.7,1.8-1.5c0-1-1-1.4-1.9-1.7c-1.2-0.4-2.4-0.9-2.4-2.2
					c0-1.1,0.9-2,2.5-2c0.8,0,1.6,0.3,2.2,0.8l-0.4,0.5c-0.5-0.4-1.1-0.7-1.8-0.7c-1.2,0-1.7,0.7-1.7,1.4c0,0.9,0.9,1.2,1.8,1.6
					c1.2,0.5,2.5,0.8,2.5,2.3c0,1.2-0.9,2.2-2.6,2.2C356.2,66.5,355.2,66,354.5,65.4z"/>
				<path d="M361.2,67.3c0.7-0.4,1.2-1.1,1.2-2l-0.2-1l0.6,0.8c-0.1,0.2-0.3,0.3-0.6,0.3c-0.4,0-0.7-0.2-0.7-0.7
					c0-0.4,0.3-0.7,0.7-0.7c0.5,0,0.8,0.4,0.8,1.1c0,1.2-0.7,2.1-1.6,2.6L361.2,67.3z"/>
				<path d="M367.5,58.6h0.8l1.4,5c0.2,0.7,0.4,1.4,0.5,2.1h0.1c0.2-0.7,0.4-1.3,0.6-2.1l1.4-5h0.8l1.4,5c0.2,0.7,0.4,1.4,0.6,2.1
					h0.1c0.2-0.7,0.4-1.3,0.6-2.1l1.4-5h0.7l-2.2,7.7h-0.9l-1.4-4.8c-0.2-0.7-0.4-1.4-0.6-2.2h-0.1c-0.2,0.8-0.4,1.5-0.6,2.2
					l-1.3,4.7h-0.9L367.5,58.6z"/>
				<path d="M378.9,62.5c0-2.6,1.6-4,3.5-4c1.8,0,3.5,1.5,3.5,4c0,2.5-1.6,4-3.5,4C380.5,66.5,378.9,65,378.9,62.5z M385.1,62.5
					c0-2-1.2-3.4-2.7-3.4s-2.7,1.4-2.7,3.4c0,2,1.2,3.4,2.7,3.4S385.1,64.5,385.1,62.5z"/>
				<path d="M388.1,58.6h0.6l0.1,1.4h0c0.5-0.9,1.3-1.6,2.2-1.6c0.3,0,0.5,0,0.8,0.2l-0.2,0.6c-0.3-0.1-0.4-0.1-0.7-0.1
					c-0.7,0-1.5,0.5-2.1,2v5.2h-0.7V58.6z"/>
				<path d="M392.6,62.5c0-2.5,1.6-4,3.4-4c0.9,0,1.5,0.3,2.3,0.9l0-1.4v-3.2h0.7v11.5h-0.6l-0.1-1h0c-0.6,0.6-1.5,1.2-2.5,1.2
					C393.8,66.5,392.6,65,392.6,62.5z M398.3,64.6V60c-0.8-0.7-1.5-1-2.2-1c-1.5,0-2.7,1.5-2.7,3.4c0,2,0.9,3.4,2.5,3.4
					C396.7,65.8,397.4,65.4,398.3,64.6z"/>
				<path d="M401.9,58.6h0.6l0.1,1h0c0.8-0.6,1.7-1.2,2.6-1.2c2.1,0,3.1,1.5,3.1,3.9c0,2.6-1.6,4.1-3.4,4.1c-0.7,0-1.5-0.3-2.3-0.9
					l0,1.4v2.8h-0.7V58.6z M407.6,62.3c0-1.9-0.7-3.3-2.4-3.3c-0.8,0-1.6,0.4-2.5,1.3v4.6c0.9,0.7,1.7,1,2.3,1
					C406.4,65.8,407.6,64.4,407.6,62.3z"/>
				<path d="M410.6,65.2V54.8h0.7v10.6c0,0.3,0.1,0.5,0.3,0.5c0.1,0,0.1,0,0.3,0l0.1,0.6c-0.1,0-0.3,0.1-0.5,0.1
					C410.9,66.5,410.6,66.1,410.6,65.2z"/>
				<path d="M413.9,64.4c0-1.7,1.5-2.5,5-2.9c0-1.2-0.3-2.4-1.8-2.4c-1,0-1.9,0.5-2.4,0.9l-0.3-0.5c0.5-0.4,1.6-1,2.9-1
					c1.8,0,2.4,1.3,2.4,3v4.9h-0.6l-0.1-1h0c-0.8,0.6-1.7,1.2-2.7,1.2C414.9,66.5,413.9,65.8,413.9,64.4z M418.8,64.6V62
					c-3.2,0.4-4.2,1.1-4.2,2.3c0,1.1,0.7,1.5,1.6,1.5C417.1,65.9,417.9,65.4,418.8,64.6z"/>
				<path d="M421.2,69.6l0.2-0.6c0.2,0.1,0.4,0.1,0.6,0.1c0.9,0,1.6-0.9,2-2l0.2-0.7l-3.2-7.8h0.8l1.9,4.8c0.3,0.6,0.6,1.5,0.8,2.2
					h0.1c0.2-0.7,0.5-1.5,0.7-2.2l1.6-4.8h0.7l-3,8.7c-0.4,1.3-1.2,2.5-2.6,2.5C421.7,69.8,421.4,69.7,421.2,69.6z"/>
				<path d="M428.3,65.4l0.4-0.5c0.6,0.5,1.3,1,2.4,1c1.2,0,1.8-0.7,1.8-1.5c0-1-1-1.4-1.9-1.7c-1.2-0.4-2.4-0.9-2.4-2.2
					c0-1.1,0.9-2,2.5-2c0.8,0,1.6,0.3,2.2,0.8l-0.4,0.5c-0.5-0.4-1.1-0.7-1.8-0.7c-1.2,0-1.7,0.7-1.7,1.4c0,0.9,0.9,1.2,1.8,1.6
					c1.2,0.5,2.5,0.8,2.5,2.3c0,1.2-0.9,2.2-2.6,2.2C430,66.5,429,66,428.3,65.4z"/>
				<path d="M435,67.3c0.7-0.4,1.2-1.1,1.2-2l-0.2-1l0.6,0.8c-0.1,0.2-0.3,0.3-0.6,0.3c-0.4,0-0.7-0.2-0.7-0.7
					c0-0.4,0.3-0.7,0.7-0.7c0.5,0,0.8,0.4,0.8,1.1c0,1.2-0.7,2.1-1.6,2.6L435,67.3z"/>
				<path d="M441.9,64.4c0-1.7,1.5-2.5,5-2.9c0-1.2-0.3-2.4-1.8-2.4c-1,0-1.9,0.5-2.4,0.9l-0.3-0.5c0.5-0.4,1.6-1,2.9-1
					c1.8,0,2.4,1.3,2.4,3v4.9h-0.6l-0.1-1h0c-0.8,0.6-1.7,1.2-2.7,1.2C442.9,66.5,441.9,65.8,441.9,64.4z M446.8,64.6V62
					c-3.2,0.4-4.2,1.1-4.2,2.3c0,1.1,0.7,1.5,1.6,1.5C445.1,65.9,445.9,65.4,446.8,64.6z"/>
				<path d="M450.3,58.6h0.6l0.1,1.2h0c0.8-0.8,1.6-1.4,2.6-1.4c1.6,0,2.3,1,2.3,2.9v4.9h-0.7v-4.8c0-1.6-0.5-2.4-1.8-2.4
					c-0.9,0-1.6,0.5-2.5,1.4v5.8h-0.7V58.6z"/>
				<path d="M458.1,62.5c0-2.5,1.6-4,3.4-4c0.9,0,1.5,0.3,2.3,0.9l0-1.4v-3.2h0.7v11.5h-0.6l-0.1-1h0c-0.6,0.6-1.5,1.2-2.5,1.2
					C459.4,66.5,458.1,65,458.1,62.5z M463.8,64.6V60c-0.8-0.7-1.5-1-2.2-1c-1.5,0-2.7,1.5-2.7,3.4c0,2,0.9,3.4,2.5,3.4
					C462.3,65.8,463,65.4,463.8,64.6z"/>
				<path d="M470.7,58.6h0.6l0.1,1.4h0c0.5-0.9,1.3-1.6,2.2-1.6c0.3,0,0.5,0,0.8,0.2l-0.2,0.6c-0.3-0.1-0.4-0.1-0.7-0.1
					c-0.7,0-1.5,0.5-2.1,2v5.2h-0.7V58.6z"/>
				<path d="M475.1,62.5c0-2.5,1.6-4,3.4-4c1.8,0,2.9,1.3,2.9,3.6c0,0.2,0,0.4,0,0.6h-5.5c0,1.9,1.2,3.3,2.9,3.3
					c0.8,0,1.5-0.3,2.1-0.7l0.3,0.5c-0.6,0.4-1.3,0.8-2.4,0.8C476.7,66.5,475.1,65,475.1,62.5z M480.7,62c0-2-0.9-2.9-2.3-2.9
					c-1.3,0-2.5,1.1-2.6,2.9H480.7z"/>
				<path d="M482.5,58.7l1.1-0.1h2.5v0.6h-3.5V58.7z M483.6,56.9c0-1.5,0.7-2.3,1.9-2.3c0.4,0,0.8,0.1,1.1,0.3l-0.2,0.6
					c-0.3-0.2-0.6-0.2-0.9-0.2c-0.8,0-1.2,0.6-1.2,1.7v9.3h-0.7V56.9z"/>
				<path d="M487.1,62.5c0-2.5,1.6-4,3.4-4c1.8,0,2.9,1.3,2.9,3.6c0,0.2,0,0.4,0,0.6h-5.5c0,1.9,1.2,3.3,2.9,3.3
					c0.8,0,1.5-0.3,2.1-0.7l0.3,0.5c-0.6,0.4-1.3,0.8-2.4,0.8C488.6,66.5,487.1,65,487.1,62.5z M492.7,62c0-2-0.9-2.9-2.3-2.9
					c-1.3,0-2.5,1.1-2.6,2.9H492.7z"/>
				<path d="M495.4,58.6h0.6l0.1,1.4h0c0.5-0.9,1.3-1.6,2.2-1.6c0.3,0,0.5,0,0.8,0.2l-0.2,0.6c-0.3-0.1-0.4-0.1-0.7-0.1
					c-0.7,0-1.5,0.5-2.1,2v5.2h-0.7V58.6z"/>
				<path d="M499.9,62.5c0-2.5,1.6-4,3.4-4c1.8,0,2.9,1.3,2.9,3.6c0,0.2,0,0.4,0,0.6h-5.5c0,1.9,1.2,3.3,2.9,3.3
					c0.8,0,1.5-0.3,2.1-0.7l0.3,0.5c-0.6,0.4-1.3,0.8-2.4,0.8C501.4,66.5,499.9,65,499.9,62.5z M505.5,62c0-2-0.9-2.9-2.3-2.9
					c-1.3,0-2.5,1.1-2.6,2.9H505.5z"/>
				<path d="M508.2,58.6h0.6l0.1,1.2h0c0.8-0.8,1.6-1.4,2.6-1.4c1.6,0,2.3,1,2.3,2.9v4.9h-0.7v-4.8c0-1.6-0.5-2.4-1.8-2.4
					c-0.9,0-1.6,0.5-2.5,1.4v5.8h-0.7V58.6z"/>
				<path d="M516.1,62.5c0-2.6,1.6-4,3.5-4c1,0,1.7,0.5,2.3,0.9l-0.4,0.5c-0.5-0.5-1.1-0.8-1.8-0.8c-1.6,0-2.8,1.4-2.8,3.4
					c0,2,1.1,3.4,2.8,3.4c0.8,0,1.5-0.4,2.1-0.9l0.4,0.5c-0.7,0.6-1.5,1-2.5,1C517.6,66.5,516.1,65,516.1,62.5z"/>
				<path d="M523.3,62.5c0-2.5,1.6-4,3.4-4c1.8,0,2.9,1.3,2.9,3.6c0,0.2,0,0.4,0,0.6H524c0,1.9,1.2,3.3,2.9,3.3
					c0.8,0,1.5-0.3,2.1-0.7l0.3,0.5c-0.6,0.4-1.3,0.8-2.4,0.8C524.9,66.5,523.3,65,523.3,62.5z M528.9,62c0-2-0.9-2.9-2.3-2.9
					c-1.3,0-2.5,1.1-2.6,2.9H528.9z"/>
				<path d="M530.7,65.4l0.4-0.5c0.6,0.5,1.3,1,2.4,1c1.2,0,1.8-0.7,1.8-1.5c0-1-1-1.4-1.9-1.7c-1.2-0.4-2.4-0.9-2.4-2.2
					c0-1.1,0.9-2,2.5-2c0.8,0,1.6,0.3,2.2,0.8l-0.4,0.5c-0.5-0.4-1.1-0.7-1.8-0.7c-1.2,0-1.7,0.7-1.7,1.4c0,0.9,0.9,1.2,1.8,1.6
					c1.2,0.5,2.5,0.8,2.5,2.3c0,1.2-0.9,2.2-2.6,2.2C532.4,66.5,531.4,66,530.7,65.4z"/>
				<path d="M537.7,64.8c0-0.5,0.3-0.7,0.7-0.7c0.4,0,0.7,0.3,0.7,0.7c0,0.4-0.3,0.7-0.7,0.7C538.1,65.5,537.7,65.2,537.7,64.8z"/>
			</g>
		</g>
		<line class="st1" x1="272" y1="27.2" x2="302" y2="27.2"/>
	</g>
	<g>
		<g>
			<g>
				<path d="M273.5,85.8h6.1v1.1h-4.7v3.5h4v1.1h-4v4.7h-1.3V85.8z"/>
				<path d="M281.2,94.8v-9.8h1.3v9.9c0,0.4,0.2,0.6,0.4,0.6c0.1,0,0.1,0,0.3,0l0.2,1c-0.2,0.1-0.4,0.1-0.8,0.1
					C281.6,96.5,281.2,95.9,281.2,94.8z"/>
				<path d="M284.8,94.3c0-1.7,1.5-2.5,4.8-2.9c0-1-0.3-2-1.6-2c-0.9,0-1.7,0.4-2.3,0.8l-0.5-0.9c0.7-0.5,1.8-1,3.1-1
					c1.9,0,2.7,1.3,2.7,3.2v4.8h-1.1l-0.1-0.9h0c-0.7,0.6-1.6,1.1-2.6,1.1C285.8,96.5,284.8,95.7,284.8,94.3z M289.6,94.4v-2.2
					c-2.6,0.3-3.5,1-3.5,1.9c0,0.9,0.6,1.2,1.4,1.2C288.2,95.4,288.9,95.1,289.6,94.4z"/>
				<path d="M292.3,88.5h1.4l1.5,4.4c0.2,0.8,0.5,1.6,0.7,2.3h0.1c0.2-0.7,0.5-1.5,0.7-2.3l1.5-4.4h1.3l-2.8,7.8h-1.5L292.3,88.5z"
					/>
				<path d="M300.3,92.4c0-2.6,1.7-4.1,3.6-4.1s3.6,1.5,3.6,4.1c0,2.6-1.7,4.1-3.6,4.1S300.3,95,300.3,92.4z M306.1,92.4
					c0-1.8-0.9-3-2.2-3c-1.3,0-2.2,1.2-2.2,3c0,1.8,0.9,3,2.2,3C305.2,95.4,306.1,94.2,306.1,92.4z"/>
				<path d="M309.5,88.5h1.1l0.1,1.4h0c0.5-1,1.3-1.6,2.2-1.6c0.3,0,0.6,0,0.8,0.2l-0.2,1.2c-0.3-0.1-0.4-0.1-0.8-0.1
					c-0.7,0-1.4,0.5-2,1.8v5h-1.3V88.5z"/>
				<path d="M320.6,86.9h-3.2v-1.1h7.7v1.1h-3.2v9.4h-1.3V86.9z"/>
				<path d="M326.3,92.4c0-2.5,1.7-4.1,3.5-4.1c2,0,3.1,1.4,3.1,3.7c0,0.3,0,0.6-0.1,0.7h-5.2c0.1,1.6,1.1,2.7,2.6,2.7
					c0.7,0,1.4-0.2,1.9-0.6l0.5,0.9c-0.7,0.4-1.5,0.8-2.6,0.8C327.9,96.5,326.3,95,326.3,92.4z M331.7,91.8c0-1.6-0.7-2.4-1.9-2.4
					c-1.1,0-2.1,0.9-2.2,2.4H331.7z"/>
				<path d="M336.2,92.3l-2.4-3.7h1.4l1,1.7c0.2,0.4,0.5,0.9,0.8,1.3h0.1c0.2-0.4,0.5-0.9,0.7-1.3l1-1.7h1.4l-2.4,3.9l2.5,3.9H339
					l-1.1-1.8c-0.3-0.5-0.6-0.9-0.8-1.4h-0.1c-0.3,0.4-0.5,0.9-0.8,1.4l-1.1,1.8h-1.4L336.2,92.3z"/>
				<path d="M342.2,93.9v-4.3H341v-1l1.2-0.1l0.2-2.2h1.1v2.2h2.1v1.1h-2.1v4.3c0,1,0.3,1.5,1.2,1.5c0.3,0,0.6-0.1,0.9-0.2l0.3,1
					c-0.4,0.1-1,0.3-1.4,0.3C342.7,96.5,342.2,95.5,342.2,93.9z"/>
				<path d="M272.8,117.9l0.5-0.5c0.8,0.9,1.9,1.4,3.1,1.4c1.6,0,2.6-0.9,2.6-2.1c0-1.3-0.9-1.7-1.9-2.2l-1.6-0.7
					c-0.9-0.4-2.1-1.1-2.1-2.6c0-1.5,1.3-2.6,3.1-2.6c1.3,0,2.3,0.6,2.9,1.3l-0.4,0.5c-0.6-0.7-1.5-1.1-2.5-1.1
					c-1.4,0-2.3,0.7-2.3,1.9c0,1.2,1.1,1.7,1.8,2l1.6,0.7c1.2,0.5,2.2,1.2,2.2,2.8c0,1.6-1.3,2.8-3.4,2.8
					C274.8,119.5,273.6,118.9,272.8,117.9z"/>
				<path d="M281.2,115.5c0-2.6,1.6-4,3.5-4c1.8,0,3.5,1.5,3.5,4c0,2.5-1.6,4-3.5,4C282.8,119.5,281.2,118,281.2,115.5z
					 M287.3,115.5c0-2-1.2-3.4-2.7-3.4s-2.7,1.4-2.7,3.4c0,2,1.2,3.4,2.7,3.4S287.3,117.5,287.3,115.5z"/>
				<path d="M290.4,111.6h0.6l0.1,1.2h0c0.7-0.8,1.6-1.4,2.4-1.4c1.2,0,1.8,0.6,2.1,1.6c0.9-1,1.7-1.6,2.6-1.6c1.5,0,2.3,1,2.3,2.9
					v4.9h-0.7v-4.8c0-1.6-0.5-2.4-1.7-2.4c-0.7,0-1.5,0.5-2.3,1.4v5.8h-0.7v-4.8c0-1.6-0.5-2.4-1.7-2.4c-0.7,0-1.5,0.5-2.3,1.4v5.8
					h-0.7V111.6z"/>
				<path d="M302.7,115.5c0-2.5,1.6-4,3.4-4c1.8,0,2.9,1.3,2.9,3.6c0,0.2,0,0.4,0,0.6h-5.5c0,1.9,1.2,3.3,2.9,3.3
					c0.8,0,1.5-0.3,2.1-0.7l0.3,0.5c-0.6,0.4-1.3,0.8-2.4,0.8C304.3,119.5,302.7,118,302.7,115.5z M308.4,115c0-2-0.9-2.9-2.3-2.9
					c-1.3,0-2.5,1.1-2.6,2.9H308.4z"/>
				<path d="M314.5,117.2v-4.9h-1.2v-0.6l1.2-0.1l0.1-2.2h0.6v2.2h2.2v0.6h-2.2v5c0,1,0.2,1.6,1.3,1.6c0.3,0,0.7-0.1,1-0.2l0.2,0.6
					c-0.4,0.2-0.9,0.3-1.3,0.3C314.9,119.5,314.5,118.6,314.5,117.2z"/>
				<path d="M319.3,107.8h0.7v3.3l0,1.7c0.8-0.8,1.6-1.4,2.7-1.4c1.6,0,2.3,1,2.3,2.9v4.9h-0.7v-4.8c0-1.6-0.5-2.4-1.8-2.4
					c-0.9,0-1.6,0.5-2.5,1.4v5.8h-0.7V107.8z"/>
				<path d="M327.1,115.5c0-2.5,1.6-4,3.4-4c1.8,0,2.9,1.3,2.9,3.6c0,0.2,0,0.4,0,0.6h-5.5c0,1.9,1.2,3.3,2.9,3.3
					c0.8,0,1.5-0.3,2.1-0.7l0.3,0.5c-0.6,0.4-1.3,0.8-2.4,0.8C328.7,119.5,327.1,118,327.1,115.5z M332.7,115c0-2-0.9-2.9-2.3-2.9
					c-1.3,0-2.5,1.1-2.6,2.9H332.7z"/>
				<path d="M335.5,111.6h0.6l0.1,1.2h0c0.7-0.8,1.6-1.4,2.4-1.4c1.2,0,1.8,0.6,2.1,1.6c0.9-1,1.7-1.6,2.6-1.6c1.5,0,2.3,1,2.3,2.9
					v4.9h-0.7v-4.8c0-1.6-0.5-2.4-1.7-2.4c-0.7,0-1.5,0.5-2.3,1.4v5.8h-0.7v-4.8c0-1.6-0.5-2.4-1.7-2.4c-0.7,0-1.5,0.5-2.3,1.4v5.8
					h-0.7V111.6z"/>
				<path d="M347.9,117.4c0-1.7,1.5-2.5,5-2.9c0-1.2-0.3-2.4-1.8-2.4c-1,0-1.9,0.5-2.4,0.9l-0.3-0.5c0.5-0.4,1.6-1,2.9-1
					c1.8,0,2.4,1.3,2.4,3v4.9H353l-0.1-1h0c-0.8,0.6-1.7,1.2-2.7,1.2C348.9,119.5,347.9,118.8,347.9,117.4z M352.9,117.7V115
					c-3.2,0.4-4.2,1.1-4.2,2.3c0,1.1,0.7,1.5,1.6,1.5C351.2,118.9,351.9,118.5,352.9,117.7z"/>
				<path d="M356.5,117.2v-4.9h-1.2v-0.6l1.2-0.1l0.1-2.2h0.6v2.2h2.2v0.6h-2.2v5c0,1,0.2,1.6,1.3,1.6c0.3,0,0.7-0.1,1-0.2l0.2,0.6
					c-0.4,0.2-0.9,0.3-1.3,0.3C356.9,119.5,356.5,118.6,356.5,117.2z"/>
				<path d="M361,109.1c0-0.4,0.3-0.6,0.6-0.6s0.6,0.2,0.6,0.6c0,0.4-0.3,0.6-0.6,0.6S361,109.5,361,109.1z M361.3,111.6h0.7v7.7
					h-0.7V111.6z"/>
				<path d="M364.3,115.5c0-2.6,1.6-4,3.5-4c1,0,1.7,0.5,2.3,0.9l-0.4,0.5c-0.5-0.5-1.1-0.8-1.8-0.8c-1.6,0-2.8,1.4-2.8,3.4
					c0,2,1.1,3.4,2.8,3.4c0.8,0,1.5-0.4,2.1-0.9l0.4,0.5c-0.7,0.6-1.5,1-2.5,1C365.8,119.5,364.3,118,364.3,115.5z"/>
				<path d="M375.4,111.6h0.6l0.1,1h0c0.8-0.6,1.7-1.2,2.6-1.2c2.1,0,3.1,1.5,3.1,3.9c0,2.6-1.6,4.1-3.4,4.1c-0.7,0-1.5-0.3-2.3-0.9
					l0,1.4v2.8h-0.7V111.6z M381,115.4c0-1.9-0.7-3.3-2.4-3.3c-0.8,0-1.6,0.4-2.5,1.3v4.6c0.9,0.7,1.7,1,2.3,1
					C379.9,118.9,381,117.4,381,115.4z"/>
				<path d="M384.1,107.8h0.7v3.3l0,1.7c0.8-0.8,1.6-1.4,2.7-1.4c1.6,0,2.3,1,2.3,2.9v4.9H389v-4.8c0-1.6-0.5-2.4-1.8-2.4
					c-0.9,0-1.6,0.5-2.5,1.4v5.8h-0.7V107.8z"/>
				<path d="M392.5,111.6h0.6l0.1,1.4h0c0.5-0.9,1.3-1.6,2.2-1.6c0.3,0,0.5,0,0.8,0.2l-0.2,0.6c-0.3-0.1-0.4-0.1-0.7-0.1
					c-0.7,0-1.5,0.5-2.1,2v5.2h-0.7V111.6z"/>
				<path d="M397,117.4c0-1.7,1.5-2.5,5-2.9c0-1.2-0.3-2.4-1.8-2.4c-1,0-1.9,0.5-2.4,0.9l-0.3-0.5c0.5-0.4,1.6-1,2.9-1
					c1.8,0,2.4,1.3,2.4,3v4.9h-0.6l-0.1-1h0c-0.8,0.6-1.7,1.2-2.7,1.2C398.1,119.5,397,118.8,397,117.4z M402,117.7V115
					c-3.2,0.4-4.2,1.1-4.2,2.3c0,1.1,0.7,1.5,1.6,1.5C400.3,118.9,401,118.5,402,117.7z"/>
				<path d="M404.5,118.4l0.4-0.5c0.6,0.5,1.3,1,2.4,1c1.2,0,1.8-0.7,1.8-1.5c0-1-1-1.4-1.9-1.7c-1.2-0.4-2.4-0.9-2.4-2.2
					c0-1.1,0.9-2,2.5-2c0.8,0,1.6,0.3,2.2,0.8l-0.4,0.5c-0.5-0.4-1.1-0.7-1.8-0.7c-1.2,0-1.7,0.7-1.7,1.4c0,0.9,0.9,1.2,1.8,1.6
					c1.2,0.5,2.5,0.8,2.5,2.3c0,1.2-0.9,2.2-2.6,2.2C406.2,119.5,405.2,119,404.5,118.4z"/>
				<path d="M411.3,115.5c0-2.5,1.6-4,3.4-4c1.8,0,2.9,1.3,2.9,3.6c0,0.2,0,0.4,0,0.6H412c0,1.9,1.2,3.3,2.9,3.3
					c0.8,0,1.5-0.3,2.1-0.7l0.3,0.5c-0.6,0.4-1.3,0.8-2.4,0.8C412.9,119.5,411.3,118,411.3,115.5z M416.9,115c0-2-0.9-2.9-2.3-2.9
					c-1.3,0-2.5,1.1-2.6,2.9H416.9z"/>
				<path d="M423,117.2v-4.9h-1.2v-0.6l1.2-0.1l0.1-2.2h0.6v2.2h2.2v0.6h-2.2v5c0,1,0.2,1.6,1.3,1.6c0.3,0,0.7-0.1,1-0.2l0.2,0.6
					c-0.4,0.2-0.9,0.3-1.3,0.3C423.5,119.5,423,118.6,423,117.2z"/>
				<path d="M427.8,107.8h0.7v3.3l0,1.7c0.8-0.8,1.6-1.4,2.7-1.4c1.6,0,2.3,1,2.3,2.9v4.9h-0.7v-4.8c0-1.6-0.5-2.4-1.8-2.4
					c-0.9,0-1.6,0.5-2.5,1.4v5.8h-0.7V107.8z"/>
				<path d="M435.7,117.4c0-1.7,1.5-2.5,5-2.9c0-1.2-0.3-2.4-1.8-2.4c-1,0-1.9,0.5-2.4,0.9l-0.3-0.5c0.5-0.4,1.6-1,2.9-1
					c1.8,0,2.4,1.3,2.4,3v4.9h-0.6l-0.1-1h0c-0.8,0.6-1.7,1.2-2.7,1.2C436.8,119.5,435.7,118.8,435.7,117.4z M440.7,117.7V115
					c-3.2,0.4-4.2,1.1-4.2,2.3c0,1.1,0.7,1.5,1.6,1.5C439,118.9,439.8,118.5,440.7,117.7z"/>
				<path d="M444.3,117.2v-4.9h-1.2v-0.6l1.2-0.1l0.1-2.2h0.6v2.2h2.2v0.6H445v5c0,1,0.2,1.6,1.3,1.6c0.3,0,0.7-0.1,1-0.2l0.2,0.6
					c-0.4,0.2-0.9,0.3-1.3,0.3C444.8,119.5,444.3,118.6,444.3,117.2z"/>
				<path d="M452.3,107.8h0.7v3.3l0,1.7c0.8-0.8,1.6-1.4,2.7-1.4c1.6,0,2.3,1,2.3,2.9v4.9h-0.7v-4.8c0-1.6-0.5-2.4-1.8-2.4
					c-0.9,0-1.6,0.5-2.5,1.4v5.8h-0.7V107.8z"/>
				<path d="M460.5,109.1c0-0.4,0.3-0.6,0.6-0.6s0.6,0.2,0.6,0.6c0,0.4-0.3,0.6-0.6,0.6S460.5,109.5,460.5,109.1z M460.8,111.6h0.7
					v7.7h-0.7V111.6z"/>
				<path d="M463.8,115.5c0-2.5,1.6-4,3.4-4c0.9,0,1.5,0.3,2.3,0.9l0-1.4v-3.2h0.7v11.5h-0.6l-0.1-1h0c-0.6,0.6-1.5,1.2-2.5,1.2
					C465.1,119.5,463.8,118.1,463.8,115.5z M469.5,117.6v-4.6c-0.8-0.7-1.5-1-2.2-1c-1.5,0-2.7,1.5-2.7,3.4c0,2,0.9,3.4,2.5,3.4
					C467.9,118.9,468.7,118.4,469.5,117.6z"/>
				<path d="M472.5,115.5c0-2.5,1.6-4,3.4-4c1.8,0,2.9,1.3,2.9,3.6c0,0.2,0,0.4,0,0.6h-5.5c0,1.9,1.2,3.3,2.9,3.3
					c0.8,0,1.5-0.3,2.1-0.7l0.3,0.5c-0.6,0.4-1.3,0.8-2.4,0.8C474.1,119.5,472.5,118,472.5,115.5z M478.1,115c0-2-0.9-2.9-2.3-2.9
					c-1.3,0-2.5,1.1-2.6,2.9H478.1z"/>
				<path d="M479.9,118.4l0.4-0.5c0.6,0.5,1.3,1,2.4,1c1.2,0,1.8-0.7,1.8-1.5c0-1-1-1.4-1.9-1.7c-1.2-0.4-2.4-0.9-2.4-2.2
					c0-1.1,0.9-2,2.5-2c0.8,0,1.6,0.3,2.2,0.8l-0.4,0.5c-0.5-0.4-1.1-0.7-1.8-0.7c-1.2,0-1.7,0.7-1.7,1.4c0,0.9,0.9,1.2,1.8,1.6
					c1.2,0.5,2.5,0.8,2.5,2.3c0,1.2-0.9,2.2-2.6,2.2C481.6,119.5,480.6,119,479.9,118.4z"/>
				<path d="M490.6,111.6h0.6l0.1,1.2h0c0.7-0.8,1.6-1.4,2.4-1.4c1.2,0,1.8,0.6,2.1,1.6c0.9-1,1.7-1.6,2.6-1.6c1.5,0,2.3,1,2.3,2.9
					v4.9H500v-4.8c0-1.6-0.5-2.4-1.7-2.4c-0.7,0-1.5,0.5-2.3,1.4v5.8h-0.7v-4.8c0-1.6-0.5-2.4-1.7-2.4c-0.7,0-1.5,0.5-2.3,1.4v5.8
					h-0.7V111.6z"/>
				<path d="M502.9,115.5c0-2.6,1.6-4,3.5-4c1.8,0,3.5,1.5,3.5,4c0,2.5-1.6,4-3.5,4C504.5,119.5,502.9,118,502.9,115.5z
					 M509.1,115.5c0-2-1.2-3.4-2.7-3.4s-2.7,1.4-2.7,3.4c0,2,1.2,3.4,2.7,3.4S509.1,117.5,509.1,115.5z"/>
				<path d="M512.1,111.6h0.6l0.1,1.4h0c0.5-0.9,1.3-1.6,2.2-1.6c0.3,0,0.5,0,0.8,0.2l-0.2,0.6c-0.3-0.1-0.4-0.1-0.7-0.1
					c-0.7,0-1.5,0.5-2.1,2v5.2h-0.7V111.6z"/>
				<path d="M516.5,115.5c0-2.5,1.6-4,3.4-4c1.8,0,2.9,1.3,2.9,3.6c0,0.2,0,0.4,0,0.6h-5.5c0,1.9,1.2,3.3,2.9,3.3
					c0.8,0,1.5-0.3,2.1-0.7l0.3,0.5c-0.6,0.4-1.3,0.8-2.4,0.8C518.1,119.5,516.5,118,516.5,115.5z M522.2,115c0-2-0.9-2.9-2.3-2.9
					c-1.3,0-2.5,1.1-2.6,2.9H522.2z"/>
				<path d="M527.5,115.5c0-2.6,1.6-4,3.5-4c1,0,1.7,0.5,2.3,0.9l-0.4,0.5c-0.5-0.5-1.1-0.8-1.8-0.8c-1.6,0-2.8,1.4-2.8,3.4
					c0,2,1.1,3.4,2.8,3.4c0.8,0,1.5-0.4,2.1-0.9l0.4,0.5c-0.7,0.6-1.5,1-2.5,1C529,119.5,527.5,118,527.5,115.5z"/>
				<path d="M535.3,118.3v-10.5h0.7v10.6c0,0.3,0.1,0.5,0.3,0.5c0.1,0,0.1,0,0.3,0l0.1,0.6c-0.1,0-0.3,0.1-0.5,0.1
					C535.6,119.5,535.3,119.1,535.3,118.3z"/>
				<path d="M539,116.6v-4.9h0.7v4.8c0,1.6,0.5,2.4,1.8,2.4c0.9,0,1.6-0.5,2.5-1.6v-5.7h0.7v7.7H544l-0.1-1.3h0
					c-0.8,0.9-1.5,1.5-2.6,1.5C539.7,119.5,539,118.5,539,116.6z"/>
				<path d="M546.9,115.5c0-2.5,1.6-4,3.4-4c1.8,0,2.9,1.3,2.9,3.6c0,0.2,0,0.4,0,0.6h-5.5c0,1.9,1.2,3.3,2.9,3.3
					c0.8,0,1.5-0.3,2.1-0.7l0.3,0.5c-0.6,0.4-1.3,0.8-2.4,0.8C548.5,119.5,546.9,118,546.9,115.5z M552.5,115c0-2-0.9-2.9-2.3-2.9
					c-1.3,0-2.5,1.1-2.6,2.9H552.5z"/>
				<path d="M554.3,118.4l0.4-0.5c0.6,0.5,1.3,1,2.4,1c1.2,0,1.8-0.7,1.8-1.5c0-1-1-1.4-1.9-1.7c-1.2-0.4-2.4-0.9-2.4-2.2
					c0-1.1,0.9-2,2.5-2c0.8,0,1.6,0.3,2.2,0.8l-0.4,0.5c-0.5-0.4-1.1-0.7-1.8-0.7c-1.2,0-1.7,0.7-1.7,1.4c0,0.9,0.9,1.2,1.8,1.6
					c1.2,0.5,2.5,0.8,2.5,2.3c0,1.2-0.9,2.2-2.6,2.2C556,119.5,555,119,554.3,118.4z"/>
				<path d="M563.9,111.6h0.8l1.4,5c0.2,0.7,0.4,1.4,0.5,2.1h0.1c0.2-0.7,0.4-1.3,0.6-2.1l1.4-5h0.8l1.4,5c0.2,0.7,0.4,1.4,0.6,2.1
					h0.1c0.2-0.7,0.4-1.3,0.6-2.1l1.4-5h0.7l-2.2,7.7h-0.9l-1.4-4.8c-0.2-0.7-0.4-1.4-0.6-2.2h-0.1c-0.2,0.8-0.4,1.5-0.6,2.2
					l-1.3,4.7h-0.9L563.9,111.6z"/>
				<path d="M575.7,109.1c0-0.4,0.3-0.6,0.6-0.6s0.6,0.2,0.6,0.6c0,0.4-0.3,0.6-0.6,0.6S575.7,109.5,575.7,109.1z M575.9,111.6h0.7
					v7.7h-0.7V111.6z"/>
				<path d="M579.8,117.2v-4.9h-1.2v-0.6l1.2-0.1l0.1-2.2h0.6v2.2h2.2v0.6h-2.2v5c0,1,0.2,1.6,1.3,1.6c0.3,0,0.7-0.1,1-0.2l0.2,0.6
					c-0.4,0.2-0.9,0.3-1.3,0.3C580.2,119.5,579.8,118.6,579.8,117.2z"/>
				<path d="M584.6,107.8h0.7v3.3l0,1.7c0.8-0.8,1.6-1.4,2.7-1.4c1.6,0,2.3,1,2.3,2.9v4.9h-0.7v-4.8c0-1.6-0.5-2.4-1.8-2.4
					c-0.9,0-1.6,0.5-2.5,1.4v5.8h-0.7V107.8z"/>
				<path d="M592.8,109.1c0-0.4,0.3-0.6,0.6-0.6s0.6,0.2,0.6,0.6c0,0.4-0.3,0.6-0.6,0.6S592.8,109.5,592.8,109.1z M593,111.6h0.7
					v7.7H593V111.6z"/>
				<path d="M596.7,111.6h0.6l0.1,1.2h0c0.8-0.8,1.6-1.4,2.6-1.4c1.6,0,2.3,1,2.3,2.9v4.9h-0.7v-4.8c0-1.6-0.5-2.4-1.8-2.4
					c-0.9,0-1.6,0.5-2.5,1.4v5.8h-0.7V111.6z"/>
				<path d="M604.8,117.8c0-0.5,0.3-0.7,0.7-0.7c0.4,0,0.7,0.3,0.7,0.7c0,0.4-0.3,0.7-0.7,0.7C605.1,118.5,604.8,118.2,604.8,117.8z
					"/>
				<path d="M612,108.8h0.7v9.9h4.9v0.6H612V108.8z"/>
				<path d="M618.7,115.5c0-2.6,1.6-4,3.5-4c1.8,0,3.5,1.5,3.5,4c0,2.5-1.6,4-3.5,4C620.3,119.5,618.7,118,618.7,115.5z
					 M624.9,115.5c0-2-1.2-3.4-2.7-3.4s-2.7,1.4-2.7,3.4c0,2,1.2,3.4,2.7,3.4S624.9,117.5,624.9,115.5z"/>
				<path d="M627.3,115.5c0-2.6,1.6-4,3.5-4c1.8,0,3.5,1.5,3.5,4c0,2.5-1.6,4-3.5,4C628.9,119.5,627.3,118,627.3,115.5z
					 M633.5,115.5c0-2-1.2-3.4-2.7-3.4s-2.7,1.4-2.7,3.4c0,2,1.2,3.4,2.7,3.4S633.5,117.5,633.5,115.5z"/>
				<path d="M636.5,107.8h0.7v8.5h0l3.8-4.7h0.8l-2.5,3l2.9,4.6h-0.8l-2.6-4.1l-1.7,2v2.1h-0.7V107.8z"/>
				<path d="M646.2,111.7l1.1-0.1h2.5v0.6h-3.5V111.7z M647.2,109.9c0-1.5,0.7-2.3,1.9-2.3c0.4,0,0.8,0.1,1.1,0.3l-0.2,0.6
					c-0.3-0.2-0.6-0.2-0.9-0.2c-0.8,0-1.2,0.6-1.2,1.7v9.3h-0.7V109.9z"/>
				<path d="M650.7,115.5c0-2.6,1.6-4,3.5-4c1.8,0,3.5,1.5,3.5,4c0,2.5-1.6,4-3.5,4C652.3,119.5,650.7,118,650.7,115.5z
					 M656.8,115.5c0-2-1.2-3.4-2.7-3.4s-2.7,1.4-2.7,3.4c0,2,1.2,3.4,2.7,3.4S656.8,117.5,656.8,115.5z"/>
				<path d="M659.9,111.6h0.6l0.1,1.4h0c0.5-0.9,1.3-1.6,2.2-1.6c0.3,0,0.5,0,0.8,0.2l-0.2,0.6c-0.3-0.1-0.4-0.1-0.7-0.1
					c-0.7,0-1.5,0.5-2.1,2v5.2h-0.7V111.6z"/>
				<path d="M668.2,111.6h0.6l0.1,1.2h0c0.7-0.8,1.6-1.4,2.4-1.4c1.2,0,1.8,0.6,2.1,1.6c0.9-1,1.7-1.6,2.6-1.6c1.5,0,2.3,1,2.3,2.9
					v4.9h-0.7v-4.8c0-1.6-0.5-2.4-1.7-2.4c-0.7,0-1.5,0.5-2.3,1.4v5.8h-0.7v-4.8c0-1.6-0.5-2.4-1.7-2.4c-0.7,0-1.5,0.5-2.3,1.4v5.8
					h-0.7V111.6z"/>
				<path d="M680.5,115.5c0-2.6,1.6-4,3.5-4c1.8,0,3.5,1.5,3.5,4c0,2.5-1.6,4-3.5,4C682.1,119.5,680.5,118,680.5,115.5z
					 M686.7,115.5c0-2-1.2-3.4-2.7-3.4s-2.7,1.4-2.7,3.4c0,2,1.2,3.4,2.7,3.4S686.7,117.5,686.7,115.5z"/>
				<path d="M689.7,111.6h0.6l0.1,1.4h0c0.5-0.9,1.3-1.6,2.2-1.6c0.3,0,0.5,0,0.8,0.2l-0.2,0.6c-0.3-0.1-0.4-0.1-0.7-0.1
					c-0.7,0-1.5,0.5-2.1,2v5.2h-0.7V111.6z"/>
				<path d="M694.1,115.5c0-2.5,1.6-4,3.4-4c1.8,0,2.9,1.3,2.9,3.6c0,0.2,0,0.4,0,0.6h-5.5c0,1.9,1.2,3.3,2.9,3.3
					c0.8,0,1.5-0.3,2.1-0.7l0.3,0.5c-0.6,0.4-1.3,0.8-2.4,0.8C695.7,119.5,694.1,118,694.1,115.5z M699.8,115c0-2-0.9-2.9-2.3-2.9
					c-1.3,0-2.5,1.1-2.6,2.9H699.8z"/>
				<path d="M705.7,111.6h0.6l0.1,1h0c0.8-0.6,1.7-1.2,2.6-1.2c2.1,0,3.1,1.5,3.1,3.9c0,2.6-1.6,4.1-3.4,4.1c-0.7,0-1.5-0.3-2.3-0.9
					l0,1.4v2.8h-0.7V111.6z M711.4,115.4c0-1.9-0.7-3.3-2.4-3.3c-0.8,0-1.6,0.4-2.5,1.3v4.6c0.9,0.7,1.7,1,2.3,1
					C710.3,118.9,711.4,117.4,711.4,115.4z"/>
				<path d="M714.3,116.6v-4.9h0.7v4.8c0,1.6,0.5,2.4,1.8,2.4c0.9,0,1.6-0.5,2.5-1.6v-5.7h0.7v7.7h-0.6l-0.1-1.3h0
					c-0.8,0.9-1.5,1.5-2.6,1.5C715,119.5,714.3,118.5,714.3,116.6z"/>
				<path d="M722.9,111.6h0.6l0.1,1.2h0c0.8-0.8,1.6-1.4,2.6-1.4c1.6,0,2.3,1,2.3,2.9v4.9h-0.7v-4.8c0-1.6-0.5-2.4-1.8-2.4
					c-0.9,0-1.6,0.5-2.5,1.4v5.8h-0.7V111.6z"/>
				<path d="M730.4,118.4l0.4-0.5c0.6,0.5,1.3,1,2.4,1c1.2,0,1.8-0.7,1.8-1.5c0-1-1-1.4-1.9-1.7c-1.2-0.4-2.4-0.9-2.4-2.2
					c0-1.1,0.9-2,2.5-2c0.8,0,1.6,0.3,2.2,0.8l-0.4,0.5c-0.5-0.4-1.1-0.7-1.8-0.7c-1.2,0-1.7,0.7-1.7,1.4c0,0.9,0.9,1.2,1.8,1.6
					c1.2,0.5,2.5,0.8,2.5,2.3c0,1.2-0.9,2.2-2.6,2.2C732.1,119.5,731.1,119,730.4,118.4z"/>
				<path d="M737.2,120.3c0.7-0.4,1.2-1.1,1.2-2l-0.2-1l0.6,0.8c-0.1,0.2-0.3,0.3-0.6,0.3c-0.4,0-0.7-0.2-0.7-0.7
					c0-0.4,0.3-0.7,0.7-0.7c0.5,0,0.8,0.4,0.8,1.1c0,1.2-0.7,2.1-1.6,2.6L737.2,120.3z"/>
				<path d="M272.4,131.6h0.8l1.4,5c0.2,0.7,0.4,1.4,0.5,2.1h0.1c0.2-0.7,0.4-1.3,0.6-2.1l1.4-5h0.8l1.4,5c0.2,0.7,0.4,1.4,0.6,2.1
					h0.1c0.2-0.7,0.4-1.3,0.6-2.1l1.4-5h0.7l-2.2,7.7h-0.9l-1.4-4.8c-0.2-0.7-0.4-1.4-0.6-2.2h-0.1c-0.2,0.8-0.4,1.5-0.6,2.2
					l-1.3,4.7h-0.9L272.4,131.6z"/>
				<path d="M283.8,135.5c0-2.6,1.6-4,3.5-4c1.8,0,3.5,1.5,3.5,4c0,2.5-1.6,4-3.5,4C285.4,139.5,283.8,138,283.8,135.5z M290,135.5
					c0-2-1.2-3.4-2.7-3.4s-2.7,1.4-2.7,3.4c0,2,1.2,3.4,2.7,3.4S290,137.5,290,135.5z"/>
				<path d="M293,131.6h0.6l0.1,1.4h0c0.5-0.9,1.3-1.6,2.2-1.6c0.3,0,0.5,0,0.8,0.2l-0.2,0.6c-0.3-0.1-0.4-0.1-0.7-0.1
					c-0.7,0-1.5,0.5-2.1,2v5.2H293V131.6z"/>
				<path d="M297.4,135.5c0-2.5,1.6-4,3.4-4c0.9,0,1.5,0.3,2.3,0.9l0-1.4v-3.2h0.7v11.5h-0.6l-0.1-1h0c-0.6,0.6-1.5,1.2-2.5,1.2
					C298.7,139.5,297.4,138.1,297.4,135.5z M303.1,137.6v-4.6c-0.8-0.7-1.5-1-2.2-1c-1.5,0-2.7,1.5-2.7,3.4c0,2,0.9,3.4,2.5,3.4
					C301.6,138.9,302.3,138.4,303.1,137.6z"/>
				<path d="M306.8,131.6h0.6l0.1,1h0c0.8-0.6,1.7-1.2,2.6-1.2c2.1,0,3.1,1.5,3.1,3.9c0,2.6-1.6,4.1-3.4,4.1c-0.7,0-1.5-0.3-2.3-0.9
					l0,1.4v2.8h-0.7V131.6z M312.4,135.4c0-1.9-0.7-3.3-2.4-3.3c-0.8,0-1.6,0.4-2.5,1.3v4.6c0.9,0.7,1.7,1,2.3,1
					C311.3,138.9,312.4,137.4,312.4,135.4z"/>
				<path d="M315.5,138.3v-10.5h0.7v10.6c0,0.3,0.1,0.5,0.3,0.5c0.1,0,0.1,0,0.3,0l0.1,0.6c-0.1,0-0.3,0.1-0.5,0.1
					C315.8,139.5,315.5,139.1,315.5,138.3z"/>
				<path d="M318.7,137.4c0-1.7,1.5-2.5,5-2.9c0-1.2-0.3-2.4-1.8-2.4c-1,0-1.9,0.5-2.4,0.9l-0.3-0.5c0.5-0.4,1.6-1,2.9-1
					c1.8,0,2.4,1.3,2.4,3v4.9h-0.6l-0.1-1h0c-0.8,0.6-1.7,1.2-2.7,1.2C319.7,139.5,318.7,138.8,318.7,137.4z M323.7,137.7V135
					c-3.2,0.4-4.2,1.1-4.2,2.3c0,1.1,0.7,1.5,1.6,1.5C322,138.9,322.7,138.5,323.7,137.7z"/>
				<path d="M326,142.7l0.2-0.6c0.2,0.1,0.4,0.1,0.6,0.1c0.9,0,1.6-0.9,2-2l0.2-0.7l-3.2-7.8h0.8l1.9,4.8c0.3,0.6,0.6,1.5,0.8,2.2
					h0.1c0.2-0.7,0.5-1.5,0.7-2.2l1.6-4.8h0.7l-3,8.7c-0.4,1.3-1.2,2.5-2.6,2.5C326.5,142.8,326.3,142.8,326,142.7z"/>
				<path d="M333.2,138.4l0.4-0.5c0.6,0.5,1.3,1,2.4,1c1.2,0,1.8-0.7,1.8-1.5c0-1-1-1.4-1.9-1.7c-1.2-0.4-2.4-0.9-2.4-2.2
					c0-1.1,0.9-2,2.5-2c0.8,0,1.6,0.3,2.2,0.8l-0.4,0.5c-0.5-0.4-1.1-0.7-1.8-0.7c-1.2,0-1.7,0.7-1.7,1.4c0,0.9,0.9,1.2,1.8,1.6
					c1.2,0.5,2.5,0.8,2.5,2.3c0,1.2-0.9,2.2-2.6,2.2C334.8,139.5,333.9,139,333.2,138.4z"/>
				<path d="M339.9,140.3c0.7-0.4,1.2-1.1,1.2-2l-0.2-1l0.6,0.8c-0.1,0.2-0.3,0.3-0.6,0.3c-0.4,0-0.7-0.2-0.7-0.7
					c0-0.4,0.3-0.7,0.7-0.7c0.5,0,0.8,0.4,0.8,1.1c0,1.2-0.7,2.1-1.6,2.6L339.9,140.3z"/>
				<path d="M346.7,135.5c0-2.5,1.6-4,3.4-4c1.8,0,2.9,1.3,2.9,3.6c0,0.2,0,0.4,0,0.6h-5.5c0,1.9,1.2,3.3,2.9,3.3
					c0.8,0,1.5-0.3,2.1-0.7l0.3,0.5c-0.6,0.4-1.3,0.8-2.4,0.8C348.2,139.5,346.7,138,346.7,135.5z M352.3,135c0-2-0.9-2.9-2.3-2.9
					c-1.3,0-2.5,1.1-2.6,2.9H352.3z"/>
				<path d="M355.2,137.2v-4.9H354v-0.6l1.2-0.1l0.1-2.2h0.6v2.2h2.2v0.6h-2.2v5c0,1,0.2,1.6,1.3,1.6c0.3,0,0.7-0.1,1-0.2l0.2,0.6
					c-0.4,0.2-0.9,0.3-1.3,0.3C355.6,139.5,355.2,138.6,355.2,137.2z"/>
				<path d="M359.4,135.5c0-2.6,1.6-4,3.5-4c1,0,1.7,0.5,2.3,0.9l-0.4,0.5c-0.5-0.5-1.1-0.8-1.8-0.8c-1.6,0-2.8,1.4-2.8,3.4
					c0,2,1.1,3.4,2.8,3.4c0.8,0,1.5-0.4,2.1-0.9l0.4,0.5c-0.7,0.6-1.5,1-2.5,1C360.9,139.5,359.4,138,359.4,135.5z"/>
				<path d="M366.8,137.8c0-0.5,0.3-0.7,0.7-0.7c0.4,0,0.7,0.3,0.7,0.7c0,0.4-0.3,0.7-0.7,0.7C367.1,138.5,366.8,138.2,366.8,137.8z
					"/>
			</g>
		</g>
		<line class="st1" x1="272" y1="100.4" x2="344.7" y2="100.4"/>
	</g>
	<g>
		<g>
			<g>
				<path d="M272.8,164.1c0-3.4,2-5.5,4.7-5.5c1.3,0,2.3,0.6,2.9,1.3l-0.7,0.9c-0.6-0.6-1.2-1-2.1-1c-2,0-3.3,1.6-3.3,4.2
					c0,2.6,1.3,4.3,3.3,4.3c1,0,1.8-0.4,2.4-1.2l0.7,0.8c-0.8,1-1.9,1.5-3.2,1.5C274.8,169.5,272.8,167.5,272.8,164.1z"/>
				<path d="M281.9,165.5c0-2.6,1.7-4.1,3.6-4.1s3.6,1.5,3.6,4.1c0,2.6-1.7,4.1-3.6,4.1S281.9,168.1,281.9,165.5z M287.7,165.5
					c0-1.8-0.9-3-2.2-3c-1.3,0-2.2,1.2-2.2,3s0.9,3,2.2,3C286.8,168.5,287.7,167.3,287.7,165.5z"/>
				<path d="M291.1,161.6h1.1l0.1,1.1h0c0.7-0.7,1.5-1.3,2.6-1.3c1.6,0,2.4,1.1,2.4,3v4.9h-1.3v-4.8c0-1.4-0.4-2.1-1.5-2.1
					c-0.8,0-1.3,0.4-2.1,1.2v5.6h-1.3V161.6z"/>
				<path d="M300.1,166.9v-4.3H299v-1l1.2-0.1l0.2-2.2h1.1v2.2h2.1v1.1h-2.1v4.3c0,1,0.3,1.5,1.2,1.5c0.3,0,0.6-0.1,0.9-0.2l0.3,1
					c-0.4,0.1-1,0.3-1.4,0.3C300.7,169.5,300.1,168.5,300.1,166.9z"/>
				<path d="M304.7,165.5c0-2.5,1.7-4.1,3.5-4.1c2,0,3.1,1.4,3.1,3.7c0,0.3,0,0.6-0.1,0.7H306c0.1,1.6,1.1,2.7,2.6,2.7
					c0.7,0,1.4-0.2,1.9-0.6l0.5,0.9c-0.7,0.4-1.5,0.8-2.6,0.8C306.4,169.5,304.7,168,304.7,165.5z M310.2,164.8
					c0-1.6-0.7-2.4-1.9-2.4c-1.1,0-2.1,0.9-2.2,2.4H310.2z"/>
				<path d="M313.2,161.6h1.1l0.1,1.1h0c0.7-0.7,1.5-1.3,2.6-1.3c1.6,0,2.4,1.1,2.4,3v4.9h-1.3v-4.8c0-1.4-0.4-2.1-1.5-2.1
					c-0.8,0-1.3,0.4-2.1,1.2v5.6h-1.3V161.6z"/>
				<path d="M322.2,166.9v-4.3h-1.2v-1l1.2-0.1l0.2-2.2h1.1v2.2h2.1v1.1h-2.1v4.3c0,1,0.3,1.5,1.2,1.5c0.3,0,0.6-0.1,0.9-0.2l0.3,1
					c-0.4,0.1-1,0.3-1.4,0.3C322.8,169.5,322.2,168.5,322.2,166.9z"/>
				<path d="M275.9,182.4h-3.4v-0.6h7.5v0.6h-3.4v9.9h-0.7V182.4z"/>
				<path d="M281.9,180.8h0.7v3.3l0,1.7c0.8-0.8,1.6-1.4,2.7-1.4c1.6,0,2.3,1,2.3,2.9v4.9h-0.7v-4.8c0-1.6-0.5-2.4-1.8-2.4
					c-0.9,0-1.6,0.5-2.5,1.4v5.8h-0.7V180.8z"/>
				<path d="M289.7,188.5c0-2.5,1.6-4,3.4-4c1.8,0,2.9,1.3,2.9,3.6c0,0.2,0,0.4,0,0.6h-5.5c0,1.9,1.2,3.3,2.9,3.3
					c0.8,0,1.5-0.3,2.1-0.7l0.3,0.5c-0.6,0.4-1.3,0.8-2.4,0.8C291.3,192.5,289.7,191,289.7,188.5z M295.3,188c0-2-0.9-2.9-2.3-2.9
					c-1.3,0-2.5,1.1-2.6,2.9H295.3z"/>
				<path d="M300.7,190.4c0-1.7,1.5-2.5,5-2.9c0-1.2-0.3-2.4-1.8-2.4c-1,0-1.9,0.5-2.4,0.9l-0.3-0.5c0.5-0.4,1.6-1,2.9-1
					c1.8,0,2.4,1.3,2.4,3v4.9h-0.6l-0.1-1h0c-0.8,0.6-1.7,1.2-2.7,1.2C301.7,192.5,300.7,191.9,300.7,190.4z M305.7,190.7v-2.6
					c-3.2,0.4-4.2,1.1-4.2,2.3c0,1.1,0.7,1.5,1.6,1.5C303.9,191.9,304.7,191.5,305.7,190.7z"/>
				<path d="M308.5,188.5c0-2.6,1.6-4,3.5-4c1,0,1.7,0.5,2.3,0.9l-0.4,0.5c-0.5-0.5-1.1-0.8-1.8-0.8c-1.6,0-2.8,1.4-2.8,3.4
					c0,2,1.1,3.4,2.8,3.4c0.8,0,1.5-0.4,2.1-0.9l0.4,0.5c-0.7,0.6-1.5,1-2.5,1C310,192.5,308.5,191.1,308.5,188.5z"/>
				<path d="M316.5,190.2v-4.9h-1.2v-0.6l1.2-0.1l0.1-2.2h0.6v2.2h2.2v0.6h-2.2v5c0,1,0.2,1.6,1.3,1.6c0.3,0,0.7-0.1,1-0.2l0.2,0.6
					c-0.4,0.2-0.9,0.3-1.3,0.3C316.9,192.5,316.5,191.6,316.5,190.2z"/>
				<path d="M321.2,189.6v-4.9h0.7v4.8c0,1.6,0.5,2.4,1.8,2.4c0.9,0,1.6-0.5,2.5-1.6v-5.7h0.7v7.7h-0.6l-0.1-1.3h0
					c-0.8,0.9-1.5,1.5-2.6,1.5C321.9,192.5,321.2,191.6,321.2,189.6z"/>
				<path d="M329.2,190.4c0-1.7,1.5-2.5,5-2.9c0-1.2-0.3-2.4-1.8-2.4c-1,0-1.9,0.5-2.4,0.9l-0.3-0.5c0.5-0.4,1.6-1,2.9-1
					c1.8,0,2.4,1.3,2.4,3v4.9h-0.6l-0.1-1h0c-0.8,0.6-1.7,1.2-2.7,1.2C330.2,192.5,329.2,191.9,329.2,190.4z M334.2,190.7v-2.6
					c-3.2,0.4-4.2,1.1-4.2,2.3c0,1.1,0.7,1.5,1.6,1.5C332.4,191.9,333.2,191.5,334.2,190.7z"/>
				<path d="M337.6,191.3v-10.5h0.7v10.6c0,0.3,0.1,0.5,0.3,0.5c0.1,0,0.1,0,0.3,0l0.1,0.6c-0.1,0-0.3,0.1-0.5,0.1
					C337.9,192.5,337.6,192.2,337.6,191.3z"/>
				<path d="M344.6,184.7h0.6l0.1,1h0c0.8-0.6,1.7-1.2,2.6-1.2c2.1,0,3.1,1.5,3.1,3.9c0,2.6-1.6,4.1-3.4,4.1c-0.7,0-1.5-0.3-2.3-0.9
					l0,1.4v2.8h-0.7V184.7z M350.3,188.4c0-1.9-0.7-3.3-2.4-3.3c-0.8,0-1.6,0.4-2.5,1.3v4.6c0.9,0.7,1.7,1,2.3,1
					C349.1,191.9,350.3,190.5,350.3,188.4z"/>
				<path d="M353.2,189.6v-4.9h0.7v4.8c0,1.6,0.5,2.4,1.8,2.4c0.9,0,1.6-0.5,2.5-1.6v-5.7h0.7v7.7h-0.6l-0.1-1.3h0
					c-0.8,0.9-1.5,1.5-2.6,1.5C353.9,192.5,353.2,191.6,353.2,189.6z"/>
				<path d="M360.7,192l4.5-6.7h-4v-0.6h5v0.4l-4.5,6.7h4.7v0.6h-5.6V192z"/>
				<path d="M367.2,192l4.5-6.7h-4v-0.6h5v0.4l-4.5,6.7h4.7v0.6h-5.6V192z"/>
				<path d="M374.7,191.3v-10.5h0.7v10.6c0,0.3,0.1,0.5,0.3,0.5c0.1,0,0.1,0,0.3,0l0.1,0.6c-0.1,0-0.3,0.1-0.5,0.1
					C375,192.5,374.7,192.2,374.7,191.3z"/>
				<path d="M377.8,188.5c0-2.5,1.6-4,3.4-4c1.8,0,2.9,1.3,2.9,3.6c0,0.2,0,0.4,0,0.6h-5.5c0,1.9,1.2,3.3,2.9,3.3
					c0.8,0,1.5-0.3,2.1-0.7l0.3,0.5c-0.6,0.4-1.3,0.8-2.4,0.8C379.4,192.5,377.8,191,377.8,188.5z M383.5,188c0-2-0.9-2.9-2.3-2.9
					c-1.3,0-2.5,1.1-2.6,2.9H383.5z"/>
				<path d="M389.1,182.2c0-0.4,0.3-0.6,0.6-0.6s0.6,0.2,0.6,0.6c0,0.4-0.3,0.6-0.6,0.6S389.1,182.6,389.1,182.2z M389.4,184.7h0.7
					v7.7h-0.7V184.7z"/>
				<path d="M393.3,190.2v-4.9h-1.2v-0.6l1.2-0.1l0.1-2.2h0.6v2.2h2.2v0.6H394v5c0,1,0.2,1.6,1.3,1.6c0.3,0,0.7-0.1,1-0.2l0.2,0.6
					c-0.4,0.2-0.9,0.3-1.3,0.3C393.7,192.5,393.3,191.6,393.3,190.2z"/>
				<path d="M397.1,191.5l0.4-0.5c0.6,0.5,1.3,1,2.4,1c1.2,0,1.8-0.7,1.8-1.5c0-1-1-1.4-1.9-1.7c-1.2-0.4-2.4-0.9-2.4-2.2
					c0-1.1,0.9-2,2.5-2c0.8,0,1.6,0.3,2.2,0.8l-0.4,0.5c-0.5-0.4-1.1-0.7-1.8-0.7c-1.2,0-1.7,0.7-1.7,1.4c0,0.9,0.9,1.2,1.8,1.6
					c1.2,0.5,2.5,0.8,2.5,2.3c0,1.2-0.9,2.2-2.6,2.2C398.8,192.5,397.8,192.1,397.1,191.5z"/>
				<path d="M403.9,188.5c0-2.5,1.6-4,3.4-4c1.8,0,2.9,1.3,2.9,3.6c0,0.2,0,0.4,0,0.6h-5.5c0,1.9,1.2,3.3,2.9,3.3
					c0.8,0,1.5-0.3,2.1-0.7l0.3,0.5c-0.6,0.4-1.3,0.8-2.4,0.8C405.5,192.5,403.9,191,403.9,188.5z M409.5,188c0-2-0.9-2.9-2.3-2.9
					c-1.3,0-2.5,1.1-2.6,2.9H409.5z"/>
				<path d="M412.3,191.3v-10.5h0.7v10.6c0,0.3,0.1,0.5,0.3,0.5c0.1,0,0.1,0,0.3,0l0.1,0.6c-0.1,0-0.3,0.1-0.5,0.1
					C412.6,192.5,412.3,192.2,412.3,191.3z"/>
				<path d="M415.1,184.7l1.1-0.1h2.5v0.6h-3.5V184.7z M416.2,183c0-1.5,0.7-2.3,1.9-2.3c0.4,0,0.8,0.1,1.1,0.3l-0.2,0.6
					c-0.3-0.2-0.6-0.2-0.9-0.2c-0.8,0-1.2,0.6-1.2,1.7v9.3h-0.7V183z"/>
				<path d="M419.9,190.8c0-0.5,0.3-0.7,0.7-0.7c0.4,0,0.7,0.3,0.7,0.7c0,0.4-0.3,0.7-0.7,0.7C420.2,191.5,419.9,191.3,419.9,190.8z
					"/>
				<path d="M427.1,181.8h5.8v0.6h-5v4h4.2v0.6h-4.2v4.7h5.2v0.6h-5.9V181.8z"/>
				<path d="M433.9,184.7h0.8l1.7,4.8c0.2,0.7,0.5,1.5,0.8,2.2h0.1c0.2-0.7,0.5-1.5,0.8-2.2l1.7-4.8h0.7l-2.8,7.7h-0.8L433.9,184.7z
					"/>
				<path d="M441.5,188.5c0-2.5,1.6-4,3.4-4c1.8,0,2.9,1.3,2.9,3.6c0,0.2,0,0.4,0,0.6h-5.5c0,1.9,1.2,3.3,2.9,3.3
					c0.8,0,1.5-0.3,2.1-0.7l0.3,0.5c-0.6,0.4-1.3,0.8-2.4,0.8C443.1,192.5,441.5,191,441.5,188.5z M447.1,188c0-2-0.9-2.9-2.3-2.9
					c-1.3,0-2.5,1.1-2.6,2.9H447.1z"/>
				<path d="M449.9,184.7h0.6l0.1,1.4h0c0.5-0.9,1.3-1.6,2.2-1.6c0.3,0,0.5,0,0.8,0.2l-0.2,0.6c-0.3-0.1-0.4-0.1-0.7-0.1
					c-0.7,0-1.5,0.5-2.1,2v5.2h-0.7V184.7z"/>
				<path d="M453.9,195.7l0.2-0.6c0.2,0.1,0.4,0.1,0.6,0.1c0.9,0,1.6-0.9,2-2l0.2-0.7l-3.2-7.8h0.8l1.9,4.8c0.3,0.7,0.6,1.5,0.8,2.2
					h0.1c0.2-0.7,0.5-1.5,0.7-2.2l1.6-4.8h0.7l-3,8.7c-0.4,1.3-1.2,2.5-2.6,2.5C454.4,195.9,454.1,195.8,453.9,195.7z"/>
				<path d="M462.1,190.2v-4.9h-1.2v-0.6l1.2-0.1l0.1-2.2h0.6v2.2h2.2v0.6h-2.2v5c0,1,0.2,1.6,1.3,1.6c0.3,0,0.7-0.1,1-0.2l0.2,0.6
					c-0.4,0.2-0.9,0.3-1.3,0.3C462.6,192.5,462.1,191.6,462.1,190.2z"/>
				<path d="M466.9,180.8h0.7v3.3l0,1.7c0.8-0.8,1.6-1.4,2.7-1.4c1.6,0,2.3,1,2.3,2.9v4.9h-0.7v-4.8c0-1.6-0.5-2.4-1.8-2.4
					c-0.9,0-1.6,0.5-2.5,1.4v5.8h-0.7V180.8z"/>
				<path d="M475.1,182.2c0-0.4,0.3-0.6,0.6-0.6s0.6,0.2,0.6,0.6c0,0.4-0.3,0.6-0.6,0.6S475.1,182.6,475.1,182.2z M475.4,184.7h0.7
					v7.7h-0.7V184.7z"/>
				<path d="M479,184.7h0.6l0.1,1.2h0c0.8-0.8,1.6-1.4,2.6-1.4c1.6,0,2.3,1,2.3,2.9v4.9H484v-4.8c0-1.6-0.5-2.4-1.8-2.4
					c-0.9,0-1.6,0.5-2.5,1.4v5.8H479V184.7z"/>
				<path d="M486.9,193.9c0-0.7,0.4-1.4,1.1-1.9V192c-0.4-0.2-0.7-0.6-0.7-1.2c0-0.7,0.5-1.2,0.8-1.4v-0.1c-0.5-0.4-1-1.2-1-2.1
					c0-1.6,1.2-2.7,2.7-2.7c0.4,0,0.8,0.1,1,0.2h2.6v0.6h-1.8c0.5,0.4,0.8,1.1,0.8,1.9c0,1.6-1.2,2.7-2.7,2.7
					c-0.4,0-0.9-0.1-1.3-0.3c-0.3,0.3-0.6,0.6-0.6,1.1c0,0.6,0.3,1,1.5,1h1.6c1.7,0,2.5,0.6,2.5,1.8c0,1.3-1.4,2.6-3.6,2.6
					C488.1,196.1,486.9,195.2,486.9,193.9z M493,193.5c0-0.8-0.6-1.2-1.8-1.2h-1.6c-0.2,0-0.6,0-1-0.1c-0.7,0.5-1,1.1-1,1.6
					c0,1,0.9,1.6,2.5,1.6C491.9,195.5,493,194.5,493,193.5z M491.9,187.2c0-1.3-0.9-2.1-2-2.1s-2,0.8-2,2.1c0,1.3,0.9,2.2,2,2.2
					S491.9,188.5,491.9,187.2z"/>
				<path d="M497.5,184.7h0.8l1.4,5c0.2,0.7,0.4,1.4,0.5,2.1h0.1c0.2-0.7,0.4-1.3,0.6-2.1l1.4-5h0.8l1.4,5c0.2,0.7,0.4,1.4,0.6,2.1
					h0.1c0.2-0.7,0.4-1.3,0.6-2.1l1.4-5h0.7l-2.2,7.7h-0.9l-1.4-4.8c-0.2-0.7-0.4-1.4-0.6-2.2h-0.1c-0.2,0.8-0.4,1.5-0.6,2.2
					l-1.3,4.7h-0.9L497.5,184.7z"/>
				<path d="M509.2,182.2c0-0.4,0.3-0.6,0.6-0.6s0.6,0.2,0.6,0.6c0,0.4-0.3,0.6-0.6,0.6S509.2,182.6,509.2,182.2z M509.5,184.7h0.7
					v7.7h-0.7V184.7z"/>
				<path d="M513.4,190.2v-4.9h-1.2v-0.6l1.2-0.1l0.1-2.2h0.6v2.2h2.2v0.6h-2.2v5c0,1,0.2,1.6,1.3,1.6c0.3,0,0.7-0.1,1-0.2l0.2,0.6
					c-0.4,0.2-0.9,0.3-1.3,0.3C513.8,192.5,513.4,191.6,513.4,190.2z"/>
				<path d="M518.2,180.8h0.7v3.3l0,1.7c0.8-0.8,1.6-1.4,2.7-1.4c1.6,0,2.3,1,2.3,2.9v4.9h-0.7v-4.8c0-1.6-0.5-2.4-1.8-2.4
					c-0.9,0-1.6,0.5-2.5,1.4v5.8h-0.7V180.8z"/>
				<path d="M526.3,182.2c0-0.4,0.3-0.6,0.6-0.6s0.6,0.2,0.6,0.6c0,0.4-0.3,0.6-0.6,0.6S526.3,182.6,526.3,182.2z M526.6,184.7h0.7
					v7.7h-0.7V184.7z"/>
				<path d="M530.3,184.7h0.6l0.1,1.2h0c0.8-0.8,1.6-1.4,2.6-1.4c1.6,0,2.3,1,2.3,2.9v4.9h-0.7v-4.8c0-1.6-0.5-2.4-1.8-2.4
					c-0.9,0-1.6,0.5-2.5,1.4v5.8h-0.7V184.7z"/>
				<path d="M542.2,190.2v-4.9H541v-0.6l1.2-0.1l0.1-2.2h0.6v2.2h2.2v0.6h-2.2v5c0,1,0.2,1.6,1.3,1.6c0.3,0,0.7-0.1,1-0.2l0.2,0.6
					c-0.4,0.2-0.9,0.3-1.3,0.3C542.6,192.5,542.2,191.6,542.2,190.2z"/>
				<path d="M547,180.8h0.7v3.3l0,1.7c0.8-0.8,1.6-1.4,2.7-1.4c1.6,0,2.3,1,2.3,2.9v4.9H552v-4.8c0-1.6-0.5-2.4-1.8-2.4
					c-0.9,0-1.6,0.5-2.5,1.4v5.8H547V180.8z"/>
				<path d="M555.2,182.2c0-0.4,0.3-0.6,0.6-0.6s0.6,0.2,0.6,0.6c0,0.4-0.3,0.6-0.6,0.6S555.2,182.6,555.2,182.2z M555.4,184.7h0.7
					v7.7h-0.7V184.7z"/>
				<path d="M558.1,191.5l0.4-0.5c0.6,0.5,1.3,1,2.4,1c1.2,0,1.8-0.7,1.8-1.5c0-1-1-1.4-1.9-1.7c-1.2-0.4-2.4-0.9-2.4-2.2
					c0-1.1,0.9-2,2.5-2c0.8,0,1.6,0.3,2.2,0.8l-0.4,0.5c-0.5-0.4-1.1-0.7-1.8-0.7c-1.2,0-1.7,0.7-1.7,1.4c0,0.9,0.9,1.2,1.8,1.6
					c1.2,0.5,2.5,0.8,2.5,2.3c0,1.2-0.9,2.2-2.6,2.2C559.8,192.5,558.8,192.1,558.1,191.5z"/>
				<path d="M567.8,191.5l0.4-0.5c0.6,0.5,1.3,1,2.4,1c1.2,0,1.8-0.7,1.8-1.5c0-1-1-1.4-1.9-1.7c-1.2-0.4-2.4-0.9-2.4-2.2
					c0-1.1,0.9-2,2.5-2c0.8,0,1.6,0.3,2.2,0.8l-0.4,0.5c-0.5-0.4-1.1-0.7-1.8-0.7c-1.2,0-1.7,0.7-1.7,1.4c0,0.9,0.9,1.2,1.8,1.6
					c1.2,0.5,2.5,0.8,2.5,2.3c0,1.2-0.9,2.2-2.6,2.2C569.5,192.5,568.5,192.1,567.8,191.5z"/>
				<path d="M574.6,188.5c0-2.5,1.6-4,3.4-4c1.8,0,2.9,1.3,2.9,3.6c0,0.2,0,0.4,0,0.6h-5.5c0,1.9,1.2,3.3,2.9,3.3
					c0.8,0,1.5-0.3,2.1-0.7l0.3,0.5c-0.6,0.4-1.3,0.8-2.4,0.8C576.2,192.5,574.6,191,574.6,188.5z M580.2,188c0-2-0.9-2.9-2.3-2.9
					c-1.3,0-2.5,1.1-2.6,2.9H580.2z"/>
				<path d="M582.3,188.5c0-2.6,1.6-4,3.5-4c1,0,1.7,0.5,2.3,0.9l-0.4,0.5c-0.5-0.5-1.1-0.8-1.8-0.8c-1.6,0-2.8,1.4-2.8,3.4
					c0,2,1.1,3.4,2.8,3.4c0.8,0,1.5-0.4,2.1-0.9l0.4,0.5c-0.7,0.6-1.5,1-2.5,1C583.8,192.5,582.3,191.1,582.3,188.5z"/>
				<path d="M590.3,190.2v-4.9h-1.2v-0.6l1.2-0.1l0.1-2.2h0.6v2.2h2.2v0.6h-2.2v5c0,1,0.2,1.6,1.3,1.6c0.3,0,0.7-0.1,1-0.2l0.2,0.6
					c-0.4,0.2-0.9,0.3-1.3,0.3C590.8,192.5,590.3,191.6,590.3,190.2z"/>
				<path d="M594.9,182.2c0-0.4,0.3-0.6,0.6-0.6s0.6,0.2,0.6,0.6c0,0.4-0.3,0.6-0.6,0.6S594.9,182.6,594.9,182.2z M595.2,184.7h0.7
					v7.7h-0.7V184.7z"/>
				<path d="M598.2,188.5c0-2.6,1.6-4,3.5-4c1.8,0,3.5,1.5,3.5,4c0,2.5-1.6,4-3.5,4C599.8,192.5,598.2,191.1,598.2,188.5z
					 M604.3,188.5c0-2-1.2-3.4-2.7-3.4s-2.7,1.4-2.7,3.4c0,2,1.2,3.4,2.7,3.4S604.3,190.5,604.3,188.5z"/>
				<path d="M607.4,184.7h0.6l0.1,1.2h0c0.8-0.8,1.6-1.4,2.6-1.4c1.6,0,2.3,1,2.3,2.9v4.9h-0.7v-4.8c0-1.6-0.5-2.4-1.8-2.4
					c-0.9,0-1.6,0.5-2.5,1.4v5.8h-0.7V184.7z"/>
				<path d="M618.8,182.2c0-0.4,0.3-0.6,0.6-0.6s0.6,0.2,0.6,0.6c0,0.4-0.3,0.6-0.6,0.6S618.8,182.6,618.8,182.2z M619.1,184.7h0.7
					v7.7h-0.7V184.7z"/>
				<path d="M621.8,191.5l0.4-0.5c0.6,0.5,1.3,1,2.4,1c1.2,0,1.8-0.7,1.8-1.5c0-1-1-1.4-1.9-1.7c-1.2-0.4-2.4-0.9-2.4-2.2
					c0-1.1,0.9-2,2.5-2c0.8,0,1.6,0.3,2.2,0.8l-0.4,0.5c-0.5-0.4-1.1-0.7-1.8-0.7c-1.2,0-1.7,0.7-1.7,1.4c0,0.9,0.9,1.2,1.8,1.6
					c1.2,0.5,2.5,0.8,2.5,2.3c0,1.2-0.9,2.2-2.6,2.2C623.5,192.5,622.5,192.1,621.8,191.5z"/>
				<path d="M632.4,184.7h0.6l0.1,1h0c0.8-0.6,1.7-1.2,2.6-1.2c2.1,0,3.1,1.5,3.1,3.9c0,2.6-1.6,4.1-3.4,4.1c-0.7,0-1.5-0.3-2.3-0.9
					l0,1.4v2.8h-0.7V184.7z M638.1,188.4c0-1.9-0.7-3.3-2.4-3.3c-0.8,0-1.6,0.4-2.5,1.3v4.6c0.9,0.7,1.7,1,2.3,1
					C637,191.9,638.1,190.5,638.1,188.4z"/>
				<path d="M640.6,190.4c0-1.7,1.5-2.5,5-2.9c0-1.2-0.3-2.4-1.8-2.4c-1,0-1.9,0.5-2.4,0.9l-0.3-0.5c0.5-0.4,1.6-1,2.9-1
					c1.8,0,2.4,1.3,2.4,3v4.9h-0.6l-0.1-1h0c-0.8,0.6-1.7,1.2-2.7,1.2C641.6,192.5,640.6,191.9,640.6,190.4z M645.6,190.7v-2.6
					c-3.2,0.4-4.2,1.1-4.2,2.3c0,1.1,0.7,1.5,1.6,1.5C643.8,191.9,644.6,191.5,645.6,190.7z"/>
				<path d="M649,184.7h0.6l0.1,1.4h0c0.5-0.9,1.3-1.6,2.2-1.6c0.3,0,0.5,0,0.8,0.2l-0.2,0.6c-0.3-0.1-0.4-0.1-0.7-0.1
					c-0.7,0-1.5,0.5-2.1,2v5.2H649V184.7z"/>
				<path d="M654.2,190.2v-4.9H653v-0.6l1.2-0.1l0.1-2.2h0.6v2.2h2.2v0.6H655v5c0,1,0.2,1.6,1.3,1.6c0.3,0,0.7-0.1,1-0.2l0.2,0.6
					c-0.4,0.2-0.9,0.3-1.3,0.3C654.7,192.5,654.2,191.6,654.2,190.2z"/>
				<path d="M661.6,188.5c0-2.6,1.6-4,3.5-4c1.8,0,3.5,1.5,3.5,4c0,2.5-1.6,4-3.5,4C663.2,192.5,661.6,191.1,661.6,188.5z
					 M667.8,188.5c0-2-1.2-3.4-2.7-3.4s-2.7,1.4-2.7,3.4c0,2,1.2,3.4,2.7,3.4S667.8,190.5,667.8,188.5z"/>
				<path d="M669.9,184.7l1.1-0.1h2.5v0.6h-3.5V184.7z M670.9,183c0-1.5,0.7-2.3,1.9-2.3c0.4,0,0.8,0.1,1.1,0.3l-0.2,0.6
					c-0.3-0.2-0.6-0.2-0.9-0.2c-0.8,0-1.2,0.6-1.2,1.7v9.3h-0.7V183z"/>
				<path d="M678.4,190.2v-4.9h-1.2v-0.6l1.2-0.1l0.1-2.2h0.6v2.2h2.2v0.6h-2.2v5c0,1,0.2,1.6,1.3,1.6c0.3,0,0.7-0.1,1-0.2l0.2,0.6
					c-0.4,0.2-0.9,0.3-1.3,0.3C678.8,192.5,678.4,191.6,678.4,190.2z"/>
				<path d="M683.2,180.8h0.7v3.3l0,1.7c0.8-0.8,1.6-1.4,2.7-1.4c1.6,0,2.3,1,2.3,2.9v4.9h-0.7v-4.8c0-1.6-0.5-2.4-1.8-2.4
					c-0.9,0-1.6,0.5-2.5,1.4v5.8h-0.7V180.8z"/>
				<path d="M691,188.5c0-2.5,1.6-4,3.4-4c1.8,0,2.9,1.3,2.9,3.6c0,0.2,0,0.4,0,0.6h-5.5c0,1.9,1.2,3.3,2.9,3.3
					c0.8,0,1.5-0.3,2.1-0.7l0.3,0.5c-0.6,0.4-1.3,0.8-2.4,0.8C692.6,192.5,691,191,691,188.5z M696.7,188c0-2-0.9-2.9-2.3-2.9
					c-1.3,0-2.5,1.1-2.6,2.9H696.7z"/>
				<path d="M702.6,184.7h0.6l0.1,1h0c0.8-0.6,1.7-1.2,2.6-1.2c2.1,0,3.1,1.5,3.1,3.9c0,2.6-1.6,4.1-3.4,4.1c-0.7,0-1.5-0.3-2.3-0.9
					l0,1.4v2.8h-0.7V184.7z M708.3,188.4c0-1.9-0.7-3.3-2.4-3.3c-0.8,0-1.6,0.4-2.5,1.3v4.6c0.9,0.7,1.7,1,2.3,1
					C707.1,191.9,708.3,190.5,708.3,188.4z"/>
				<path d="M711.2,189.6v-4.9h0.7v4.8c0,1.6,0.5,2.4,1.8,2.4c0.9,0,1.6-0.5,2.5-1.6v-5.7h0.7v7.7h-0.6l-0.1-1.3h0
					c-0.8,0.9-1.5,1.5-2.6,1.5C711.9,192.5,711.2,191.6,711.2,189.6z"/>
				<path d="M718.7,192l4.5-6.7h-4v-0.6h5v0.4l-4.5,6.7h4.7v0.6h-5.6V192z"/>
				<path d="M725.2,192l4.5-6.7h-4v-0.6h5v0.4l-4.5,6.7h4.7v0.6h-5.6V192z"/>
				<path d="M732.7,191.3v-10.5h0.7v10.6c0,0.3,0.1,0.5,0.3,0.5c0.1,0,0.1,0,0.3,0l0.1,0.6c-0.1,0-0.3,0.1-0.5,0.1
					C733,192.5,732.7,192.2,732.7,191.3z"/>
				<path d="M735.8,188.5c0-2.5,1.6-4,3.4-4c1.8,0,2.9,1.3,2.9,3.6c0,0.2,0,0.4,0,0.6h-5.5c0,1.9,1.2,3.3,2.9,3.3
					c0.8,0,1.5-0.3,2.1-0.7l0.3,0.5c-0.6,0.4-1.3,0.8-2.4,0.8C737.4,192.5,735.8,191,735.8,188.5z M741.5,188c0-2-0.9-2.9-2.3-2.9
					c-1.3,0-2.5,1.1-2.6,2.9H741.5z"/>
				<path d="M743.8,190.8c0-0.5,0.3-0.7,0.7-0.7c0.4,0,0.7,0.3,0.7,0.7c0,0.4-0.3,0.7-0.7,0.7C744.1,191.5,743.8,191.3,743.8,190.8z
					"/>
				<path d="M272.9,207.1c0-3.3,1.9-5.4,4.7-5.4c1.4,0,2.3,0.7,2.9,1.3l-0.4,0.5c-0.5-0.6-1.3-1.1-2.4-1.1c-2.4,0-3.9,1.8-3.9,4.8
					c0,2.9,1.4,4.8,3.8,4.8c1,0,1.8-0.3,2.4-0.8v-3.3h-2.5v-0.6h3.2v4.2c-0.7,0.7-1.7,1.2-3.1,1.2
					C274.7,212.5,272.9,210.4,272.9,207.1z"/>
				<path d="M282.5,208.5c0-2.6,1.6-4,3.5-4c1.8,0,3.5,1.5,3.5,4c0,2.5-1.6,4-3.5,4C284.1,212.5,282.5,211.1,282.5,208.5z
					 M288.7,208.5c0-2-1.2-3.4-2.7-3.4s-2.7,1.4-2.7,3.4c0,2,1.2,3.4,2.7,3.4S288.7,210.5,288.7,208.5z"/>
				<path d="M291.1,208.5c0-2.6,1.6-4,3.5-4c1.8,0,3.5,1.5,3.5,4c0,2.5-1.6,4-3.5,4C292.7,212.5,291.1,211.1,291.1,208.5z
					 M297.2,208.5c0-2-1.2-3.4-2.7-3.4s-2.7,1.4-2.7,3.4c0,2,1.2,3.4,2.7,3.4S297.2,210.5,297.2,208.5z"/>
				<path d="M299.6,213.9c0-0.7,0.4-1.4,1.1-1.9V212c-0.4-0.2-0.7-0.6-0.7-1.2c0-0.7,0.5-1.2,0.8-1.4v-0.1c-0.5-0.4-1-1.2-1-2.1
					c0-1.6,1.2-2.7,2.7-2.7c0.4,0,0.8,0.1,1,0.2h2.6v0.6h-1.8c0.5,0.4,0.8,1.1,0.8,1.9c0,1.6-1.2,2.7-2.7,2.7
					c-0.4,0-0.9-0.1-1.3-0.3c-0.3,0.3-0.6,0.6-0.6,1.1c0,0.6,0.3,1,1.5,1h1.6c1.7,0,2.5,0.6,2.5,1.8c0,1.3-1.4,2.6-3.6,2.6
					C300.9,216.1,299.6,215.2,299.6,213.9z M305.7,213.5c0-0.8-0.6-1.2-1.8-1.2h-1.6c-0.2,0-0.6,0-1-0.1c-0.7,0.5-1,1.1-1,1.6
					c0,1,0.9,1.6,2.5,1.6C304.6,215.5,305.7,214.5,305.7,213.5z M304.7,207.2c0-1.3-0.9-2.1-2-2.1s-2,0.8-2,2.1c0,1.3,0.9,2.2,2,2.2
					S304.7,208.5,304.7,207.2z"/>
				<path d="M308.1,211.3v-10.5h0.7v10.6c0,0.3,0.1,0.5,0.3,0.5c0.1,0,0.1,0,0.3,0l0.1,0.6c-0.1,0-0.3,0.1-0.5,0.1
					C308.4,212.5,308.1,212.2,308.1,211.3z"/>
				<path d="M311.2,208.5c0-2.5,1.6-4,3.4-4c1.8,0,2.9,1.3,2.9,3.6c0,0.2,0,0.4,0,0.6H312c0,1.9,1.2,3.3,2.9,3.3
					c0.8,0,1.5-0.3,2.1-0.7l0.3,0.5c-0.6,0.4-1.3,0.8-2.4,0.8C312.8,212.5,311.2,211,311.2,208.5z M316.9,208c0-2-0.9-2.9-2.3-2.9
					c-1.3,0-2.5,1.1-2.6,2.9H316.9z"/>
				<path d="M322.2,208.5c0-2.5,1.6-4,3.4-4c1.8,0,2.9,1.3,2.9,3.6c0,0.2,0,0.4,0,0.6h-5.5c0,1.9,1.2,3.3,2.9,3.3
					c0.8,0,1.5-0.3,2.1-0.7l0.3,0.5c-0.6,0.4-1.3,0.8-2.4,0.8C323.8,212.5,322.2,211,322.2,208.5z M327.8,208c0-2-0.9-2.9-2.3-2.9
					c-1.3,0-2.5,1.1-2.6,2.9H327.8z"/>
				<path d="M329.3,204.7h0.8l1.7,4.8c0.2,0.7,0.5,1.5,0.8,2.2h0.1c0.2-0.7,0.5-1.5,0.8-2.2l1.7-4.8h0.7l-2.8,7.7h-0.8L329.3,204.7z
					"/>
				<path d="M336.8,208.5c0-2.5,1.6-4,3.4-4c1.8,0,2.9,1.3,2.9,3.6c0,0.2,0,0.4,0,0.6h-5.5c0,1.9,1.2,3.3,2.9,3.3
					c0.8,0,1.5-0.3,2.1-0.7l0.3,0.5c-0.6,0.4-1.3,0.8-2.4,0.8C338.4,212.5,336.8,211,336.8,208.5z M342.5,208c0-2-0.9-2.9-2.3-2.9
					c-1.3,0-2.5,1.1-2.6,2.9H342.5z"/>
				<path d="M345.2,204.7h0.6l0.1,1.4h0c0.5-0.9,1.3-1.6,2.2-1.6c0.3,0,0.5,0,0.8,0.2l-0.2,0.6c-0.3-0.1-0.4-0.1-0.7-0.1
					c-0.7,0-1.5,0.5-2.1,2v5.2h-0.7V204.7z"/>
				<path d="M349.2,215.7l0.2-0.6c0.2,0.1,0.4,0.1,0.6,0.1c0.9,0,1.6-0.9,2-2l0.2-0.7l-3.2-7.8h0.8l1.9,4.8c0.3,0.7,0.6,1.5,0.8,2.2
					h0.1c0.2-0.7,0.5-1.5,0.7-2.2l1.6-4.8h0.7l-3,8.7c-0.4,1.3-1.2,2.5-2.6,2.5C349.7,215.9,349.4,215.8,349.2,215.7z"/>
				<path d="M357.4,210.2v-4.9h-1.2v-0.6l1.2-0.1l0.1-2.2h0.6v2.2h2.2v0.6h-2.2v5c0,1,0.2,1.6,1.3,1.6c0.3,0,0.7-0.1,1-0.2l0.2,0.6
					c-0.4,0.2-0.9,0.3-1.3,0.3C357.9,212.5,357.4,211.6,357.4,210.2z"/>
				<path d="M362.2,200.8h0.7v3.3l0,1.7c0.8-0.8,1.6-1.4,2.7-1.4c1.6,0,2.3,1,2.3,2.9v4.9h-0.7v-4.8c0-1.6-0.5-2.4-1.8-2.4
					c-0.9,0-1.6,0.5-2.5,1.4v5.8h-0.7V200.8z"/>
				<path d="M370.4,202.2c0-0.4,0.3-0.6,0.6-0.6s0.6,0.2,0.6,0.6c0,0.4-0.3,0.6-0.6,0.6S370.4,202.6,370.4,202.2z M370.7,204.7h0.7
					v7.7h-0.7V204.7z"/>
				<path d="M374.4,204.7h0.6l0.1,1.2h0c0.8-0.8,1.6-1.4,2.6-1.4c1.6,0,2.3,1,2.3,2.9v4.9h-0.7v-4.8c0-1.6-0.5-2.4-1.8-2.4
					c-0.9,0-1.6,0.5-2.5,1.4v5.8h-0.7V204.7z"/>
				<path d="M382.2,213.9c0-0.7,0.4-1.4,1.1-1.9V212c-0.4-0.2-0.7-0.6-0.7-1.2c0-0.7,0.5-1.2,0.8-1.4v-0.1c-0.5-0.4-1-1.2-1-2.1
					c0-1.6,1.2-2.7,2.7-2.7c0.4,0,0.8,0.1,1,0.2h2.6v0.6h-1.8c0.5,0.4,0.8,1.1,0.8,1.9c0,1.6-1.2,2.7-2.7,2.7
					c-0.4,0-0.9-0.1-1.3-0.3c-0.3,0.3-0.6,0.6-0.6,1.1c0,0.6,0.3,1,1.5,1h1.6c1.7,0,2.5,0.6,2.5,1.8c0,1.3-1.4,2.6-3.6,2.6
					C383.4,216.1,382.2,215.2,382.2,213.9z M388.3,213.5c0-0.8-0.6-1.2-1.8-1.2h-1.6c-0.2,0-0.6,0-1-0.1c-0.7,0.5-1,1.1-1,1.6
					c0,1,0.9,1.6,2.5,1.6C387.2,215.5,388.3,214.5,388.3,213.5z M387.2,207.2c0-1.3-0.9-2.1-2-2.1s-2,0.8-2,2.1c0,1.3,0.9,2.2,2,2.2
					S387.2,208.5,387.2,207.2z"/>
				<path d="M390,213.4c0.7-0.4,1.2-1.1,1.2-2l-0.2-1l0.6,0.8c-0.1,0.2-0.3,0.3-0.6,0.3c-0.4,0-0.7-0.2-0.7-0.7
					c0-0.4,0.3-0.7,0.7-0.7c0.5,0,0.8,0.4,0.8,1.1c0,1.2-0.7,2.1-1.6,2.6L390,213.4z"/>
				<path d="M396.8,210.4c0-1.7,1.5-2.5,5-2.9c0-1.2-0.3-2.4-1.8-2.4c-1,0-1.9,0.5-2.4,0.9l-0.3-0.5c0.5-0.4,1.6-1,2.9-1
					c1.8,0,2.4,1.3,2.4,3v4.9h-0.6l-0.1-1h0c-0.8,0.6-1.7,1.2-2.7,1.2C397.8,212.5,396.8,211.9,396.8,210.4z M401.8,210.7v-2.6
					c-3.2,0.4-4.2,1.1-4.2,2.3c0,1.1,0.7,1.5,1.6,1.5C400,211.9,400.8,211.5,401.8,210.7z"/>
				<path d="M405.2,204.7h0.6l0.1,1.2h0c0.8-0.8,1.6-1.4,2.6-1.4c1.6,0,2.3,1,2.3,2.9v4.9h-0.7v-4.8c0-1.6-0.5-2.4-1.8-2.4
					c-0.9,0-1.6,0.5-2.5,1.4v5.8h-0.7V204.7z"/>
				<path d="M413.1,208.5c0-2.5,1.6-4,3.4-4c0.9,0,1.5,0.3,2.3,0.9l0-1.4v-3.2h0.7v11.5h-0.6l-0.1-1h0c-0.6,0.6-1.5,1.2-2.5,1.2
					C414.3,212.5,413.1,211.1,413.1,208.5z M418.8,210.7v-4.6c-0.8-0.7-1.5-1-2.2-1c-1.5,0-2.7,1.5-2.7,3.4c0,2,0.9,3.4,2.5,3.4
					C417.2,211.9,418,211.5,418.8,210.7z"/>
				<path d="M430.7,212.9l0-1.5c-0.7,0.7-1.5,1.2-2.5,1.2c-1.9,0-3.2-1.4-3.2-4c0-2.5,1.6-4,3.4-4c0.9,0,1.6,0.3,2.3,0.9h0l0.1-0.7
					h0.6v11.2h-0.7V212.9z M430.7,210.7v-4.6c-0.8-0.7-1.5-1-2.2-1c-1.5,0-2.7,1.5-2.7,3.4c0,2,0.9,3.4,2.5,3.4
					C429.1,211.9,429.9,211.5,430.7,210.7z"/>
				<path d="M434.2,209.6v-4.9h0.7v4.8c0,1.6,0.5,2.4,1.8,2.4c0.9,0,1.6-0.5,2.5-1.6v-5.7h0.7v7.7h-0.6l-0.1-1.3h0
					c-0.8,0.9-1.5,1.5-2.6,1.5C435,212.5,434.2,211.6,434.2,209.6z"/>
				<path d="M442.2,208.5c0-2.5,1.6-4,3.4-4c1.8,0,2.9,1.3,2.9,3.6c0,0.2,0,0.4,0,0.6h-5.5c0,1.9,1.2,3.3,2.9,3.3
					c0.8,0,1.5-0.3,2.1-0.7l0.3,0.5c-0.6,0.4-1.3,0.8-2.4,0.8C443.7,212.5,442.2,211,442.2,208.5z M447.8,208c0-2-0.9-2.9-2.3-2.9
					c-1.3,0-2.5,1.1-2.6,2.9H447.8z"/>
				<path d="M449.6,211.5l0.4-0.5c0.6,0.5,1.3,1,2.4,1c1.2,0,1.8-0.7,1.8-1.5c0-1-1-1.4-1.9-1.7c-1.2-0.4-2.4-0.9-2.4-2.2
					c0-1.1,0.9-2,2.5-2c0.8,0,1.6,0.3,2.2,0.8l-0.4,0.5c-0.5-0.4-1.1-0.7-1.8-0.7c-1.2,0-1.7,0.7-1.7,1.4c0,0.9,0.9,1.2,1.8,1.6
					c1.2,0.5,2.5,0.8,2.5,2.3c0,1.2-0.9,2.2-2.6,2.2C451.3,212.5,450.3,212.1,449.6,211.5z"/>
				<path d="M457.2,210.2v-4.9H456v-0.6l1.2-0.1l0.1-2.2h0.6v2.2h2.2v0.6h-2.2v5c0,1,0.2,1.6,1.3,1.6c0.3,0,0.7-0.1,1-0.2l0.2,0.6
					c-0.4,0.2-0.9,0.3-1.3,0.3C457.6,212.5,457.2,211.6,457.2,210.2z"/>
				<path d="M461.7,202.2c0-0.4,0.3-0.6,0.6-0.6s0.6,0.2,0.6,0.6c0,0.4-0.3,0.6-0.6,0.6S461.7,202.6,461.7,202.2z M462,204.7h0.7
					v7.7H462V204.7z"/>
				<path d="M465,208.5c0-2.6,1.6-4,3.5-4c1.8,0,3.5,1.5,3.5,4c0,2.5-1.6,4-3.5,4C466.6,212.5,465,211.1,465,208.5z M471.2,208.5
					c0-2-1.2-3.4-2.7-3.4s-2.7,1.4-2.7,3.4c0,2,1.2,3.4,2.7,3.4S471.2,210.5,471.2,208.5z"/>
				<path d="M474.2,204.7h0.6l0.1,1.2h0c0.8-0.8,1.6-1.4,2.6-1.4c1.6,0,2.3,1,2.3,2.9v4.9h-0.7v-4.8c0-1.6-0.5-2.4-1.8-2.4
					c-0.9,0-1.6,0.5-2.5,1.4v5.8h-0.7V204.7z"/>
				<path d="M485.3,208.5c0-2.5,1.6-4,3.4-4c1.8,0,2.9,1.3,2.9,3.6c0,0.2,0,0.4,0,0.6H486c0,1.9,1.2,3.3,2.9,3.3
					c0.8,0,1.5-0.3,2.1-0.7l0.3,0.5c-0.6,0.4-1.3,0.8-2.4,0.8C486.9,212.5,485.3,211,485.3,208.5z M490.9,208c0-2-0.9-2.9-2.3-2.9
					c-1.3,0-2.5,1.1-2.6,2.9H490.9z"/>
				<path d="M492.4,204.7h0.8l1.7,4.8c0.2,0.7,0.5,1.5,0.8,2.2h0.1c0.2-0.7,0.5-1.5,0.8-2.2l1.7-4.8h0.7l-2.8,7.7h-0.8L492.4,204.7z
					"/>
				<path d="M500,208.5c0-2.5,1.6-4,3.4-4c1.8,0,2.9,1.3,2.9,3.6c0,0.2,0,0.4,0,0.6h-5.5c0,1.9,1.2,3.3,2.9,3.3
					c0.8,0,1.5-0.3,2.1-0.7l0.3,0.5c-0.6,0.4-1.3,0.8-2.4,0.8C501.6,212.5,500,211,500,208.5z M505.6,208c0-2-0.9-2.9-2.3-2.9
					c-1.3,0-2.5,1.1-2.6,2.9H505.6z"/>
				<path d="M508.3,204.7h0.6l0.1,1.4h0c0.5-0.9,1.3-1.6,2.2-1.6c0.3,0,0.5,0,0.8,0.2l-0.2,0.6c-0.3-0.1-0.4-0.1-0.7-0.1
					c-0.7,0-1.5,0.5-2.1,2v5.2h-0.7V204.7z"/>
				<path d="M512.3,215.7l0.2-0.6c0.2,0.1,0.4,0.1,0.6,0.1c0.9,0,1.6-0.9,2-2l0.2-0.7l-3.2-7.8h0.8l1.9,4.8c0.3,0.7,0.6,1.5,0.8,2.2
					h0.1c0.2-0.7,0.5-1.5,0.7-2.2l1.6-4.8h0.7l-3,8.7c-0.4,1.3-1.2,2.5-2.6,2.5C512.8,215.9,512.5,215.8,512.3,215.7z"/>
				<path d="M520.6,210.2v-4.9h-1.2v-0.6l1.2-0.1l0.1-2.2h0.6v2.2h2.2v0.6h-2.2v5c0,1,0.2,1.6,1.3,1.6c0.3,0,0.7-0.1,1-0.2l0.2,0.6
					c-0.4,0.2-0.9,0.3-1.3,0.3C521,212.5,520.6,211.6,520.6,210.2z"/>
				<path d="M525.4,200.8h0.7v3.3l0,1.7c0.8-0.8,1.6-1.4,2.7-1.4c1.6,0,2.3,1,2.3,2.9v4.9h-0.7v-4.8c0-1.6-0.5-2.4-1.8-2.4
					c-0.9,0-1.6,0.5-2.5,1.4v5.8h-0.7V200.8z"/>
				<path d="M533.6,202.2c0-0.4,0.3-0.6,0.6-0.6s0.6,0.2,0.6,0.6c0,0.4-0.3,0.6-0.6,0.6S533.6,202.6,533.6,202.2z M533.8,204.7h0.7
					v7.7h-0.7V204.7z"/>
				<path d="M537.5,204.7h0.6l0.1,1.2h0c0.8-0.8,1.6-1.4,2.6-1.4c1.6,0,2.3,1,2.3,2.9v4.9h-0.7v-4.8c0-1.6-0.5-2.4-1.8-2.4
					c-0.9,0-1.6,0.5-2.5,1.4v5.8h-0.7V204.7z"/>
				<path d="M545.4,213.9c0-0.7,0.4-1.4,1.1-1.9V212c-0.4-0.2-0.7-0.6-0.7-1.2c0-0.7,0.5-1.2,0.8-1.4v-0.1c-0.5-0.4-1-1.2-1-2.1
					c0-1.6,1.2-2.7,2.7-2.7c0.4,0,0.8,0.1,1,0.2h2.6v0.6h-1.8c0.5,0.4,0.8,1.1,0.8,1.9c0,1.6-1.2,2.7-2.7,2.7
					c-0.4,0-0.9-0.1-1.3-0.3c-0.3,0.3-0.6,0.6-0.6,1.1c0,0.6,0.3,1,1.5,1h1.6c1.7,0,2.5,0.6,2.5,1.8c0,1.3-1.4,2.6-3.6,2.6
					C546.6,216.1,545.4,215.2,545.4,213.9z M551.4,213.5c0-0.8-0.6-1.2-1.8-1.2H548c-0.2,0-0.6,0-1-0.1c-0.7,0.5-1,1.1-1,1.6
					c0,1,0.9,1.6,2.5,1.6C550.3,215.5,551.4,214.5,551.4,213.5z M550.4,207.2c0-1.3-0.9-2.1-2-2.1s-2,0.8-2,2.1c0,1.3,0.9,2.2,2,2.2
					S550.4,208.5,550.4,207.2z"/>
				<path d="M553.4,210.8c0-0.5,0.3-0.7,0.7-0.7c0.4,0,0.7,0.3,0.7,0.7c0,0.4-0.3,0.7-0.7,0.7C553.7,211.5,553.4,211.3,553.4,210.8z
					"/>
			</g>
		</g>
		<line class="st1" x1="272" y1="173.6" x2="326" y2="173.6"/>
	</g>
	<g>
		<g>
			<g>
				<path d="M272.8,237.1c0-3.4,2-5.5,4.8-5.5c1.5,0,2.4,0.7,3,1.3l-0.7,0.9c-0.5-0.5-1.2-1-2.3-1c-2.1,0-3.5,1.6-3.5,4.2
					c0,2.6,1.2,4.3,3.5,4.3c0.8,0,1.5-0.2,1.9-0.6v-2.7h-2.2v-1.1h3.4v4.4c-0.7,0.7-1.8,1.2-3.2,1.2
					C274.8,242.6,272.8,240.6,272.8,237.1z"/>
				<path d="M283.1,239.5v-4.9h1.3v4.8c0,1.4,0.4,2.1,1.5,2.1c0.8,0,1.3-0.4,2.1-1.3v-5.5h1.3v7.8h-1.1l-0.1-1.2h0
					c-0.7,0.8-1.5,1.4-2.6,1.4C283.8,242.6,283.1,241.5,283.1,239.5z"/>
				<path d="M291.3,238.5c0-2.5,1.7-4.1,3.5-4.1c2,0,3.1,1.4,3.1,3.7c0,0.3,0,0.6-0.1,0.7h-5.2c0.1,1.6,1.1,2.7,2.6,2.7
					c0.7,0,1.4-0.2,1.9-0.6l0.5,0.9c-0.7,0.4-1.5,0.8-2.6,0.8C293,242.6,291.3,241.1,291.3,238.5z M296.8,237.9
					c0-1.6-0.7-2.4-1.9-2.4c-1.1,0-2.1,0.9-2.2,2.4H296.8z"/>
				<path d="M299,241.5l0.6-0.9c0.7,0.5,1.4,0.9,2.3,0.9c1,0,1.5-0.5,1.5-1.2c0-0.8-0.9-1.2-1.8-1.5c-1.1-0.4-2.3-0.9-2.3-2.2
					c0-1.2,1-2.2,2.7-2.2c1,0,1.8,0.4,2.4,0.9l-0.6,0.8c-0.5-0.4-1.1-0.7-1.8-0.7c-1,0-1.4,0.5-1.4,1.1c0,0.7,0.8,1,1.7,1.4
					c1.1,0.4,2.4,0.9,2.4,2.4c0,1.3-1,2.3-2.8,2.3C300.8,242.6,299.7,242.1,299,241.5z"/>
				<path d="M305.7,241.5l0.6-0.9c0.7,0.5,1.4,0.9,2.3,0.9c1,0,1.5-0.5,1.5-1.2c0-0.8-0.9-1.2-1.8-1.5c-1.1-0.4-2.3-0.9-2.3-2.2
					c0-1.2,1-2.2,2.7-2.2c1,0,1.8,0.4,2.4,0.9l-0.6,0.8c-0.5-0.4-1.1-0.7-1.8-0.7c-1,0-1.4,0.5-1.4,1.1c0,0.7,0.8,1,1.7,1.4
					c1.1,0.4,2.4,0.9,2.4,2.4c0,1.3-1,2.3-2.8,2.3C307.5,242.6,306.4,242.1,305.7,241.5z"/>
				<path d="M273.6,254.8h1l2.2,6.2c0.3,0.8,0.6,1.6,0.8,2.3h0.1c0.3-0.8,0.5-1.6,0.8-2.3l2.2-6.2h1v10.5h-0.7v-6.9
					c0-0.9,0.1-2,0.1-2.8h-0.1l-0.8,2.4l-2.3,6.3h-0.6l-2.3-6.3l-0.8-2.4h-0.1c0,0.9,0.1,2,0.1,2.8v6.9h-0.7V254.8z"/>
				<path d="M284.2,263.5c0-1.7,1.5-2.5,5-2.9c0-1.2-0.3-2.4-1.8-2.4c-1,0-1.9,0.5-2.4,0.9l-0.3-0.5c0.5-0.4,1.6-1,2.9-1
					c1.8,0,2.4,1.3,2.4,3v4.9h-0.6l-0.1-1h0c-0.8,0.6-1.7,1.2-2.7,1.2C285.3,265.6,284.2,264.9,284.2,263.5z M289.2,263.7v-2.6
					c-3.2,0.4-4.2,1.1-4.2,2.3c0,1.1,0.7,1.5,1.6,1.5C287.5,265,288.3,264.5,289.2,263.7z"/>
				<path d="M292.6,253.9h0.7v8.5h0l3.8-4.7h0.8l-2.5,3l2.9,4.6h-0.8l-2.6-4.1l-1.7,2v2.1h-0.7V253.9z"/>
				<path d="M299.4,261.6c0-2.5,1.6-4,3.4-4c1.8,0,2.9,1.3,2.9,3.6c0,0.2,0,0.4,0,0.6h-5.5c0,1.9,1.2,3.3,2.9,3.3
					c0.8,0,1.5-0.3,2.1-0.7l0.3,0.5c-0.6,0.4-1.3,0.8-2.4,0.8C301,265.6,299.4,264.1,299.4,261.6z M305.1,261.1c0-2-0.9-2.9-2.3-2.9
					c-1.3,0-2.5,1.1-2.6,2.9H305.1z"/>
				<path d="M309.9,268.7l0.2-0.6c0.2,0.1,0.4,0.1,0.6,0.1c0.9,0,1.6-0.9,2-2l0.2-0.7l-3.2-7.8h0.8l1.9,4.8c0.3,0.6,0.6,1.5,0.8,2.2
					h0.1c0.2-0.7,0.5-1.5,0.7-2.2l1.6-4.8h0.7l-3,8.7c-0.4,1.3-1.2,2.5-2.6,2.5C310.4,268.9,310.1,268.8,309.9,268.7z"/>
				<path d="M317.3,261.6c0-2.6,1.6-4,3.5-4c1.8,0,3.5,1.5,3.5,4c0,2.5-1.6,4-3.5,4C318.9,265.6,317.3,264.1,317.3,261.6z
					 M323.5,261.6c0-2-1.2-3.4-2.7-3.4s-2.7,1.4-2.7,3.4s1.2,3.4,2.7,3.4S323.5,263.6,323.5,261.6z"/>
				<path d="M326.4,262.6v-4.9h0.7v4.8c0,1.6,0.5,2.4,1.8,2.4c0.9,0,1.6-0.5,2.5-1.6v-5.7h0.7v7.7h-0.6l-0.1-1.3h0
					c-0.8,0.9-1.5,1.5-2.6,1.5C327.2,265.6,326.4,264.6,326.4,262.6z"/>
				<path d="M335,257.7h0.6l0.1,1.4h0c0.5-0.9,1.3-1.6,2.2-1.6c0.3,0,0.5,0,0.8,0.2l-0.2,0.6c-0.3-0.1-0.4-0.1-0.7-0.1
					c-0.7,0-1.5,0.5-2.1,2v5.2H335V257.7z"/>
				<path d="M342.6,267c0-0.7,0.4-1.4,1.1-1.9V265c-0.4-0.2-0.7-0.6-0.7-1.2c0-0.7,0.5-1.2,0.8-1.4v-0.1c-0.5-0.4-1-1.2-1-2.1
					c0-1.6,1.2-2.7,2.7-2.7c0.4,0,0.8,0.1,1,0.2h2.6v0.6h-1.8c0.5,0.4,0.8,1.1,0.8,1.9c0,1.6-1.2,2.7-2.7,2.7
					c-0.4,0-0.9-0.1-1.3-0.3c-0.3,0.3-0.6,0.6-0.6,1.1c0,0.6,0.3,1,1.5,1h1.6c1.7,0,2.5,0.5,2.5,1.8c0,1.3-1.4,2.6-3.6,2.6
					C343.8,269.1,342.6,268.3,342.6,267z M348.7,266.6c0-0.8-0.6-1.2-1.8-1.2h-1.6c-0.2,0-0.6,0-1-0.1c-0.7,0.5-1,1.1-1,1.6
					c0,1,0.9,1.6,2.5,1.6C347.6,268.5,348.7,267.5,348.7,266.6z M347.7,260.2c0-1.3-0.9-2.1-2-2.1s-2,0.8-2,2.1c0,1.3,0.9,2.2,2,2.2
					S347.7,261.5,347.7,260.2z"/>
				<path d="M350.9,262.6v-4.9h0.7v4.8c0,1.6,0.5,2.4,1.8,2.4c0.9,0,1.6-0.5,2.5-1.6v-5.7h0.7v7.7H356l-0.1-1.3h0
					c-0.8,0.9-1.5,1.5-2.6,1.5C351.7,265.6,350.9,264.6,350.9,262.6z"/>
				<path d="M358.9,261.6c0-2.5,1.6-4,3.4-4c1.8,0,2.9,1.3,2.9,3.6c0,0.2,0,0.4,0,0.6h-5.5c0,1.9,1.2,3.3,2.9,3.3
					c0.8,0,1.5-0.3,2.1-0.7l0.3,0.5c-0.6,0.4-1.3,0.8-2.4,0.8C360.5,265.6,358.9,264.1,358.9,261.6z M364.5,261.1
					c0-2-0.9-2.9-2.3-2.9c-1.3,0-2.5,1.1-2.6,2.9H364.5z"/>
				<path d="M366.3,264.5l0.4-0.5c0.6,0.5,1.3,1,2.4,1c1.2,0,1.8-0.7,1.8-1.5c0-1-1-1.4-1.9-1.7c-1.2-0.4-2.4-0.9-2.4-2.2
					c0-1.1,0.9-2,2.5-2c0.8,0,1.6,0.3,2.2,0.8l-0.4,0.5c-0.5-0.4-1.1-0.7-1.8-0.7c-1.2,0-1.7,0.7-1.7,1.4c0,0.9,0.9,1.2,1.8,1.6
					c1.2,0.5,2.5,0.8,2.5,2.3c0,1.2-0.9,2.2-2.6,2.2C368,265.6,367,265.1,366.3,264.5z"/>
				<path d="M372.8,264.5l0.4-0.5c0.6,0.5,1.3,1,2.4,1c1.2,0,1.8-0.7,1.8-1.5c0-1-1-1.4-1.9-1.7c-1.2-0.4-2.4-0.9-2.4-2.2
					c0-1.1,0.9-2,2.5-2c0.8,0,1.6,0.3,2.2,0.8l-0.4,0.5c-0.5-0.4-1.1-0.7-1.8-0.7c-1.2,0-1.7,0.7-1.7,1.4c0,0.9,0.9,1.2,1.8,1.6
					c1.2,0.5,2.5,0.8,2.5,2.3c0,1.2-0.9,2.2-2.6,2.2C374.5,265.6,373.5,265.1,372.8,264.5z"/>
				<path d="M379.6,261.6c0-2.5,1.6-4,3.4-4c1.8,0,2.9,1.3,2.9,3.6c0,0.2,0,0.4,0,0.6h-5.5c0,1.9,1.2,3.3,2.9,3.3
					c0.8,0,1.5-0.3,2.1-0.7l0.3,0.5c-0.6,0.4-1.3,0.8-2.4,0.8C381.2,265.6,379.6,264.1,379.6,261.6z M385.2,261.1
					c0-2-0.9-2.9-2.3-2.9c-1.3,0-2.5,1.1-2.6,2.9H385.2z"/>
				<path d="M387,264.5l0.4-0.5c0.6,0.5,1.3,1,2.4,1c1.2,0,1.8-0.7,1.8-1.5c0-1-1-1.4-1.9-1.7c-1.2-0.4-2.4-0.9-2.4-2.2
					c0-1.1,0.9-2,2.5-2c0.8,0,1.6,0.3,2.2,0.8l-0.4,0.5c-0.5-0.4-1.1-0.7-1.8-0.7c-1.2,0-1.7,0.7-1.7,1.4c0,0.9,0.9,1.2,1.8,1.6
					c1.2,0.5,2.5,0.8,2.5,2.3c0,1.2-0.9,2.2-2.6,2.2C388.7,265.6,387.7,265.1,387,264.5z"/>
				<path d="M397.6,253.9h0.7v3.3l0,1.7c0.8-0.8,1.6-1.4,2.7-1.4c1.6,0,2.3,1,2.3,2.9v4.9h-0.7v-4.8c0-1.6-0.5-2.4-1.8-2.4
					c-0.9,0-1.6,0.5-2.5,1.4v5.8h-0.7V253.9z"/>
				<path d="M405.4,261.6c0-2.5,1.6-4,3.4-4c1.8,0,2.9,1.3,2.9,3.6c0,0.2,0,0.4,0,0.6h-5.5c0,1.9,1.2,3.3,2.9,3.3
					c0.8,0,1.5-0.3,2.1-0.7l0.3,0.5c-0.6,0.4-1.3,0.8-2.4,0.8C407,265.6,405.4,264.1,405.4,261.6z M411.1,261.1c0-2-0.9-2.9-2.3-2.9
					c-1.3,0-2.5,1.1-2.6,2.9H411.1z"/>
				<path d="M413.8,257.7h0.6l0.1,1.4h0c0.5-0.9,1.3-1.6,2.2-1.6c0.3,0,0.5,0,0.8,0.2l-0.2,0.6c-0.3-0.1-0.4-0.1-0.7-0.1
					c-0.7,0-1.5,0.5-2.1,2v5.2h-0.7V257.7z"/>
				<path d="M418.2,261.6c0-2.5,1.6-4,3.4-4c1.8,0,2.9,1.3,2.9,3.6c0,0.2,0,0.4,0,0.6h-5.5c0,1.9,1.2,3.3,2.9,3.3
					c0.8,0,1.5-0.3,2.1-0.7l0.3,0.5c-0.6,0.4-1.3,0.8-2.4,0.8C419.8,265.6,418.2,264.1,418.2,261.6z M423.9,261.1
					c0-2-0.9-2.9-2.3-2.9c-1.3,0-2.5,1.1-2.6,2.9H423.9z"/>
				<path d="M426.5,263.9c0-0.5,0.3-0.7,0.7-0.7c0.4,0,0.7,0.3,0.7,0.7c0,0.4-0.3,0.7-0.7,0.7C426.8,264.6,426.5,264.3,426.5,263.9z
					 M426.8,254.8l0-1.1h0.7l0,1.1l-0.1,6.7h-0.5L426.8,254.8z"/>
			</g>
		</g>
		<line class="st1" x1="272" y1="246.6" x2="312" y2="246.6"/>
	</g>
</g>
</svg>
